%TF.GenerationSoftware,KiCad,Pcbnew,(6.0.8-1)-1*%
%TF.CreationDate,2022-12-25T14:42:35-06:00*%
%TF.ProjectId,M4_CAN_Feather_Carrier,4d345f43-414e-45f4-9665-61746865725f,rev?*%
%TF.SameCoordinates,Original*%
%TF.FileFunction,Soldermask,Top*%
%TF.FilePolarity,Negative*%
%FSLAX46Y46*%
G04 Gerber Fmt 4.6, Leading zero omitted, Abs format (unit mm)*
G04 Created by KiCad (PCBNEW (6.0.8-1)-1) date 2022-12-25 14:42:35*
%MOMM*%
%LPD*%
G01*
G04 APERTURE LIST*
G04 Aperture macros list*
%AMRoundRect*
0 Rectangle with rounded corners*
0 $1 Rounding radius*
0 $2 $3 $4 $5 $6 $7 $8 $9 X,Y pos of 4 corners*
0 Add a 4 corners polygon primitive as box body*
4,1,4,$2,$3,$4,$5,$6,$7,$8,$9,$2,$3,0*
0 Add four circle primitives for the rounded corners*
1,1,$1+$1,$2,$3*
1,1,$1+$1,$4,$5*
1,1,$1+$1,$6,$7*
1,1,$1+$1,$8,$9*
0 Add four rect primitives between the rounded corners*
20,1,$1+$1,$2,$3,$4,$5,0*
20,1,$1+$1,$4,$5,$6,$7,0*
20,1,$1+$1,$6,$7,$8,$9,0*
20,1,$1+$1,$8,$9,$2,$3,0*%
G04 Aperture macros list end*
%ADD10RoundRect,0.150000X0.625000X-0.150000X0.625000X0.150000X-0.625000X0.150000X-0.625000X-0.150000X0*%
%ADD11RoundRect,0.250000X0.650000X-0.350000X0.650000X0.350000X-0.650000X0.350000X-0.650000X-0.350000X0*%
%ADD12R,1.700000X1.700000*%
%ADD13O,1.700000X1.700000*%
%ADD14RoundRect,0.250000X1.500000X1.000000X-1.500000X1.000000X-1.500000X-1.000000X1.500000X-1.000000X0*%
%ADD15C,3.800000*%
%ADD16R,2.400000X2.400000*%
%ADD17C,2.400000*%
%ADD18R,2.670000X2.540000*%
%ADD19R,0.760000X1.270000*%
%ADD20RoundRect,0.150000X-0.150000X-0.625000X0.150000X-0.625000X0.150000X0.625000X-0.150000X0.625000X0*%
%ADD21RoundRect,0.250000X-0.350000X-0.650000X0.350000X-0.650000X0.350000X0.650000X-0.350000X0.650000X0*%
%ADD22RoundRect,0.250000X0.475000X-0.250000X0.475000X0.250000X-0.475000X0.250000X-0.475000X-0.250000X0*%
%ADD23RoundRect,0.250000X0.450000X-0.262500X0.450000X0.262500X-0.450000X0.262500X-0.450000X-0.262500X0*%
%ADD24C,1.700000*%
%ADD25RoundRect,0.150000X-0.150000X0.825000X-0.150000X-0.825000X0.150000X-0.825000X0.150000X0.825000X0*%
%ADD26RoundRect,0.250000X0.262500X0.450000X-0.262500X0.450000X-0.262500X-0.450000X0.262500X-0.450000X0*%
%ADD27R,2.000000X1.500000*%
%ADD28RoundRect,0.250000X-0.450000X0.262500X-0.450000X-0.262500X0.450000X-0.262500X0.450000X0.262500X0*%
%ADD29RoundRect,0.150000X0.150000X-0.825000X0.150000X0.825000X-0.150000X0.825000X-0.150000X-0.825000X0*%
G04 APERTURE END LIST*
D10*
%TO.C,X3*%
X132620000Y-83796000D03*
X132620000Y-82796000D03*
X132620000Y-81796000D03*
X132620000Y-80796000D03*
D11*
X136495000Y-85096000D03*
X136495000Y-79496000D03*
%TD*%
D12*
%TO.C,J5*%
X111700000Y-104820000D03*
D13*
X111700000Y-107360000D03*
X111700000Y-109900000D03*
%TD*%
D14*
%TO.C,C1*%
X100405000Y-73660000D03*
X93905000Y-73660000D03*
%TD*%
D15*
%TO.C,H1*%
X135017000Y-109220000D03*
%TD*%
D16*
%TO.C,J2*%
X133675000Y-74295000D03*
D17*
X130175000Y-74295000D03*
X126675000Y-74295000D03*
%TD*%
D18*
%TO.C,D1*%
X91001000Y-66675000D03*
D19*
X88646000Y-66675000D03*
%TD*%
D15*
%TO.C,H2*%
X83185000Y-65913000D03*
%TD*%
D20*
%TO.C,X2*%
X116600000Y-105950000D03*
X117600000Y-105950000D03*
X118600000Y-105950000D03*
X119600000Y-105950000D03*
D21*
X115300000Y-109825000D03*
X120900000Y-109825000D03*
%TD*%
D22*
%TO.C,C4*%
X91186000Y-91440000D03*
X91186000Y-89540000D03*
%TD*%
D15*
%TO.C,H4*%
X83185000Y-109220000D03*
%TD*%
%TO.C,H3*%
X135017000Y-65913000D03*
%TD*%
D23*
%TO.C,R5*%
X100203000Y-66722000D03*
X100203000Y-64897000D03*
%TD*%
D24*
%TO.C,U1*%
X104648000Y-64936000D03*
X104648000Y-67476000D03*
X104648000Y-70016000D03*
X104648000Y-72556000D03*
%TD*%
D22*
%TO.C,C3*%
X110490000Y-90800000D03*
X110490000Y-88900000D03*
%TD*%
D24*
%TO.C,J3*%
X100310000Y-104775000D03*
X100310000Y-107315000D03*
X100310000Y-109855000D03*
X102850000Y-104775000D03*
X102850000Y-107315000D03*
X102850000Y-109855000D03*
X105390000Y-104775000D03*
X105390000Y-107315000D03*
X105390000Y-109855000D03*
X107930000Y-104775000D03*
X107930000Y-107315000D03*
X107930000Y-109855000D03*
%TD*%
D25*
%TO.C,U3*%
X120015000Y-88330000D03*
X118745000Y-88330000D03*
X117475000Y-88330000D03*
X116205000Y-88330000D03*
X114935000Y-88330000D03*
X113665000Y-88330000D03*
X112395000Y-88330000D03*
X112395000Y-93280000D03*
X113665000Y-93280000D03*
X114935000Y-93280000D03*
X116205000Y-93280000D03*
X117475000Y-93280000D03*
X118745000Y-93280000D03*
X120015000Y-93280000D03*
%TD*%
D22*
%TO.C,C2*%
X121920000Y-88265000D03*
X121920000Y-86365000D03*
%TD*%
D26*
%TO.C,R2*%
X116840000Y-102870000D03*
X115015000Y-102870000D03*
%TD*%
D10*
%TO.C,X4*%
X132620000Y-92426000D03*
X132620000Y-91426000D03*
X132620000Y-90426000D03*
X132620000Y-89426000D03*
D11*
X136495000Y-88126000D03*
X136495000Y-93726000D03*
%TD*%
D27*
%TO.C,SW1*%
X104720000Y-76327000D03*
X113720000Y-76327000D03*
%TD*%
D24*
%TO.C,J7*%
X87630000Y-104775000D03*
X87630000Y-107315000D03*
X87630000Y-109855000D03*
X90170000Y-104775000D03*
X90170000Y-107315000D03*
X90170000Y-109855000D03*
X92710000Y-104775000D03*
X92710000Y-107315000D03*
X92710000Y-109855000D03*
X95250000Y-104775000D03*
X95250000Y-107315000D03*
X95250000Y-109855000D03*
%TD*%
D28*
%TO.C,R4*%
X108458000Y-92409000D03*
X108458000Y-94234000D03*
%TD*%
%TO.C,R3*%
X110363000Y-92409000D03*
X110363000Y-94234000D03*
%TD*%
D16*
%TO.C,J1*%
X85090000Y-71910000D03*
D17*
X85090000Y-75410000D03*
%TD*%
D29*
%TO.C,U4*%
X94234000Y-93153000D03*
X95504000Y-93153000D03*
X96774000Y-93153000D03*
X98044000Y-93153000D03*
X99314000Y-93153000D03*
X100584000Y-93153000D03*
X101854000Y-93153000D03*
X101854000Y-88203000D03*
X100584000Y-88203000D03*
X99314000Y-88203000D03*
X98044000Y-88203000D03*
X96774000Y-88203000D03*
X95504000Y-88203000D03*
X94234000Y-88203000D03*
%TD*%
D24*
%TO.C,U2*%
X86930000Y-100330000D03*
X89440000Y-100330000D03*
X91980000Y-100330000D03*
X94520000Y-100330000D03*
X97060000Y-100330000D03*
X99600000Y-100330000D03*
X102140000Y-100330000D03*
X104680000Y-100330000D03*
X107220000Y-100330000D03*
X109760000Y-100330000D03*
X112300000Y-100330000D03*
X114840000Y-100330000D03*
X117380000Y-100330000D03*
X119920000Y-100330000D03*
X122460000Y-100330000D03*
X125000000Y-100330000D03*
X125000000Y-80010000D03*
X122460000Y-80010000D03*
X119920000Y-80010000D03*
X117380000Y-80010000D03*
X114840000Y-80010000D03*
X112300000Y-80010000D03*
X109760000Y-80010000D03*
X107220000Y-80010000D03*
X104680000Y-80010000D03*
X102140000Y-80010000D03*
X99600000Y-80010000D03*
X97060000Y-80010000D03*
%TD*%
D20*
%TO.C,X1*%
X125033000Y-105950000D03*
X126033000Y-105950000D03*
X127033000Y-105950000D03*
X128033000Y-105950000D03*
D21*
X129333000Y-109825000D03*
X123733000Y-109825000D03*
%TD*%
D26*
%TO.C,R1*%
X121539000Y-97790000D03*
X119714000Y-97790000D03*
%TD*%
D23*
%TO.C,R6*%
X106300000Y-91012500D03*
X106300000Y-89187500D03*
%TD*%
D12*
%TO.C,J4*%
X135375000Y-104340000D03*
D13*
X132835000Y-104340000D03*
X135375000Y-101800000D03*
X132835000Y-101800000D03*
X135375000Y-99260000D03*
X132835000Y-99260000D03*
X135375000Y-96720000D03*
X132835000Y-96720000D03*
%TD*%
M02*
