%TF.GenerationSoftware,KiCad,Pcbnew,(6.0.8-1)-1*%
%TF.CreationDate,2022-12-25T14:42:34-06:00*%
%TF.ProjectId,M4_CAN_Feather_Carrier,4d345f43-414e-45f4-9665-61746865725f,rev?*%
%TF.SameCoordinates,Original*%
%TF.FileFunction,Copper,L2,Bot*%
%TF.FilePolarity,Positive*%
%FSLAX46Y46*%
G04 Gerber Fmt 4.6, Leading zero omitted, Abs format (unit mm)*
G04 Created by KiCad (PCBNEW (6.0.8-1)-1) date 2022-12-25 14:42:34*
%MOMM*%
%LPD*%
G01*
G04 APERTURE LIST*
%TA.AperFunction,ComponentPad*%
%ADD10R,1.700000X1.700000*%
%TD*%
%TA.AperFunction,ComponentPad*%
%ADD11O,1.700000X1.700000*%
%TD*%
%TA.AperFunction,ComponentPad*%
%ADD12C,3.800000*%
%TD*%
%TA.AperFunction,ComponentPad*%
%ADD13R,2.400000X2.400000*%
%TD*%
%TA.AperFunction,ComponentPad*%
%ADD14C,2.400000*%
%TD*%
%TA.AperFunction,ComponentPad*%
%ADD15C,1.700000*%
%TD*%
%TA.AperFunction,ViaPad*%
%ADD16C,0.800000*%
%TD*%
%TA.AperFunction,Conductor*%
%ADD17C,0.250000*%
%TD*%
%TA.AperFunction,Conductor*%
%ADD18C,0.800000*%
%TD*%
%TA.AperFunction,Conductor*%
%ADD19C,0.750000*%
%TD*%
%TA.AperFunction,Conductor*%
%ADD20C,0.500000*%
%TD*%
%TA.AperFunction,Conductor*%
%ADD21C,0.700000*%
%TD*%
G04 APERTURE END LIST*
D10*
%TO.P,J5,1,Pin_1*%
%TO.N,+3.3V*%
X111700000Y-104820000D03*
D11*
%TO.P,J5,2,Pin_2*%
%TO.N,VDD*%
X111700000Y-107360000D03*
%TO.P,J5,3,Pin_3*%
%TO.N,+5V*%
X111700000Y-109900000D03*
%TD*%
D12*
%TO.P,H1,1,1*%
%TO.N,N/C*%
X135017000Y-109220000D03*
%TD*%
D13*
%TO.P,J2,1,Pin_1*%
%TO.N,/NEOPIXEL*%
X133675000Y-74295000D03*
D14*
%TO.P,J2,2,Pin_2*%
%TO.N,+5V*%
X130175000Y-74295000D03*
%TO.P,J2,3,Pin_3*%
%TO.N,GND*%
X126675000Y-74295000D03*
%TD*%
D12*
%TO.P,H2,1,1*%
%TO.N,unconnected-(H2-Pad1)*%
X83185000Y-65913000D03*
%TD*%
%TO.P,H4,1,1*%
%TO.N,unconnected-(H4-Pad1)*%
X83185000Y-109220000D03*
%TD*%
%TO.P,H3,1,1*%
%TO.N,unconnected-(H3-Pad1)*%
X135017000Y-65913000D03*
%TD*%
D15*
%TO.P,U1,1,EN*%
%TO.N,Net-(R5-Pad2)*%
X104648000Y-64936000D03*
%TO.P,U1,2,VIN*%
%TO.N,+12V*%
X104648000Y-67476000D03*
%TO.P,U1,3,GND*%
%TO.N,GND*%
X104648000Y-70016000D03*
%TO.P,U1,4,VOUT*%
%TO.N,+5V*%
X104648000Y-72556000D03*
%TD*%
%TO.P,J3,1,S1*%
%TO.N,Net-(J3-Pad1)*%
X100310000Y-104775000D03*
%TO.P,J3,2,P1*%
%TO.N,VDD*%
X100310000Y-107315000D03*
%TO.P,J3,3,G1*%
%TO.N,GND*%
X100310000Y-109855000D03*
%TO.P,J3,4,S2*%
%TO.N,Net-(J3-Pad4)*%
X102850000Y-104775000D03*
%TO.P,J3,5,P2*%
%TO.N,VDD*%
X102850000Y-107315000D03*
%TO.P,J3,6,G2*%
%TO.N,GND*%
X102850000Y-109855000D03*
%TO.P,J3,7,S3*%
%TO.N,Net-(J3-Pad7)*%
X105390000Y-104775000D03*
%TO.P,J3,8,P3*%
%TO.N,VDD*%
X105390000Y-107315000D03*
%TO.P,J3,9,G3*%
%TO.N,GND*%
X105390000Y-109855000D03*
%TO.P,J3,10,S4*%
%TO.N,Net-(J3-Pad10)*%
X107930000Y-104775000D03*
%TO.P,J3,11,P4*%
%TO.N,VDD*%
X107930000Y-107315000D03*
%TO.P,J3,12,G4*%
%TO.N,GND*%
X107930000Y-109855000D03*
%TD*%
%TO.P,J7,1,S1*%
%TO.N,Net-(J7-Pad1)*%
X87630000Y-104775000D03*
%TO.P,J7,2,P1*%
%TO.N,+3.3V*%
X87630000Y-107315000D03*
%TO.P,J7,3,G1*%
%TO.N,GND*%
X87630000Y-109855000D03*
%TO.P,J7,4,S2*%
%TO.N,Net-(J7-Pad4)*%
X90170000Y-104775000D03*
%TO.P,J7,5,P2*%
%TO.N,+3.3V*%
X90170000Y-107315000D03*
%TO.P,J7,6,G2*%
%TO.N,GND*%
X90170000Y-109855000D03*
%TO.P,J7,7,S3*%
%TO.N,Net-(J7-Pad7)*%
X92710000Y-104775000D03*
%TO.P,J7,8,P3*%
%TO.N,+3.3V*%
X92710000Y-107315000D03*
%TO.P,J7,9,G3*%
%TO.N,GND*%
X92710000Y-109855000D03*
%TO.P,J7,10,S4*%
%TO.N,Net-(J7-Pad10)*%
X95250000Y-104775000D03*
%TO.P,J7,11,P4*%
%TO.N,+3.3V*%
X95250000Y-107315000D03*
%TO.P,J7,12,G4*%
%TO.N,GND*%
X95250000Y-109855000D03*
%TD*%
D13*
%TO.P,J1,1,Pin_1*%
%TO.N,+BATT*%
X85090000Y-71910000D03*
D14*
%TO.P,J1,2,Pin_2*%
%TO.N,GND*%
X85090000Y-75410000D03*
%TD*%
D15*
%TO.P,U2,1,RST*%
%TO.N,unconnected-(U2-Pad1)*%
X86930000Y-100330000D03*
%TO.P,U2,2,3V*%
%TO.N,+3.3V*%
X89440000Y-100330000D03*
%TO.P,U2,3,ARef*%
%TO.N,unconnected-(U2-Pad3)*%
X91980000Y-100330000D03*
%TO.P,U2,4,GND*%
%TO.N,GND*%
X94520000Y-100330000D03*
%TO.P,U2,5,A0*%
%TO.N,/A0*%
X97060000Y-100330000D03*
%TO.P,U2,6,A1*%
%TO.N,/A1*%
X99600000Y-100330000D03*
%TO.P,U2,7,A2*%
%TO.N,/A2*%
X102140000Y-100330000D03*
%TO.P,U2,8,A3*%
%TO.N,/A3*%
X104680000Y-100330000D03*
%TO.P,U2,9,A4*%
%TO.N,unconnected-(U2-Pad9)*%
X107220000Y-100330000D03*
%TO.P,U2,10,A5*%
%TO.N,/LS_OE*%
X109760000Y-100330000D03*
%TO.P,U2,11,SCK*%
%TO.N,/SCL_2*%
X112300000Y-100330000D03*
%TO.P,U2,12,MOSI*%
%TO.N,unconnected-(U2-Pad12)*%
X114840000Y-100330000D03*
%TO.P,U2,13,MISO*%
%TO.N,unconnected-(U2-Pad13)*%
X117380000Y-100330000D03*
%TO.P,U2,14,D0*%
%TO.N,/SCL_1*%
X119920000Y-100330000D03*
%TO.P,U2,15,D1*%
%TO.N,/SDA_1*%
X122460000Y-100330000D03*
%TO.P,U2,16,D4*%
%TO.N,/NEOPIXEL*%
X125000000Y-100330000D03*
%TO.P,U2,17,SDA*%
%TO.N,/SDA*%
X125000000Y-80010000D03*
%TO.P,U2,18,SCL*%
%TO.N,/SCL*%
X122460000Y-80010000D03*
%TO.P,U2,19,D5*%
%TO.N,/SDA_2*%
X119920000Y-80010000D03*
%TO.P,U2,20,D6*%
%TO.N,/DIO0*%
X117380000Y-80010000D03*
%TO.P,U2,21,D9*%
%TO.N,/DIO1*%
X114840000Y-80010000D03*
%TO.P,U2,22,D10*%
%TO.N,/DIO2*%
X112300000Y-80010000D03*
%TO.P,U2,23,D11*%
%TO.N,/DIO3*%
X109760000Y-80010000D03*
%TO.P,U2,24,D12*%
%TO.N,/SDA_3*%
X107220000Y-80010000D03*
%TO.P,U2,25,D13*%
%TO.N,/SCL_3*%
X104680000Y-80010000D03*
%TO.P,U2,26,VBUS*%
%TO.N,Net-(SW1-Pad1)*%
X102140000Y-80010000D03*
%TO.P,U2,27,EN*%
%TO.N,unconnected-(U2-Pad27)*%
X99600000Y-80010000D03*
%TO.P,U2,28,VBAT*%
%TO.N,unconnected-(U2-Pad28)*%
X97060000Y-80010000D03*
%TD*%
D10*
%TO.P,J4,1,Pin_1*%
%TO.N,VDD*%
X135375000Y-104340000D03*
D11*
%TO.P,J4,2,Pin_2*%
%TO.N,GND*%
X132835000Y-104340000D03*
%TO.P,J4,3,Pin_3*%
%TO.N,VDD*%
X135375000Y-101800000D03*
%TO.P,J4,4,Pin_4*%
%TO.N,GND*%
X132835000Y-101800000D03*
%TO.P,J4,5,Pin_5*%
%TO.N,VDD*%
X135375000Y-99260000D03*
%TO.P,J4,6,Pin_6*%
%TO.N,GND*%
X132835000Y-99260000D03*
%TO.P,J4,7,Pin_7*%
%TO.N,VDD*%
X135375000Y-96720000D03*
%TO.P,J4,8,Pin_8*%
%TO.N,GND*%
X132835000Y-96720000D03*
%TD*%
D16*
%TO.N,GND*%
X135546000Y-90678000D03*
X130810000Y-84074000D03*
X110871000Y-87376000D03*
X123100500Y-86614000D03*
X130048000Y-92964000D03*
X135546000Y-81788000D03*
X126533000Y-108800000D03*
X107300000Y-87900000D03*
X91821000Y-88265000D03*
X118100000Y-108800000D03*
X116600000Y-104394000D03*
X125263000Y-103886000D03*
%TO.N,/NEOPIXEL*%
X124968000Y-98298000D03*
X128353500Y-92456000D03*
%TO.N,+3.3V*%
X129286000Y-91186000D03*
X119700000Y-90200000D03*
X122428000Y-92202000D03*
X98600000Y-91400000D03*
%TO.N,/LS_OE*%
X106700000Y-93000000D03*
X113000000Y-95000000D03*
%TO.N,/SCL_2*%
X134366000Y-81534000D03*
%TO.N,/SDA_2*%
X129794000Y-81788000D03*
X120904000Y-81788000D03*
%TO.N,/SDA_3*%
X129032000Y-88138000D03*
X111506000Y-84582000D03*
%TO.N,/SCL_3*%
X109982000Y-85090000D03*
X130048000Y-89408000D03*
%TO.N,Net-(J3-Pad4)*%
X111252000Y-95631000D03*
X109982000Y-97917000D03*
%TO.N,Net-(J3-Pad7)*%
X113792000Y-103251000D03*
X111633000Y-102489000D03*
%TO.N,VDD*%
X120396000Y-96139000D03*
X118491000Y-98806000D03*
X120396000Y-94525500D03*
%TD*%
D17*
%TO.N,/NEOPIXEL*%
X128353500Y-92456000D02*
X124968000Y-95841500D01*
X124968000Y-98044000D02*
X124968000Y-98298000D01*
X124968000Y-95841500D02*
X124968000Y-98044000D01*
D18*
%TO.N,+5V*%
X133900000Y-106500000D02*
X136300000Y-106500000D01*
X137100000Y-105700000D02*
X137100000Y-80800000D01*
X111700000Y-109900000D02*
X113200000Y-111400000D01*
X136300000Y-106500000D02*
X137100000Y-105700000D01*
X131800000Y-77700000D02*
X130175000Y-76075000D01*
X134000000Y-77700000D02*
X131800000Y-77700000D01*
X113200000Y-111400000D02*
X129000000Y-111400000D01*
X130175000Y-76075000D02*
X130175000Y-74295000D01*
X129000000Y-111400000D02*
X133900000Y-106500000D01*
X137100000Y-80800000D02*
X134000000Y-77700000D01*
D19*
%TO.N,+3.3V*%
X97700000Y-103800000D02*
X97700000Y-106400000D01*
X96785000Y-107315000D02*
X95250000Y-107315000D01*
D20*
X123444000Y-91186000D02*
X129286000Y-91186000D01*
X118500000Y-91400000D02*
X119700000Y-90200000D01*
D17*
X111700000Y-104820000D02*
X111220000Y-104820000D01*
D19*
X108900000Y-102500000D02*
X99000000Y-102500000D01*
X99000000Y-102500000D02*
X97700000Y-103800000D01*
X97700000Y-106400000D02*
X96785000Y-107315000D01*
D20*
X122428000Y-92202000D02*
X123444000Y-91186000D01*
D19*
X111220000Y-104820000D02*
X108900000Y-102500000D01*
D20*
X98600000Y-91400000D02*
X118500000Y-91400000D01*
D17*
%TO.N,/LS_OE*%
X112300000Y-94300000D02*
X107400000Y-94300000D01*
X113000000Y-95000000D02*
X112300000Y-94300000D01*
X109760000Y-100330000D02*
X109760000Y-99940000D01*
X109760000Y-99940000D02*
X113000000Y-96700000D01*
X113000000Y-96700000D02*
X113000000Y-95000000D01*
X107400000Y-94300000D02*
X106700000Y-93600000D01*
X106700000Y-93600000D02*
X106700000Y-93000000D01*
%TO.N,/SCL_2*%
X121630000Y-90170000D02*
X120700000Y-91100000D01*
X120700000Y-91100000D02*
X120600000Y-91100000D01*
X134366000Y-81534000D02*
X134366000Y-88392000D01*
X112300000Y-99400000D02*
X112300000Y-100330000D01*
X120600000Y-91100000D02*
X112300000Y-99400000D01*
X132588000Y-90170000D02*
X121630000Y-90170000D01*
X134366000Y-88392000D02*
X132588000Y-90170000D01*
%TO.N,/SDA_2*%
X129794000Y-81788000D02*
X120904000Y-81788000D01*
%TO.N,/SDA_3*%
X129032000Y-88138000D02*
X114808000Y-88138000D01*
X111506000Y-84836000D02*
X111506000Y-84582000D01*
X111506000Y-84836000D02*
X114808000Y-88138000D01*
%TO.N,/SCL_3*%
X114808000Y-89408000D02*
X130048000Y-89408000D01*
X109982000Y-85090000D02*
X110490000Y-85090000D01*
X110490000Y-85090000D02*
X114808000Y-89408000D01*
%TO.N,Net-(J3-Pad4)*%
X109982000Y-96901000D02*
X109982000Y-97917000D01*
X111252000Y-95631000D02*
X109982000Y-96901000D01*
%TO.N,Net-(J3-Pad7)*%
X113030000Y-102489000D02*
X111633000Y-102489000D01*
X113792000Y-103251000D02*
X113030000Y-102489000D01*
D21*
%TO.N,VDD*%
X135250000Y-105550000D02*
X133604899Y-105550000D01*
D19*
X111700000Y-107360000D02*
X131661142Y-107360000D01*
D20*
X120396000Y-94525500D02*
X120396000Y-96139000D01*
D21*
X135375000Y-105425000D02*
X135250000Y-105550000D01*
X131661142Y-107360000D02*
X131696498Y-107360000D01*
D19*
X135400000Y-96720000D02*
X135400000Y-104340000D01*
D20*
X120396000Y-96139000D02*
X120396000Y-96901000D01*
X120396000Y-96901000D02*
X118491000Y-98806000D01*
D21*
X131696498Y-107360000D02*
X133428249Y-105628249D01*
X135375000Y-104340000D02*
X135375000Y-105425000D01*
D19*
X135375000Y-97244745D02*
X135375000Y-104340000D01*
%TD*%
%TA.AperFunction,Conductor*%
%TO.N,GND*%
G36*
X137863621Y-63014502D02*
G01*
X137910114Y-63068158D01*
X137921500Y-63120500D01*
X137921500Y-80028369D01*
X137901498Y-80096490D01*
X137847842Y-80142983D01*
X137777568Y-80153087D01*
X137712653Y-80122689D01*
X137711253Y-80121134D01*
X137699865Y-80112860D01*
X137684832Y-80100019D01*
X134699981Y-77115168D01*
X134687140Y-77100135D01*
X134682746Y-77094087D01*
X134682745Y-77094086D01*
X134678866Y-77088747D01*
X134628041Y-77042984D01*
X134623256Y-77038443D01*
X134608741Y-77023928D01*
X134601282Y-77017888D01*
X134592784Y-77011006D01*
X134587769Y-77006722D01*
X134541855Y-76965381D01*
X134541850Y-76965377D01*
X134536944Y-76960960D01*
X134531228Y-76957660D01*
X134531224Y-76957657D01*
X134524763Y-76953927D01*
X134508466Y-76942727D01*
X134502660Y-76938025D01*
X134502658Y-76938024D01*
X134497530Y-76933871D01*
X134436577Y-76902814D01*
X134430782Y-76899667D01*
X134377279Y-76868777D01*
X134377278Y-76868776D01*
X134371556Y-76865473D01*
X134365274Y-76863432D01*
X134365272Y-76863431D01*
X134358174Y-76861125D01*
X134339907Y-76853559D01*
X134327370Y-76847171D01*
X134261299Y-76829467D01*
X134254997Y-76827600D01*
X134189928Y-76806458D01*
X134183363Y-76805768D01*
X134183354Y-76805766D01*
X134175925Y-76804985D01*
X134156491Y-76801383D01*
X134149286Y-76799453D01*
X134149284Y-76799453D01*
X134142903Y-76797743D01*
X134136312Y-76797398D01*
X134136308Y-76797397D01*
X134074616Y-76794164D01*
X134068042Y-76793647D01*
X134050884Y-76791844D01*
X134050882Y-76791844D01*
X134047610Y-76791500D01*
X134027074Y-76791500D01*
X134020480Y-76791327D01*
X133958782Y-76788093D01*
X133958777Y-76788093D01*
X133952190Y-76787748D01*
X133938292Y-76789949D01*
X133918583Y-76791500D01*
X132228503Y-76791500D01*
X132160382Y-76771498D01*
X132139408Y-76754595D01*
X131215951Y-75831138D01*
X131181925Y-75768826D01*
X131186990Y-75698011D01*
X131223634Y-75645876D01*
X131375862Y-75517006D01*
X131543295Y-75326084D01*
X131557686Y-75303712D01*
X131678141Y-75116442D01*
X131680669Y-75112512D01*
X131725618Y-75012729D01*
X131771834Y-74958835D01*
X131839850Y-74938482D01*
X131908073Y-74958132D01*
X131954842Y-75011547D01*
X131966500Y-75064480D01*
X131966500Y-75543134D01*
X131973255Y-75605316D01*
X132024385Y-75741705D01*
X132111739Y-75858261D01*
X132228295Y-75945615D01*
X132364684Y-75996745D01*
X132426866Y-76003500D01*
X134923134Y-76003500D01*
X134985316Y-75996745D01*
X135121705Y-75945615D01*
X135238261Y-75858261D01*
X135325615Y-75741705D01*
X135376745Y-75605316D01*
X135383500Y-75543134D01*
X135383500Y-73046866D01*
X135376745Y-72984684D01*
X135325615Y-72848295D01*
X135238261Y-72731739D01*
X135121705Y-72644385D01*
X134985316Y-72593255D01*
X134923134Y-72586500D01*
X132426866Y-72586500D01*
X132364684Y-72593255D01*
X132228295Y-72644385D01*
X132111739Y-72731739D01*
X132024385Y-72848295D01*
X131973255Y-72984684D01*
X131966500Y-73046866D01*
X131966500Y-73516052D01*
X131946498Y-73584173D01*
X131892842Y-73630666D01*
X131822568Y-73640770D01*
X131757988Y-73611276D01*
X131725829Y-73565639D01*
X131725099Y-73565987D01*
X131723084Y-73561762D01*
X131721391Y-73557409D01*
X131719073Y-73553353D01*
X131597702Y-73340997D01*
X131597700Y-73340995D01*
X131595383Y-73336940D01*
X131438171Y-73137517D01*
X131253209Y-72963523D01*
X131204443Y-72929693D01*
X131048393Y-72821437D01*
X131048390Y-72821435D01*
X131044561Y-72818779D01*
X131040384Y-72816719D01*
X131040377Y-72816715D01*
X130820996Y-72708528D01*
X130820992Y-72708527D01*
X130816810Y-72706464D01*
X130574960Y-72629047D01*
X130570355Y-72628297D01*
X130328935Y-72588980D01*
X130328934Y-72588980D01*
X130324323Y-72588229D01*
X130197365Y-72586567D01*
X130075083Y-72584966D01*
X130075080Y-72584966D01*
X130070406Y-72584905D01*
X129818787Y-72619149D01*
X129814301Y-72620457D01*
X129814299Y-72620457D01*
X129787401Y-72628297D01*
X129574993Y-72690208D01*
X129570740Y-72692168D01*
X129570739Y-72692169D01*
X129542818Y-72705041D01*
X129344380Y-72796522D01*
X129340471Y-72799085D01*
X129135928Y-72933189D01*
X129135923Y-72933193D01*
X129132015Y-72935755D01*
X129077195Y-72984684D01*
X128990062Y-73062453D01*
X128942562Y-73104848D01*
X128780183Y-73300087D01*
X128648447Y-73517182D01*
X128646638Y-73521496D01*
X128646637Y-73521498D01*
X128559552Y-73729173D01*
X128550246Y-73751365D01*
X128546804Y-73764919D01*
X128510651Y-73826019D01*
X128447203Y-73857875D01*
X128376604Y-73850371D01*
X128321269Y-73805890D01*
X128307248Y-73779571D01*
X128222633Y-73561983D01*
X128218619Y-73553567D01*
X128097284Y-73341276D01*
X128092074Y-73333553D01*
X128060787Y-73293865D01*
X128048863Y-73285395D01*
X128037328Y-73291882D01*
X127047022Y-74282188D01*
X127039408Y-74296132D01*
X127039539Y-74297965D01*
X127043790Y-74304580D01*
X128038732Y-75299522D01*
X128051112Y-75306282D01*
X128059453Y-75300038D01*
X128177700Y-75116202D01*
X128182147Y-75108011D01*
X128282572Y-74885076D01*
X128285766Y-74876302D01*
X128303237Y-74814354D01*
X128340979Y-74754220D01*
X128405240Y-74724038D01*
X128475618Y-74733389D01*
X128529769Y-74779304D01*
X128543093Y-74805977D01*
X128609831Y-74991858D01*
X128612048Y-74995984D01*
X128727666Y-75211160D01*
X128730025Y-75215551D01*
X128732820Y-75219294D01*
X128732822Y-75219297D01*
X128879171Y-75415282D01*
X128879176Y-75415288D01*
X128881963Y-75419020D01*
X128885272Y-75422300D01*
X128885277Y-75422306D01*
X129058990Y-75594509D01*
X129062307Y-75597797D01*
X129066069Y-75600555D01*
X129066072Y-75600558D01*
X129127879Y-75645876D01*
X129215006Y-75709760D01*
X129258113Y-75766170D01*
X129266500Y-75811371D01*
X129266500Y-75993583D01*
X129264949Y-76013293D01*
X129262748Y-76027190D01*
X129263093Y-76033777D01*
X129263093Y-76033782D01*
X129266327Y-76095480D01*
X129266500Y-76102074D01*
X129266500Y-76122610D01*
X129266844Y-76125882D01*
X129266844Y-76125884D01*
X129268647Y-76143042D01*
X129269164Y-76149616D01*
X129272743Y-76217903D01*
X129274453Y-76224284D01*
X129274453Y-76224286D01*
X129276383Y-76231491D01*
X129279985Y-76250925D01*
X129280766Y-76258354D01*
X129280768Y-76258363D01*
X129281458Y-76264928D01*
X129302600Y-76329997D01*
X129304467Y-76336299D01*
X129322171Y-76402370D01*
X129326193Y-76410263D01*
X129328559Y-76414907D01*
X129336125Y-76433173D01*
X129340473Y-76446556D01*
X129343776Y-76452278D01*
X129343777Y-76452279D01*
X129374667Y-76505782D01*
X129377814Y-76511577D01*
X129408871Y-76572530D01*
X129413024Y-76577658D01*
X129413025Y-76577660D01*
X129417727Y-76583466D01*
X129428927Y-76599763D01*
X129432657Y-76606224D01*
X129432660Y-76606228D01*
X129435960Y-76611944D01*
X129440377Y-76616850D01*
X129440381Y-76616855D01*
X129481722Y-76662769D01*
X129486006Y-76667784D01*
X129498928Y-76683741D01*
X129513443Y-76698256D01*
X129517984Y-76703041D01*
X129563747Y-76753866D01*
X129569086Y-76757745D01*
X129569087Y-76757746D01*
X129575135Y-76762140D01*
X129590168Y-76774981D01*
X131100019Y-78284832D01*
X131112860Y-78299865D01*
X131121134Y-78311253D01*
X131126043Y-78315673D01*
X131171959Y-78357016D01*
X131176744Y-78361557D01*
X131191259Y-78376072D01*
X131193823Y-78378148D01*
X131207216Y-78388994D01*
X131212231Y-78393278D01*
X131258145Y-78434619D01*
X131258150Y-78434623D01*
X131263056Y-78439040D01*
X131268772Y-78442340D01*
X131268776Y-78442343D01*
X131275237Y-78446073D01*
X131291533Y-78457273D01*
X131302470Y-78466129D01*
X131363421Y-78497185D01*
X131369215Y-78500331D01*
X131428444Y-78534527D01*
X131434726Y-78536568D01*
X131434728Y-78536569D01*
X131441826Y-78538875D01*
X131460092Y-78546440D01*
X131472630Y-78552829D01*
X131538701Y-78570533D01*
X131545003Y-78572400D01*
X131610072Y-78593542D01*
X131616637Y-78594232D01*
X131616646Y-78594234D01*
X131624075Y-78595015D01*
X131643509Y-78598617D01*
X131650714Y-78600547D01*
X131650716Y-78600547D01*
X131657097Y-78602257D01*
X131663688Y-78602602D01*
X131663692Y-78602603D01*
X131725384Y-78605836D01*
X131731958Y-78606353D01*
X131749116Y-78608156D01*
X131749118Y-78608156D01*
X131752390Y-78608500D01*
X131772926Y-78608500D01*
X131779520Y-78608673D01*
X131841218Y-78611907D01*
X131841223Y-78611907D01*
X131847810Y-78612252D01*
X131861708Y-78610051D01*
X131881417Y-78608500D01*
X133571497Y-78608500D01*
X133639618Y-78628502D01*
X133660592Y-78645405D01*
X136154595Y-81139408D01*
X136188621Y-81201720D01*
X136191500Y-81228503D01*
X136191500Y-95405422D01*
X136171498Y-95473543D01*
X136117842Y-95520036D01*
X136047568Y-95530140D01*
X136004607Y-95515731D01*
X135938316Y-95479137D01*
X135933789Y-95476638D01*
X135928920Y-95474914D01*
X135928916Y-95474912D01*
X135728087Y-95403795D01*
X135728083Y-95403794D01*
X135723212Y-95402069D01*
X135718119Y-95401162D01*
X135718116Y-95401161D01*
X135508373Y-95363800D01*
X135508367Y-95363799D01*
X135503284Y-95362894D01*
X135429452Y-95361992D01*
X135285081Y-95360228D01*
X135285079Y-95360228D01*
X135279911Y-95360165D01*
X135059091Y-95393955D01*
X134846756Y-95463357D01*
X134807228Y-95483934D01*
X134666799Y-95557037D01*
X134648607Y-95566507D01*
X134644474Y-95569610D01*
X134644471Y-95569612D01*
X134474100Y-95697530D01*
X134469965Y-95700635D01*
X134315629Y-95862138D01*
X134312715Y-95866410D01*
X134312714Y-95866411D01*
X134309328Y-95871375D01*
X134215939Y-96008279D01*
X134207898Y-96020066D01*
X134152987Y-96065069D01*
X134082462Y-96073240D01*
X134018715Y-96041986D01*
X133998018Y-96017502D01*
X133917426Y-95892926D01*
X133911136Y-95884757D01*
X133767806Y-95727240D01*
X133760273Y-95720215D01*
X133593139Y-95588222D01*
X133584552Y-95582517D01*
X133398117Y-95479599D01*
X133388705Y-95475369D01*
X133187959Y-95404280D01*
X133177988Y-95401646D01*
X133106837Y-95388972D01*
X133093540Y-95390432D01*
X133089000Y-95404989D01*
X133089000Y-104468000D01*
X133068998Y-104536121D01*
X133015342Y-104582614D01*
X132963000Y-104594000D01*
X131518225Y-104594000D01*
X131504694Y-104597973D01*
X131503257Y-104607966D01*
X131533565Y-104742446D01*
X131536645Y-104752275D01*
X131616770Y-104949603D01*
X131621413Y-104958794D01*
X131732694Y-105140388D01*
X131738777Y-105148699D01*
X131878213Y-105309667D01*
X131885580Y-105316883D01*
X132049434Y-105452916D01*
X132057881Y-105458831D01*
X132122434Y-105496553D01*
X132171158Y-105548192D01*
X132184229Y-105617975D01*
X132157498Y-105683747D01*
X132147959Y-105694436D01*
X131402800Y-106439595D01*
X131340488Y-106473621D01*
X131313705Y-106476500D01*
X112788605Y-106476500D01*
X112720484Y-106456498D01*
X112695412Y-106435300D01*
X112651589Y-106387140D01*
X112632796Y-106366487D01*
X112601745Y-106302643D01*
X112610139Y-106232144D01*
X112655316Y-106177375D01*
X112681760Y-106163706D01*
X112788297Y-106123767D01*
X112796705Y-106120615D01*
X112913261Y-106033261D01*
X113000615Y-105916705D01*
X113051745Y-105780316D01*
X113058500Y-105718134D01*
X113058500Y-104088337D01*
X113078502Y-104020216D01*
X113132158Y-103973723D01*
X113202432Y-103963619D01*
X113258560Y-103986400D01*
X113335248Y-104042118D01*
X113341276Y-104044802D01*
X113341278Y-104044803D01*
X113459416Y-104097401D01*
X113509712Y-104119794D01*
X113584026Y-104135590D01*
X113690056Y-104158128D01*
X113690061Y-104158128D01*
X113696513Y-104159500D01*
X113887487Y-104159500D01*
X113893939Y-104158128D01*
X113893944Y-104158128D01*
X113999974Y-104135590D01*
X114074288Y-104119794D01*
X114124584Y-104097401D01*
X114176733Y-104074183D01*
X131499389Y-104074183D01*
X131500912Y-104082607D01*
X131513292Y-104086000D01*
X132562885Y-104086000D01*
X132578124Y-104081525D01*
X132579329Y-104080135D01*
X132581000Y-104072452D01*
X132581000Y-102072115D01*
X132576525Y-102056876D01*
X132575135Y-102055671D01*
X132567452Y-102054000D01*
X131518225Y-102054000D01*
X131504694Y-102057973D01*
X131503257Y-102067966D01*
X131533565Y-102202446D01*
X131536645Y-102212275D01*
X131616770Y-102409603D01*
X131621413Y-102418794D01*
X131732694Y-102600388D01*
X131738777Y-102608699D01*
X131878213Y-102769667D01*
X131885580Y-102776883D01*
X132049434Y-102912916D01*
X132057881Y-102918831D01*
X132127479Y-102959501D01*
X132176203Y-103011140D01*
X132189274Y-103080923D01*
X132162543Y-103146694D01*
X132122087Y-103180053D01*
X132113462Y-103184542D01*
X132104738Y-103190036D01*
X131934433Y-103317905D01*
X131926726Y-103324748D01*
X131779590Y-103478717D01*
X131773104Y-103486727D01*
X131653098Y-103662649D01*
X131648000Y-103671623D01*
X131558338Y-103864783D01*
X131554775Y-103874470D01*
X131499389Y-104074183D01*
X114176733Y-104074183D01*
X114242722Y-104044803D01*
X114242724Y-104044802D01*
X114248752Y-104042118D01*
X114278898Y-104020216D01*
X114304157Y-104001864D01*
X114403253Y-103929866D01*
X114531040Y-103787944D01*
X114607994Y-103654656D01*
X114623223Y-103628279D01*
X114623224Y-103628278D01*
X114626527Y-103622556D01*
X114685542Y-103440928D01*
X114688168Y-103415948D01*
X114704814Y-103257565D01*
X114705504Y-103251000D01*
X114699510Y-103193969D01*
X114686232Y-103067635D01*
X114686232Y-103067633D01*
X114685542Y-103061072D01*
X114626527Y-102879444D01*
X114531040Y-102714056D01*
X114506510Y-102686812D01*
X114407675Y-102577045D01*
X114407674Y-102577044D01*
X114403253Y-102572134D01*
X114288829Y-102489000D01*
X114254094Y-102463763D01*
X114254093Y-102463762D01*
X114248752Y-102459882D01*
X114242724Y-102457198D01*
X114242722Y-102457197D01*
X114080319Y-102384891D01*
X114080318Y-102384891D01*
X114074288Y-102382206D01*
X113980888Y-102362353D01*
X113893944Y-102343872D01*
X113893939Y-102343872D01*
X113887487Y-102342500D01*
X113831595Y-102342500D01*
X113763474Y-102322498D01*
X113742500Y-102305595D01*
X113533652Y-102096747D01*
X113526112Y-102088461D01*
X113522000Y-102081982D01*
X113472348Y-102035356D01*
X113469507Y-102032602D01*
X113449770Y-102012865D01*
X113446573Y-102010385D01*
X113437551Y-102002680D01*
X113411100Y-101977841D01*
X113405321Y-101972414D01*
X113398375Y-101968595D01*
X113398372Y-101968593D01*
X113387566Y-101962652D01*
X113371047Y-101951801D01*
X113365048Y-101947148D01*
X113355041Y-101939386D01*
X113347772Y-101936241D01*
X113347768Y-101936238D01*
X113314463Y-101921826D01*
X113303813Y-101916609D01*
X113265060Y-101895305D01*
X113245437Y-101890267D01*
X113226734Y-101883863D01*
X113215420Y-101878967D01*
X113215419Y-101878967D01*
X113208145Y-101875819D01*
X113200322Y-101874580D01*
X113200312Y-101874577D01*
X113164476Y-101868901D01*
X113152856Y-101866495D01*
X113117711Y-101857472D01*
X113117710Y-101857472D01*
X113110030Y-101855500D01*
X113089776Y-101855500D01*
X113070065Y-101853949D01*
X113057886Y-101852020D01*
X113050057Y-101850780D01*
X113042165Y-101851526D01*
X113006039Y-101854941D01*
X112994181Y-101855500D01*
X112801460Y-101855500D01*
X112733339Y-101835498D01*
X112686846Y-101781842D01*
X112676742Y-101711568D01*
X112706236Y-101646988D01*
X112765253Y-101608814D01*
X112792426Y-101600662D01*
X112792432Y-101600660D01*
X112797384Y-101599174D01*
X112997994Y-101500896D01*
X113179860Y-101371173D01*
X113216692Y-101334470D01*
X113334435Y-101217137D01*
X113338096Y-101213489D01*
X113387261Y-101145069D01*
X113468453Y-101032077D01*
X113469776Y-101033028D01*
X113516645Y-100989857D01*
X113586580Y-100977625D01*
X113652026Y-101005144D01*
X113679875Y-101036994D01*
X113739987Y-101135088D01*
X113886250Y-101303938D01*
X114058126Y-101446632D01*
X114251000Y-101559338D01*
X114459692Y-101639030D01*
X114464760Y-101640061D01*
X114464763Y-101640062D01*
X114569604Y-101661392D01*
X114678597Y-101683567D01*
X114683772Y-101683757D01*
X114683774Y-101683757D01*
X114896673Y-101691564D01*
X114896677Y-101691564D01*
X114901837Y-101691753D01*
X114906957Y-101691097D01*
X114906959Y-101691097D01*
X115118288Y-101664025D01*
X115118289Y-101664025D01*
X115123416Y-101663368D01*
X115128366Y-101661883D01*
X115332429Y-101600661D01*
X115332434Y-101600659D01*
X115337384Y-101599174D01*
X115537994Y-101500896D01*
X115719860Y-101371173D01*
X115756692Y-101334470D01*
X115874435Y-101217137D01*
X115878096Y-101213489D01*
X115927261Y-101145069D01*
X116008453Y-101032077D01*
X116009776Y-101033028D01*
X116056645Y-100989857D01*
X116126580Y-100977625D01*
X116192026Y-101005144D01*
X116219875Y-101036994D01*
X116279987Y-101135088D01*
X116426250Y-101303938D01*
X116598126Y-101446632D01*
X116791000Y-101559338D01*
X116999692Y-101639030D01*
X117004760Y-101640061D01*
X117004763Y-101640062D01*
X117109604Y-101661392D01*
X117218597Y-101683567D01*
X117223772Y-101683757D01*
X117223774Y-101683757D01*
X117436673Y-101691564D01*
X117436677Y-101691564D01*
X117441837Y-101691753D01*
X117446957Y-101691097D01*
X117446959Y-101691097D01*
X117658288Y-101664025D01*
X117658289Y-101664025D01*
X117663416Y-101663368D01*
X117668366Y-101661883D01*
X117872429Y-101600661D01*
X117872434Y-101600659D01*
X117877384Y-101599174D01*
X118077994Y-101500896D01*
X118259860Y-101371173D01*
X118296692Y-101334470D01*
X118414435Y-101217137D01*
X118418096Y-101213489D01*
X118467261Y-101145069D01*
X118548453Y-101032077D01*
X118549776Y-101033028D01*
X118596645Y-100989857D01*
X118666580Y-100977625D01*
X118732026Y-101005144D01*
X118759875Y-101036994D01*
X118819987Y-101135088D01*
X118966250Y-101303938D01*
X119138126Y-101446632D01*
X119331000Y-101559338D01*
X119539692Y-101639030D01*
X119544760Y-101640061D01*
X119544763Y-101640062D01*
X119649604Y-101661392D01*
X119758597Y-101683567D01*
X119763772Y-101683757D01*
X119763774Y-101683757D01*
X119976673Y-101691564D01*
X119976677Y-101691564D01*
X119981837Y-101691753D01*
X119986957Y-101691097D01*
X119986959Y-101691097D01*
X120198288Y-101664025D01*
X120198289Y-101664025D01*
X120203416Y-101663368D01*
X120208366Y-101661883D01*
X120412429Y-101600661D01*
X120412434Y-101600659D01*
X120417384Y-101599174D01*
X120617994Y-101500896D01*
X120799860Y-101371173D01*
X120836692Y-101334470D01*
X120954435Y-101217137D01*
X120958096Y-101213489D01*
X121007261Y-101145069D01*
X121088453Y-101032077D01*
X121089776Y-101033028D01*
X121136645Y-100989857D01*
X121206580Y-100977625D01*
X121272026Y-101005144D01*
X121299875Y-101036994D01*
X121359987Y-101135088D01*
X121506250Y-101303938D01*
X121678126Y-101446632D01*
X121871000Y-101559338D01*
X122079692Y-101639030D01*
X122084760Y-101640061D01*
X122084763Y-101640062D01*
X122189604Y-101661392D01*
X122298597Y-101683567D01*
X122303772Y-101683757D01*
X122303774Y-101683757D01*
X122516673Y-101691564D01*
X122516677Y-101691564D01*
X122521837Y-101691753D01*
X122526957Y-101691097D01*
X122526959Y-101691097D01*
X122738288Y-101664025D01*
X122738289Y-101664025D01*
X122743416Y-101663368D01*
X122748366Y-101661883D01*
X122952429Y-101600661D01*
X122952434Y-101600659D01*
X122957384Y-101599174D01*
X123157994Y-101500896D01*
X123339860Y-101371173D01*
X123376692Y-101334470D01*
X123494435Y-101217137D01*
X123498096Y-101213489D01*
X123547261Y-101145069D01*
X123628453Y-101032077D01*
X123629776Y-101033028D01*
X123676645Y-100989857D01*
X123746580Y-100977625D01*
X123812026Y-101005144D01*
X123839875Y-101036994D01*
X123899987Y-101135088D01*
X124046250Y-101303938D01*
X124218126Y-101446632D01*
X124411000Y-101559338D01*
X124619692Y-101639030D01*
X124624760Y-101640061D01*
X124624763Y-101640062D01*
X124729604Y-101661392D01*
X124838597Y-101683567D01*
X124843772Y-101683757D01*
X124843774Y-101683757D01*
X125056673Y-101691564D01*
X125056677Y-101691564D01*
X125061837Y-101691753D01*
X125066957Y-101691097D01*
X125066959Y-101691097D01*
X125278288Y-101664025D01*
X125278289Y-101664025D01*
X125283416Y-101663368D01*
X125288366Y-101661883D01*
X125492429Y-101600661D01*
X125492434Y-101600659D01*
X125497384Y-101599174D01*
X125630047Y-101534183D01*
X131499389Y-101534183D01*
X131500912Y-101542607D01*
X131513292Y-101546000D01*
X132562885Y-101546000D01*
X132578124Y-101541525D01*
X132579329Y-101540135D01*
X132581000Y-101532452D01*
X132581000Y-99532115D01*
X132576525Y-99516876D01*
X132575135Y-99515671D01*
X132567452Y-99514000D01*
X131518225Y-99514000D01*
X131504694Y-99517973D01*
X131503257Y-99527966D01*
X131533565Y-99662446D01*
X131536645Y-99672275D01*
X131616770Y-99869603D01*
X131621413Y-99878794D01*
X131732694Y-100060388D01*
X131738777Y-100068699D01*
X131878213Y-100229667D01*
X131885580Y-100236883D01*
X132049434Y-100372916D01*
X132057881Y-100378831D01*
X132127479Y-100419501D01*
X132176203Y-100471140D01*
X132189274Y-100540923D01*
X132162543Y-100606694D01*
X132122087Y-100640053D01*
X132113462Y-100644542D01*
X132104738Y-100650036D01*
X131934433Y-100777905D01*
X131926726Y-100784748D01*
X131779590Y-100938717D01*
X131773104Y-100946727D01*
X131653098Y-101122649D01*
X131648000Y-101131623D01*
X131558338Y-101324783D01*
X131554775Y-101334470D01*
X131499389Y-101534183D01*
X125630047Y-101534183D01*
X125697994Y-101500896D01*
X125879860Y-101371173D01*
X125916692Y-101334470D01*
X126034435Y-101217137D01*
X126038096Y-101213489D01*
X126087261Y-101145069D01*
X126165435Y-101036277D01*
X126168453Y-101032077D01*
X126181995Y-101004678D01*
X126265136Y-100836453D01*
X126265137Y-100836451D01*
X126267430Y-100831811D01*
X126324327Y-100644542D01*
X126330865Y-100623023D01*
X126330865Y-100623021D01*
X126332370Y-100618069D01*
X126361529Y-100396590D01*
X126361963Y-100378831D01*
X126363074Y-100333365D01*
X126363074Y-100333361D01*
X126363156Y-100330000D01*
X126344852Y-100107361D01*
X126290431Y-99890702D01*
X126201354Y-99685840D01*
X126092756Y-99517973D01*
X126082822Y-99502617D01*
X126082820Y-99502614D01*
X126080014Y-99498277D01*
X125929670Y-99333051D01*
X125925619Y-99329852D01*
X125925615Y-99329848D01*
X125758414Y-99197800D01*
X125758410Y-99197798D01*
X125754359Y-99194598D01*
X125645361Y-99134428D01*
X125595391Y-99083996D01*
X125580619Y-99014554D01*
X125588324Y-98994183D01*
X131499389Y-98994183D01*
X131500912Y-99002607D01*
X131513292Y-99006000D01*
X132562885Y-99006000D01*
X132578124Y-99001525D01*
X132579329Y-99000135D01*
X132581000Y-98992452D01*
X132581000Y-96992115D01*
X132576525Y-96976876D01*
X132575135Y-96975671D01*
X132567452Y-96974000D01*
X131518225Y-96974000D01*
X131504694Y-96977973D01*
X131503257Y-96987966D01*
X131533565Y-97122446D01*
X131536645Y-97132275D01*
X131616770Y-97329603D01*
X131621413Y-97338794D01*
X131732694Y-97520388D01*
X131738777Y-97528699D01*
X131878213Y-97689667D01*
X131885580Y-97696883D01*
X132049434Y-97832916D01*
X132057881Y-97838831D01*
X132127479Y-97879501D01*
X132176203Y-97931140D01*
X132189274Y-98000923D01*
X132162543Y-98066694D01*
X132122087Y-98100053D01*
X132113462Y-98104542D01*
X132104738Y-98110036D01*
X131934433Y-98237905D01*
X131926726Y-98244748D01*
X131779590Y-98398717D01*
X131773104Y-98406727D01*
X131653098Y-98582649D01*
X131648000Y-98591623D01*
X131558338Y-98784783D01*
X131554775Y-98794470D01*
X131499389Y-98994183D01*
X125588324Y-98994183D01*
X125605735Y-98948148D01*
X125612618Y-98939810D01*
X125707040Y-98834944D01*
X125802527Y-98669556D01*
X125861542Y-98487928D01*
X125868182Y-98424757D01*
X125880814Y-98304565D01*
X125881504Y-98298000D01*
X125863660Y-98128222D01*
X125862232Y-98114635D01*
X125862232Y-98114633D01*
X125861542Y-98108072D01*
X125858937Y-98100053D01*
X125804569Y-97932729D01*
X125802527Y-97926444D01*
X125797075Y-97917000D01*
X125765314Y-97861990D01*
X125707040Y-97761056D01*
X125633863Y-97679785D01*
X125603147Y-97615779D01*
X125601500Y-97595476D01*
X125601500Y-96454183D01*
X131499389Y-96454183D01*
X131500912Y-96462607D01*
X131513292Y-96466000D01*
X132562885Y-96466000D01*
X132578124Y-96461525D01*
X132579329Y-96460135D01*
X132581000Y-96452452D01*
X132581000Y-95403102D01*
X132577082Y-95389758D01*
X132562806Y-95387771D01*
X132524324Y-95393660D01*
X132514288Y-95396051D01*
X132311868Y-95462212D01*
X132302359Y-95466209D01*
X132113463Y-95564542D01*
X132104738Y-95570036D01*
X131934433Y-95697905D01*
X131926726Y-95704748D01*
X131779590Y-95858717D01*
X131773104Y-95866727D01*
X131653098Y-96042649D01*
X131648000Y-96051623D01*
X131558338Y-96244783D01*
X131554775Y-96254470D01*
X131499389Y-96454183D01*
X125601500Y-96454183D01*
X125601500Y-96156094D01*
X125621502Y-96087973D01*
X125638405Y-96066999D01*
X128304000Y-93401405D01*
X128366312Y-93367379D01*
X128393095Y-93364500D01*
X128448987Y-93364500D01*
X128455439Y-93363128D01*
X128455444Y-93363128D01*
X128542387Y-93344647D01*
X128635788Y-93324794D01*
X128641819Y-93322109D01*
X128804222Y-93249803D01*
X128804224Y-93249802D01*
X128810252Y-93247118D01*
X128964753Y-93134866D01*
X129092540Y-92992944D01*
X129188027Y-92827556D01*
X129247042Y-92645928D01*
X129267004Y-92456000D01*
X129256342Y-92354556D01*
X129247733Y-92272642D01*
X129247732Y-92272635D01*
X129247042Y-92266072D01*
X129244887Y-92259439D01*
X129244881Y-92259226D01*
X129243628Y-92253332D01*
X129244706Y-92253103D01*
X129242858Y-92188471D01*
X129279519Y-92127672D01*
X129343231Y-92096346D01*
X129364719Y-92094500D01*
X129381487Y-92094500D01*
X129387939Y-92093128D01*
X129387944Y-92093128D01*
X129478143Y-92073955D01*
X129568288Y-92054794D01*
X129649503Y-92018635D01*
X129736722Y-91979803D01*
X129736724Y-91979802D01*
X129742752Y-91977118D01*
X129760117Y-91964502D01*
X129805917Y-91931226D01*
X129897253Y-91864866D01*
X130025040Y-91722944D01*
X130120527Y-91557556D01*
X130179542Y-91375928D01*
X130189031Y-91285650D01*
X130198814Y-91192565D01*
X130199504Y-91186000D01*
X130183605Y-91034729D01*
X130180232Y-91002635D01*
X130180232Y-91002633D01*
X130179542Y-90996072D01*
X130177503Y-90989797D01*
X130177502Y-90989792D01*
X130170563Y-90968438D01*
X130168534Y-90897471D01*
X130205195Y-90836672D01*
X130268907Y-90805346D01*
X130290395Y-90803500D01*
X132509233Y-90803500D01*
X132520416Y-90804027D01*
X132527909Y-90805702D01*
X132535835Y-90805453D01*
X132535836Y-90805453D01*
X132595986Y-90803562D01*
X132599945Y-90803500D01*
X132627856Y-90803500D01*
X132631791Y-90803003D01*
X132631856Y-90802995D01*
X132643693Y-90802062D01*
X132675951Y-90801048D01*
X132679970Y-90800922D01*
X132687889Y-90800673D01*
X132707343Y-90795021D01*
X132726700Y-90791013D01*
X132738930Y-90789468D01*
X132738931Y-90789468D01*
X132746797Y-90788474D01*
X132754168Y-90785555D01*
X132754170Y-90785555D01*
X132787912Y-90772196D01*
X132799142Y-90768351D01*
X132833983Y-90758229D01*
X132833984Y-90758229D01*
X132841593Y-90756018D01*
X132848412Y-90751985D01*
X132848417Y-90751983D01*
X132859028Y-90745707D01*
X132876776Y-90737012D01*
X132895617Y-90729552D01*
X132931387Y-90703564D01*
X132941307Y-90697048D01*
X132972535Y-90678580D01*
X132972538Y-90678578D01*
X132979362Y-90674542D01*
X132993683Y-90660221D01*
X133008717Y-90647380D01*
X133018694Y-90640131D01*
X133025107Y-90635472D01*
X133053298Y-90601395D01*
X133061288Y-90592616D01*
X134758247Y-88895657D01*
X134766537Y-88888113D01*
X134773018Y-88884000D01*
X134819659Y-88834332D01*
X134822413Y-88831491D01*
X134842135Y-88811769D01*
X134844619Y-88808567D01*
X134852317Y-88799555D01*
X134877161Y-88773098D01*
X134882586Y-88767321D01*
X134892347Y-88749566D01*
X134903198Y-88733047D01*
X134915614Y-88717041D01*
X134933174Y-88676463D01*
X134938391Y-88665813D01*
X134959695Y-88627060D01*
X134964733Y-88607437D01*
X134971137Y-88588734D01*
X134976033Y-88577420D01*
X134976033Y-88577419D01*
X134979181Y-88570145D01*
X134980420Y-88562322D01*
X134980423Y-88562312D01*
X134986099Y-88526476D01*
X134988505Y-88514856D01*
X134997528Y-88479711D01*
X134997528Y-88479710D01*
X134999500Y-88472030D01*
X134999500Y-88451776D01*
X135001051Y-88432065D01*
X135002980Y-88419886D01*
X135004220Y-88412057D01*
X135000059Y-88368038D01*
X134999500Y-88356181D01*
X134999500Y-82236524D01*
X135019502Y-82168403D01*
X135031858Y-82152221D01*
X135105040Y-82070944D01*
X135200527Y-81905556D01*
X135259542Y-81723928D01*
X135279504Y-81534000D01*
X135277795Y-81517744D01*
X135260232Y-81350635D01*
X135260232Y-81350633D01*
X135259542Y-81344072D01*
X135200527Y-81162444D01*
X135105040Y-80997056D01*
X135052991Y-80939249D01*
X134981675Y-80860045D01*
X134981674Y-80860044D01*
X134977253Y-80855134D01*
X134822752Y-80742882D01*
X134816724Y-80740198D01*
X134816722Y-80740197D01*
X134654319Y-80667891D01*
X134654318Y-80667891D01*
X134648288Y-80665206D01*
X134554887Y-80645353D01*
X134467944Y-80626872D01*
X134467939Y-80626872D01*
X134461487Y-80625500D01*
X134270513Y-80625500D01*
X134264061Y-80626872D01*
X134264056Y-80626872D01*
X134177113Y-80645353D01*
X134083712Y-80665206D01*
X134077682Y-80667891D01*
X134077681Y-80667891D01*
X133915278Y-80740197D01*
X133915276Y-80740198D01*
X133909248Y-80742882D01*
X133754747Y-80855134D01*
X133750326Y-80860044D01*
X133750325Y-80860045D01*
X133679010Y-80939249D01*
X133626960Y-80997056D01*
X133531473Y-81162444D01*
X133472458Y-81344072D01*
X133471768Y-81350633D01*
X133471768Y-81350635D01*
X133454205Y-81517744D01*
X133452496Y-81534000D01*
X133472458Y-81723928D01*
X133531473Y-81905556D01*
X133626960Y-82070944D01*
X133700137Y-82152215D01*
X133730853Y-82216221D01*
X133732500Y-82236524D01*
X133732500Y-88077406D01*
X133712498Y-88145527D01*
X133695595Y-88166501D01*
X132362500Y-89499595D01*
X132300188Y-89533621D01*
X132273405Y-89536500D01*
X131086814Y-89536500D01*
X131018693Y-89516498D01*
X130972200Y-89462842D01*
X130961102Y-89411824D01*
X130961504Y-89408000D01*
X130941542Y-89218072D01*
X130882527Y-89036444D01*
X130787040Y-88871056D01*
X130753975Y-88834333D01*
X130663675Y-88734045D01*
X130663674Y-88734044D01*
X130659253Y-88729134D01*
X130504752Y-88616882D01*
X130498724Y-88614198D01*
X130498722Y-88614197D01*
X130336319Y-88541891D01*
X130336318Y-88541891D01*
X130330288Y-88539206D01*
X130215731Y-88514856D01*
X130149944Y-88500872D01*
X130149939Y-88500872D01*
X130143487Y-88499500D01*
X130043219Y-88499500D01*
X129975098Y-88479498D01*
X129928605Y-88425842D01*
X129918501Y-88355568D01*
X129923385Y-88334567D01*
X129923502Y-88334207D01*
X129923502Y-88334205D01*
X129925542Y-88327928D01*
X129945504Y-88138000D01*
X129925542Y-87948072D01*
X129866527Y-87766444D01*
X129771040Y-87601056D01*
X129643253Y-87459134D01*
X129488752Y-87346882D01*
X129482724Y-87344198D01*
X129482722Y-87344197D01*
X129320319Y-87271891D01*
X129320318Y-87271891D01*
X129314288Y-87269206D01*
X129220887Y-87249353D01*
X129133944Y-87230872D01*
X129133939Y-87230872D01*
X129127487Y-87229500D01*
X128936513Y-87229500D01*
X128930061Y-87230872D01*
X128930056Y-87230872D01*
X128843113Y-87249353D01*
X128749712Y-87269206D01*
X128743682Y-87271891D01*
X128743681Y-87271891D01*
X128581278Y-87344197D01*
X128581276Y-87344198D01*
X128575248Y-87346882D01*
X128420747Y-87459134D01*
X128416332Y-87464037D01*
X128411420Y-87468460D01*
X128410295Y-87467211D01*
X128356986Y-87500051D01*
X128323800Y-87504500D01*
X115122595Y-87504500D01*
X115054474Y-87484498D01*
X115033500Y-87467595D01*
X112436170Y-84870265D01*
X112402144Y-84807953D01*
X112399955Y-84768000D01*
X112418814Y-84588565D01*
X112419504Y-84582000D01*
X112415946Y-84548148D01*
X112400232Y-84398635D01*
X112400232Y-84398633D01*
X112399542Y-84392072D01*
X112340527Y-84210444D01*
X112245040Y-84045056D01*
X112117253Y-83903134D01*
X111962752Y-83790882D01*
X111956724Y-83788198D01*
X111956722Y-83788197D01*
X111794319Y-83715891D01*
X111794318Y-83715891D01*
X111788288Y-83713206D01*
X111694888Y-83693353D01*
X111607944Y-83674872D01*
X111607939Y-83674872D01*
X111601487Y-83673500D01*
X111410513Y-83673500D01*
X111404061Y-83674872D01*
X111404056Y-83674872D01*
X111317112Y-83693353D01*
X111223712Y-83713206D01*
X111217682Y-83715891D01*
X111217681Y-83715891D01*
X111055278Y-83788197D01*
X111055276Y-83788198D01*
X111049248Y-83790882D01*
X110894747Y-83903134D01*
X110766960Y-84045056D01*
X110671473Y-84210444D01*
X110669432Y-84216726D01*
X110669431Y-84216728D01*
X110657371Y-84253846D01*
X110617298Y-84312452D01*
X110551901Y-84340089D01*
X110481945Y-84327982D01*
X110463483Y-84316850D01*
X110438752Y-84298882D01*
X110432724Y-84296198D01*
X110432722Y-84296197D01*
X110270319Y-84223891D01*
X110270318Y-84223891D01*
X110264288Y-84221206D01*
X110170888Y-84201353D01*
X110083944Y-84182872D01*
X110083939Y-84182872D01*
X110077487Y-84181500D01*
X109886513Y-84181500D01*
X109880061Y-84182872D01*
X109880056Y-84182872D01*
X109793112Y-84201353D01*
X109699712Y-84221206D01*
X109693682Y-84223891D01*
X109693681Y-84223891D01*
X109531278Y-84296197D01*
X109531276Y-84296198D01*
X109525248Y-84298882D01*
X109519907Y-84302762D01*
X109519906Y-84302763D01*
X109500523Y-84316846D01*
X109370747Y-84411134D01*
X109242960Y-84553056D01*
X109147473Y-84718444D01*
X109088458Y-84900072D01*
X109068496Y-85090000D01*
X109088458Y-85279928D01*
X109147473Y-85461556D01*
X109242960Y-85626944D01*
X109370747Y-85768866D01*
X109525248Y-85881118D01*
X109531276Y-85883802D01*
X109531278Y-85883803D01*
X109693681Y-85956109D01*
X109699712Y-85958794D01*
X109793112Y-85978647D01*
X109880056Y-85997128D01*
X109880061Y-85997128D01*
X109886513Y-85998500D01*
X110077487Y-85998500D01*
X110083939Y-85997128D01*
X110083944Y-85997128D01*
X110170888Y-85978647D01*
X110264288Y-85958794D01*
X110276168Y-85953505D01*
X110322597Y-85932833D01*
X110392964Y-85923399D01*
X110457261Y-85953505D01*
X110462941Y-85958845D01*
X114304343Y-89800247D01*
X114311887Y-89808537D01*
X114316000Y-89815018D01*
X114321777Y-89820443D01*
X114365667Y-89861658D01*
X114368509Y-89864413D01*
X114388230Y-89884134D01*
X114391425Y-89886612D01*
X114400447Y-89894318D01*
X114432679Y-89924586D01*
X114439628Y-89928406D01*
X114450432Y-89934346D01*
X114466956Y-89945199D01*
X114482959Y-89957613D01*
X114523543Y-89975176D01*
X114534173Y-89980383D01*
X114572940Y-90001695D01*
X114580617Y-90003666D01*
X114580622Y-90003668D01*
X114592558Y-90006732D01*
X114611266Y-90013137D01*
X114629855Y-90021181D01*
X114637683Y-90022421D01*
X114637690Y-90022423D01*
X114673524Y-90028099D01*
X114685144Y-90030505D01*
X114720289Y-90039528D01*
X114727970Y-90041500D01*
X114748224Y-90041500D01*
X114767934Y-90043051D01*
X114787943Y-90046220D01*
X114795835Y-90045474D01*
X114831961Y-90042059D01*
X114843819Y-90041500D01*
X118481629Y-90041500D01*
X118549750Y-90061502D01*
X118596243Y-90115158D01*
X118606347Y-90185432D01*
X118576853Y-90250012D01*
X118570724Y-90256595D01*
X118222724Y-90604595D01*
X118160412Y-90638621D01*
X118133629Y-90641500D01*
X99142587Y-90641500D01*
X99068528Y-90617437D01*
X99062098Y-90612765D01*
X99062091Y-90612761D01*
X99056752Y-90608882D01*
X99050724Y-90606198D01*
X99050722Y-90606197D01*
X98888319Y-90533891D01*
X98888318Y-90533891D01*
X98882288Y-90531206D01*
X98788888Y-90511353D01*
X98701944Y-90492872D01*
X98701939Y-90492872D01*
X98695487Y-90491500D01*
X98504513Y-90491500D01*
X98498061Y-90492872D01*
X98498056Y-90492872D01*
X98411112Y-90511353D01*
X98317712Y-90531206D01*
X98311682Y-90533891D01*
X98311681Y-90533891D01*
X98149278Y-90606197D01*
X98149276Y-90606198D01*
X98143248Y-90608882D01*
X98137907Y-90612762D01*
X98137906Y-90612763D01*
X98131473Y-90617437D01*
X97988747Y-90721134D01*
X97984326Y-90726044D01*
X97984325Y-90726045D01*
X97896575Y-90823502D01*
X97860960Y-90863056D01*
X97765473Y-91028444D01*
X97706458Y-91210072D01*
X97705768Y-91216633D01*
X97705768Y-91216635D01*
X97694925Y-91319801D01*
X97686496Y-91400000D01*
X97687186Y-91406565D01*
X97705752Y-91583207D01*
X97706458Y-91589928D01*
X97765473Y-91771556D01*
X97860960Y-91936944D01*
X97988747Y-92078866D01*
X98081392Y-92146177D01*
X98137904Y-92187235D01*
X98143248Y-92191118D01*
X98149276Y-92193802D01*
X98149278Y-92193803D01*
X98297504Y-92259797D01*
X98317712Y-92268794D01*
X98411113Y-92288647D01*
X98498056Y-92307128D01*
X98498061Y-92307128D01*
X98504513Y-92308500D01*
X98695487Y-92308500D01*
X98701939Y-92307128D01*
X98701944Y-92307128D01*
X98788887Y-92288647D01*
X98882288Y-92268794D01*
X98902496Y-92259797D01*
X99050722Y-92193803D01*
X99050724Y-92193802D01*
X99056752Y-92191118D01*
X99062091Y-92187239D01*
X99062098Y-92187235D01*
X99068528Y-92182563D01*
X99142587Y-92158500D01*
X105952183Y-92158500D01*
X106020304Y-92178502D01*
X106066797Y-92232158D01*
X106076901Y-92302432D01*
X106045819Y-92368810D01*
X105973224Y-92449435D01*
X105960960Y-92463056D01*
X105865473Y-92628444D01*
X105806458Y-92810072D01*
X105786496Y-93000000D01*
X105806458Y-93189928D01*
X105865473Y-93371556D01*
X105960960Y-93536944D01*
X106037389Y-93621826D01*
X106068201Y-93686426D01*
X106069078Y-93691963D01*
X106069327Y-93699889D01*
X106071539Y-93707502D01*
X106074978Y-93719339D01*
X106078987Y-93738700D01*
X106081526Y-93758797D01*
X106084445Y-93766168D01*
X106084445Y-93766170D01*
X106097804Y-93799912D01*
X106101649Y-93811142D01*
X106113982Y-93853593D01*
X106118015Y-93860412D01*
X106118017Y-93860417D01*
X106124293Y-93871028D01*
X106132988Y-93888776D01*
X106140448Y-93907617D01*
X106145110Y-93914033D01*
X106145110Y-93914034D01*
X106166436Y-93943387D01*
X106172952Y-93953307D01*
X106190896Y-93983648D01*
X106195458Y-93991362D01*
X106209779Y-94005683D01*
X106222619Y-94020716D01*
X106234528Y-94037107D01*
X106268605Y-94065298D01*
X106277384Y-94073288D01*
X106896343Y-94692247D01*
X106903887Y-94700537D01*
X106908000Y-94707018D01*
X106913777Y-94712443D01*
X106957667Y-94753658D01*
X106960509Y-94756413D01*
X106980230Y-94776134D01*
X106983425Y-94778612D01*
X106992447Y-94786318D01*
X107024679Y-94816586D01*
X107031628Y-94820406D01*
X107042432Y-94826346D01*
X107058956Y-94837199D01*
X107074959Y-94849613D01*
X107115543Y-94867176D01*
X107126173Y-94872383D01*
X107164940Y-94893695D01*
X107172617Y-94895666D01*
X107172622Y-94895668D01*
X107184558Y-94898732D01*
X107203266Y-94905137D01*
X107221855Y-94913181D01*
X107229680Y-94914420D01*
X107229682Y-94914421D01*
X107265519Y-94920097D01*
X107277140Y-94922504D01*
X107312289Y-94931528D01*
X107319970Y-94933500D01*
X107340231Y-94933500D01*
X107359940Y-94935051D01*
X107379943Y-94938219D01*
X107387835Y-94937473D01*
X107393062Y-94936979D01*
X107423954Y-94934059D01*
X107435811Y-94933500D01*
X110387419Y-94933500D01*
X110455540Y-94953502D01*
X110502033Y-95007158D01*
X110512137Y-95077432D01*
X110496538Y-95122499D01*
X110417473Y-95259444D01*
X110358458Y-95441072D01*
X110357768Y-95447633D01*
X110357768Y-95447635D01*
X110350611Y-95515731D01*
X110344904Y-95570036D01*
X110341093Y-95606292D01*
X110314080Y-95671949D01*
X110304878Y-95682217D01*
X109589747Y-96397348D01*
X109581461Y-96404888D01*
X109574982Y-96409000D01*
X109569557Y-96414777D01*
X109528357Y-96458651D01*
X109525602Y-96461493D01*
X109505865Y-96481230D01*
X109503385Y-96484427D01*
X109495682Y-96493447D01*
X109465414Y-96525679D01*
X109461595Y-96532625D01*
X109461593Y-96532628D01*
X109455652Y-96543434D01*
X109444801Y-96559953D01*
X109432386Y-96575959D01*
X109429241Y-96583228D01*
X109429238Y-96583232D01*
X109414826Y-96616537D01*
X109409609Y-96627187D01*
X109388305Y-96665940D01*
X109386334Y-96673615D01*
X109386334Y-96673616D01*
X109383267Y-96685562D01*
X109376863Y-96704266D01*
X109368819Y-96722855D01*
X109367580Y-96730678D01*
X109367577Y-96730688D01*
X109361901Y-96766524D01*
X109359495Y-96778144D01*
X109348500Y-96820970D01*
X109348500Y-96841224D01*
X109346949Y-96860934D01*
X109343780Y-96880943D01*
X109344526Y-96888835D01*
X109347941Y-96924961D01*
X109348500Y-96936819D01*
X109348500Y-97214476D01*
X109328498Y-97282597D01*
X109316142Y-97298779D01*
X109242960Y-97380056D01*
X109197088Y-97459508D01*
X109159226Y-97525088D01*
X109147473Y-97545444D01*
X109088458Y-97727072D01*
X109087768Y-97733633D01*
X109087768Y-97733635D01*
X109084285Y-97766774D01*
X109068496Y-97917000D01*
X109069186Y-97923565D01*
X109079192Y-98018763D01*
X109088458Y-98106928D01*
X109147473Y-98288556D01*
X109150776Y-98294278D01*
X109150777Y-98294279D01*
X109156716Y-98304565D01*
X109242960Y-98453944D01*
X109247378Y-98458851D01*
X109247379Y-98458852D01*
X109358249Y-98581986D01*
X109370747Y-98595866D01*
X109525248Y-98708118D01*
X109531276Y-98710802D01*
X109531278Y-98710803D01*
X109606631Y-98744352D01*
X109660727Y-98790332D01*
X109681376Y-98858259D01*
X109662024Y-98926568D01*
X109608813Y-98973569D01*
X109574443Y-98984009D01*
X109444091Y-99003955D01*
X109231756Y-99073357D01*
X109033607Y-99176507D01*
X109029474Y-99179610D01*
X109029471Y-99179612D01*
X108859100Y-99307530D01*
X108854965Y-99310635D01*
X108700629Y-99472138D01*
X108593201Y-99629621D01*
X108538293Y-99674621D01*
X108467768Y-99682792D01*
X108404021Y-99651538D01*
X108383324Y-99627054D01*
X108302822Y-99502617D01*
X108302820Y-99502614D01*
X108300014Y-99498277D01*
X108149670Y-99333051D01*
X108145619Y-99329852D01*
X108145615Y-99329848D01*
X107978414Y-99197800D01*
X107978410Y-99197798D01*
X107974359Y-99194598D01*
X107778789Y-99086638D01*
X107773920Y-99084914D01*
X107773916Y-99084912D01*
X107573087Y-99013795D01*
X107573083Y-99013794D01*
X107568212Y-99012069D01*
X107563119Y-99011162D01*
X107563116Y-99011161D01*
X107353373Y-98973800D01*
X107353367Y-98973799D01*
X107348284Y-98972894D01*
X107274452Y-98971992D01*
X107130081Y-98970228D01*
X107130079Y-98970228D01*
X107124911Y-98970165D01*
X106904091Y-99003955D01*
X106691756Y-99073357D01*
X106493607Y-99176507D01*
X106489474Y-99179610D01*
X106489471Y-99179612D01*
X106319100Y-99307530D01*
X106314965Y-99310635D01*
X106160629Y-99472138D01*
X106053201Y-99629621D01*
X105998293Y-99674621D01*
X105927768Y-99682792D01*
X105864021Y-99651538D01*
X105843324Y-99627054D01*
X105762822Y-99502617D01*
X105762820Y-99502614D01*
X105760014Y-99498277D01*
X105609670Y-99333051D01*
X105605619Y-99329852D01*
X105605615Y-99329848D01*
X105438414Y-99197800D01*
X105438410Y-99197798D01*
X105434359Y-99194598D01*
X105238789Y-99086638D01*
X105233920Y-99084914D01*
X105233916Y-99084912D01*
X105033087Y-99013795D01*
X105033083Y-99013794D01*
X105028212Y-99012069D01*
X105023119Y-99011162D01*
X105023116Y-99011161D01*
X104813373Y-98973800D01*
X104813367Y-98973799D01*
X104808284Y-98972894D01*
X104734452Y-98971992D01*
X104590081Y-98970228D01*
X104590079Y-98970228D01*
X104584911Y-98970165D01*
X104364091Y-99003955D01*
X104151756Y-99073357D01*
X103953607Y-99176507D01*
X103949474Y-99179610D01*
X103949471Y-99179612D01*
X103779100Y-99307530D01*
X103774965Y-99310635D01*
X103620629Y-99472138D01*
X103513201Y-99629621D01*
X103458293Y-99674621D01*
X103387768Y-99682792D01*
X103324021Y-99651538D01*
X103303324Y-99627054D01*
X103222822Y-99502617D01*
X103222820Y-99502614D01*
X103220014Y-99498277D01*
X103069670Y-99333051D01*
X103065619Y-99329852D01*
X103065615Y-99329848D01*
X102898414Y-99197800D01*
X102898410Y-99197798D01*
X102894359Y-99194598D01*
X102698789Y-99086638D01*
X102693920Y-99084914D01*
X102693916Y-99084912D01*
X102493087Y-99013795D01*
X102493083Y-99013794D01*
X102488212Y-99012069D01*
X102483119Y-99011162D01*
X102483116Y-99011161D01*
X102273373Y-98973800D01*
X102273367Y-98973799D01*
X102268284Y-98972894D01*
X102194452Y-98971992D01*
X102050081Y-98970228D01*
X102050079Y-98970228D01*
X102044911Y-98970165D01*
X101824091Y-99003955D01*
X101611756Y-99073357D01*
X101413607Y-99176507D01*
X101409474Y-99179610D01*
X101409471Y-99179612D01*
X101239100Y-99307530D01*
X101234965Y-99310635D01*
X101080629Y-99472138D01*
X100973201Y-99629621D01*
X100918293Y-99674621D01*
X100847768Y-99682792D01*
X100784021Y-99651538D01*
X100763324Y-99627054D01*
X100682822Y-99502617D01*
X100682820Y-99502614D01*
X100680014Y-99498277D01*
X100529670Y-99333051D01*
X100525619Y-99329852D01*
X100525615Y-99329848D01*
X100358414Y-99197800D01*
X100358410Y-99197798D01*
X100354359Y-99194598D01*
X100158789Y-99086638D01*
X100153920Y-99084914D01*
X100153916Y-99084912D01*
X99953087Y-99013795D01*
X99953083Y-99013794D01*
X99948212Y-99012069D01*
X99943119Y-99011162D01*
X99943116Y-99011161D01*
X99733373Y-98973800D01*
X99733367Y-98973799D01*
X99728284Y-98972894D01*
X99654452Y-98971992D01*
X99510081Y-98970228D01*
X99510079Y-98970228D01*
X99504911Y-98970165D01*
X99284091Y-99003955D01*
X99071756Y-99073357D01*
X98873607Y-99176507D01*
X98869474Y-99179610D01*
X98869471Y-99179612D01*
X98699100Y-99307530D01*
X98694965Y-99310635D01*
X98540629Y-99472138D01*
X98433201Y-99629621D01*
X98378293Y-99674621D01*
X98307768Y-99682792D01*
X98244021Y-99651538D01*
X98223324Y-99627054D01*
X98142822Y-99502617D01*
X98142820Y-99502614D01*
X98140014Y-99498277D01*
X97989670Y-99333051D01*
X97985619Y-99329852D01*
X97985615Y-99329848D01*
X97818414Y-99197800D01*
X97818410Y-99197798D01*
X97814359Y-99194598D01*
X97618789Y-99086638D01*
X97613920Y-99084914D01*
X97613916Y-99084912D01*
X97413087Y-99013795D01*
X97413083Y-99013794D01*
X97408212Y-99012069D01*
X97403119Y-99011162D01*
X97403116Y-99011161D01*
X97193373Y-98973800D01*
X97193367Y-98973799D01*
X97188284Y-98972894D01*
X97114452Y-98971992D01*
X96970081Y-98970228D01*
X96970079Y-98970228D01*
X96964911Y-98970165D01*
X96744091Y-99003955D01*
X96531756Y-99073357D01*
X96333607Y-99176507D01*
X96329474Y-99179610D01*
X96329471Y-99179612D01*
X96159100Y-99307530D01*
X96154965Y-99310635D01*
X96000629Y-99472138D01*
X95893204Y-99629618D01*
X95892898Y-99630066D01*
X95837987Y-99675069D01*
X95767462Y-99683240D01*
X95703715Y-99651986D01*
X95683017Y-99627501D01*
X95653062Y-99581197D01*
X95642377Y-99571995D01*
X95632812Y-99576398D01*
X94892022Y-100317188D01*
X94884408Y-100331132D01*
X94884539Y-100332965D01*
X94888790Y-100339580D01*
X95630474Y-101081264D01*
X95642484Y-101087823D01*
X95654223Y-101078855D01*
X95688022Y-101031819D01*
X95689277Y-101032721D01*
X95736391Y-100989355D01*
X95806330Y-100977148D01*
X95871767Y-101004691D01*
X95899580Y-101036513D01*
X95957287Y-101130683D01*
X95957291Y-101130688D01*
X95959987Y-101135088D01*
X96106250Y-101303938D01*
X96278126Y-101446632D01*
X96471000Y-101559338D01*
X96679692Y-101639030D01*
X96684760Y-101640061D01*
X96684763Y-101640062D01*
X96789604Y-101661392D01*
X96898597Y-101683567D01*
X96903772Y-101683757D01*
X96903774Y-101683757D01*
X97116673Y-101691564D01*
X97116677Y-101691564D01*
X97121837Y-101691753D01*
X97126957Y-101691097D01*
X97126959Y-101691097D01*
X97338288Y-101664025D01*
X97338289Y-101664025D01*
X97343416Y-101663368D01*
X97348366Y-101661883D01*
X97552429Y-101600661D01*
X97552434Y-101600659D01*
X97557384Y-101599174D01*
X97757994Y-101500896D01*
X97939860Y-101371173D01*
X97976692Y-101334470D01*
X98094435Y-101217137D01*
X98098096Y-101213489D01*
X98147261Y-101145069D01*
X98228453Y-101032077D01*
X98229776Y-101033028D01*
X98276645Y-100989857D01*
X98346580Y-100977625D01*
X98412026Y-101005144D01*
X98439875Y-101036994D01*
X98499987Y-101135088D01*
X98646250Y-101303938D01*
X98801001Y-101432415D01*
X98840636Y-101491316D01*
X98842134Y-101562297D01*
X98805020Y-101622820D01*
X98759452Y-101649191D01*
X98752127Y-101651571D01*
X98745804Y-101653444D01*
X98692328Y-101667773D01*
X98681637Y-101670638D01*
X98675758Y-101673634D01*
X98675749Y-101673637D01*
X98669683Y-101676728D01*
X98651421Y-101684292D01*
X98644958Y-101686392D01*
X98644953Y-101686394D01*
X98638669Y-101688436D01*
X98581119Y-101721663D01*
X98575366Y-101724786D01*
X98516161Y-101754952D01*
X98511027Y-101759109D01*
X98511026Y-101759110D01*
X98505737Y-101763393D01*
X98489449Y-101774588D01*
X98477831Y-101781296D01*
X98472925Y-101785713D01*
X98472920Y-101785717D01*
X98428462Y-101825747D01*
X98423447Y-101830031D01*
X98416696Y-101835498D01*
X98408015Y-101842528D01*
X98393979Y-101856564D01*
X98389194Y-101861105D01*
X98339815Y-101905566D01*
X98335935Y-101910906D01*
X98335928Y-101910914D01*
X98331927Y-101916422D01*
X98319086Y-101931457D01*
X97131454Y-103119088D01*
X97116426Y-103131925D01*
X97105566Y-103139815D01*
X97101145Y-103144725D01*
X97101144Y-103144726D01*
X97061114Y-103189184D01*
X97056573Y-103193969D01*
X97042528Y-103208014D01*
X97040444Y-103210588D01*
X97040441Y-103210591D01*
X97030031Y-103223446D01*
X97025747Y-103228462D01*
X96985717Y-103272920D01*
X96985713Y-103272925D01*
X96981296Y-103277831D01*
X96974791Y-103289097D01*
X96974589Y-103289448D01*
X96963391Y-103305741D01*
X96954953Y-103316161D01*
X96924787Y-103375363D01*
X96921654Y-103381133D01*
X96891740Y-103432945D01*
X96891738Y-103432950D01*
X96888436Y-103438669D01*
X96886395Y-103444949D01*
X96886392Y-103444957D01*
X96884292Y-103451421D01*
X96876728Y-103469683D01*
X96873637Y-103475749D01*
X96873634Y-103475758D01*
X96870638Y-103481637D01*
X96868929Y-103488015D01*
X96853444Y-103545804D01*
X96851578Y-103552106D01*
X96831046Y-103615298D01*
X96830356Y-103621866D01*
X96829645Y-103628628D01*
X96826042Y-103648071D01*
X96822570Y-103661029D01*
X96822225Y-103667619D01*
X96822224Y-103667623D01*
X96819093Y-103727367D01*
X96818577Y-103733931D01*
X96816500Y-103753694D01*
X96816500Y-103773555D01*
X96816327Y-103780150D01*
X96815919Y-103787944D01*
X96812850Y-103846493D01*
X96813882Y-103853007D01*
X96814949Y-103859744D01*
X96816500Y-103879456D01*
X96816500Y-104415941D01*
X96796498Y-104484062D01*
X96742842Y-104530555D01*
X96672568Y-104540659D01*
X96607988Y-104511165D01*
X96568296Y-104446637D01*
X96541691Y-104340720D01*
X96540431Y-104335702D01*
X96451354Y-104130840D01*
X96357912Y-103986401D01*
X96332822Y-103947617D01*
X96332820Y-103947614D01*
X96330014Y-103943277D01*
X96179670Y-103778051D01*
X96175619Y-103774852D01*
X96175615Y-103774848D01*
X96008414Y-103642800D01*
X96008410Y-103642798D01*
X96004359Y-103639598D01*
X95972238Y-103621866D01*
X95918157Y-103592012D01*
X95808789Y-103531638D01*
X95803920Y-103529914D01*
X95803916Y-103529912D01*
X95603087Y-103458795D01*
X95603083Y-103458794D01*
X95598212Y-103457069D01*
X95593119Y-103456162D01*
X95593116Y-103456161D01*
X95383373Y-103418800D01*
X95383367Y-103418799D01*
X95378284Y-103417894D01*
X95304452Y-103416992D01*
X95160081Y-103415228D01*
X95160079Y-103415228D01*
X95154911Y-103415165D01*
X94934091Y-103448955D01*
X94721756Y-103518357D01*
X94656886Y-103552126D01*
X94533485Y-103616365D01*
X94523607Y-103621507D01*
X94519474Y-103624610D01*
X94519471Y-103624612D01*
X94349100Y-103752530D01*
X94344965Y-103755635D01*
X94341393Y-103759373D01*
X94231404Y-103874470D01*
X94190629Y-103917138D01*
X94083201Y-104074621D01*
X94028293Y-104119621D01*
X93957768Y-104127792D01*
X93894021Y-104096538D01*
X93873324Y-104072054D01*
X93792822Y-103947617D01*
X93792820Y-103947614D01*
X93790014Y-103943277D01*
X93639670Y-103778051D01*
X93635619Y-103774852D01*
X93635615Y-103774848D01*
X93468414Y-103642800D01*
X93468410Y-103642798D01*
X93464359Y-103639598D01*
X93432238Y-103621866D01*
X93378157Y-103592012D01*
X93268789Y-103531638D01*
X93263920Y-103529914D01*
X93263916Y-103529912D01*
X93063087Y-103458795D01*
X93063083Y-103458794D01*
X93058212Y-103457069D01*
X93053119Y-103456162D01*
X93053116Y-103456161D01*
X92843373Y-103418800D01*
X92843367Y-103418799D01*
X92838284Y-103417894D01*
X92764452Y-103416992D01*
X92620081Y-103415228D01*
X92620079Y-103415228D01*
X92614911Y-103415165D01*
X92394091Y-103448955D01*
X92181756Y-103518357D01*
X92116886Y-103552126D01*
X91993485Y-103616365D01*
X91983607Y-103621507D01*
X91979474Y-103624610D01*
X91979471Y-103624612D01*
X91809100Y-103752530D01*
X91804965Y-103755635D01*
X91801393Y-103759373D01*
X91691404Y-103874470D01*
X91650629Y-103917138D01*
X91543201Y-104074621D01*
X91488293Y-104119621D01*
X91417768Y-104127792D01*
X91354021Y-104096538D01*
X91333324Y-104072054D01*
X91252822Y-103947617D01*
X91252820Y-103947614D01*
X91250014Y-103943277D01*
X91099670Y-103778051D01*
X91095619Y-103774852D01*
X91095615Y-103774848D01*
X90928414Y-103642800D01*
X90928410Y-103642798D01*
X90924359Y-103639598D01*
X90892238Y-103621866D01*
X90838157Y-103592012D01*
X90728789Y-103531638D01*
X90723920Y-103529914D01*
X90723916Y-103529912D01*
X90523087Y-103458795D01*
X90523083Y-103458794D01*
X90518212Y-103457069D01*
X90513119Y-103456162D01*
X90513116Y-103456161D01*
X90303373Y-103418800D01*
X90303367Y-103418799D01*
X90298284Y-103417894D01*
X90224452Y-103416992D01*
X90080081Y-103415228D01*
X90080079Y-103415228D01*
X90074911Y-103415165D01*
X89854091Y-103448955D01*
X89641756Y-103518357D01*
X89576886Y-103552126D01*
X89453485Y-103616365D01*
X89443607Y-103621507D01*
X89439474Y-103624610D01*
X89439471Y-103624612D01*
X89269100Y-103752530D01*
X89264965Y-103755635D01*
X89261393Y-103759373D01*
X89151404Y-103874470D01*
X89110629Y-103917138D01*
X89003201Y-104074621D01*
X88948293Y-104119621D01*
X88877768Y-104127792D01*
X88814021Y-104096538D01*
X88793324Y-104072054D01*
X88712822Y-103947617D01*
X88712820Y-103947614D01*
X88710014Y-103943277D01*
X88559670Y-103778051D01*
X88555619Y-103774852D01*
X88555615Y-103774848D01*
X88388414Y-103642800D01*
X88388410Y-103642798D01*
X88384359Y-103639598D01*
X88352238Y-103621866D01*
X88298157Y-103592012D01*
X88188789Y-103531638D01*
X88183920Y-103529914D01*
X88183916Y-103529912D01*
X87983087Y-103458795D01*
X87983083Y-103458794D01*
X87978212Y-103457069D01*
X87973119Y-103456162D01*
X87973116Y-103456161D01*
X87763373Y-103418800D01*
X87763367Y-103418799D01*
X87758284Y-103417894D01*
X87684452Y-103416992D01*
X87540081Y-103415228D01*
X87540079Y-103415228D01*
X87534911Y-103415165D01*
X87314091Y-103448955D01*
X87101756Y-103518357D01*
X87036886Y-103552126D01*
X86913485Y-103616365D01*
X86903607Y-103621507D01*
X86899474Y-103624610D01*
X86899471Y-103624612D01*
X86729100Y-103752530D01*
X86724965Y-103755635D01*
X86721393Y-103759373D01*
X86611404Y-103874470D01*
X86570629Y-103917138D01*
X86567720Y-103921403D01*
X86567714Y-103921411D01*
X86559298Y-103933749D01*
X86444743Y-104101680D01*
X86350688Y-104304305D01*
X86290989Y-104519570D01*
X86267251Y-104741695D01*
X86267548Y-104746848D01*
X86267548Y-104746851D01*
X86273011Y-104841590D01*
X86280110Y-104964715D01*
X86281247Y-104969761D01*
X86281248Y-104969767D01*
X86291605Y-105015723D01*
X86329222Y-105182639D01*
X86413266Y-105389616D01*
X86452056Y-105452916D01*
X86527291Y-105575688D01*
X86529987Y-105580088D01*
X86676250Y-105748938D01*
X86848126Y-105891632D01*
X86903331Y-105923891D01*
X86921445Y-105934476D01*
X86970169Y-105986114D01*
X86983240Y-106055897D01*
X86956509Y-106121669D01*
X86916055Y-106155027D01*
X86903607Y-106161507D01*
X86899474Y-106164610D01*
X86899471Y-106164612D01*
X86729100Y-106292530D01*
X86724965Y-106295635D01*
X86721393Y-106299373D01*
X86577853Y-106449579D01*
X86570629Y-106457138D01*
X86567720Y-106461403D01*
X86567714Y-106461411D01*
X86560045Y-106472654D01*
X86444743Y-106641680D01*
X86412108Y-106711987D01*
X86365916Y-106811500D01*
X86350688Y-106844305D01*
X86290989Y-107059570D01*
X86267251Y-107281695D01*
X86267548Y-107286848D01*
X86267548Y-107286851D01*
X86273011Y-107381590D01*
X86280110Y-107504715D01*
X86281247Y-107509761D01*
X86281248Y-107509767D01*
X86301119Y-107597939D01*
X86329222Y-107722639D01*
X86367461Y-107816811D01*
X86406867Y-107913856D01*
X86413266Y-107929616D01*
X86464019Y-108012438D01*
X86527291Y-108115688D01*
X86529987Y-108120088D01*
X86676250Y-108288938D01*
X86848126Y-108431632D01*
X86894268Y-108458595D01*
X86921955Y-108474774D01*
X86970679Y-108526412D01*
X86983750Y-108596195D01*
X86957019Y-108661967D01*
X86916562Y-108695327D01*
X86908460Y-108699544D01*
X86899734Y-108705039D01*
X86879677Y-108720099D01*
X86871223Y-108731427D01*
X86877968Y-108743758D01*
X87617188Y-109482978D01*
X87631132Y-109490592D01*
X87632965Y-109490461D01*
X87639580Y-109486210D01*
X88383389Y-108742401D01*
X88390410Y-108729544D01*
X88383611Y-108720213D01*
X88379559Y-108717521D01*
X88342602Y-108697120D01*
X88292631Y-108646687D01*
X88277859Y-108577245D01*
X88302975Y-108510839D01*
X88330327Y-108484232D01*
X88375498Y-108452012D01*
X88509860Y-108356173D01*
X88668096Y-108198489D01*
X88678541Y-108183954D01*
X88798453Y-108017077D01*
X88799776Y-108018028D01*
X88846645Y-107974857D01*
X88916580Y-107962625D01*
X88982026Y-107990144D01*
X89009875Y-108021994D01*
X89069987Y-108120088D01*
X89216250Y-108288938D01*
X89388126Y-108431632D01*
X89434268Y-108458595D01*
X89461955Y-108474774D01*
X89510679Y-108526412D01*
X89523750Y-108596195D01*
X89497019Y-108661967D01*
X89456562Y-108695327D01*
X89448460Y-108699544D01*
X89439734Y-108705039D01*
X89419677Y-108720099D01*
X89411223Y-108731427D01*
X89417968Y-108743758D01*
X90157188Y-109482978D01*
X90171132Y-109490592D01*
X90172965Y-109490461D01*
X90179580Y-109486210D01*
X90923389Y-108742401D01*
X90930410Y-108729544D01*
X90923611Y-108720213D01*
X90919559Y-108717521D01*
X90882602Y-108697120D01*
X90832631Y-108646687D01*
X90817859Y-108577245D01*
X90842975Y-108510839D01*
X90870327Y-108484232D01*
X90915498Y-108452012D01*
X91049860Y-108356173D01*
X91208096Y-108198489D01*
X91218541Y-108183954D01*
X91338453Y-108017077D01*
X91339776Y-108018028D01*
X91386645Y-107974857D01*
X91456580Y-107962625D01*
X91522026Y-107990144D01*
X91549875Y-108021994D01*
X91609987Y-108120088D01*
X91756250Y-108288938D01*
X91928126Y-108431632D01*
X91974268Y-108458595D01*
X92001955Y-108474774D01*
X92050679Y-108526412D01*
X92063750Y-108596195D01*
X92037019Y-108661967D01*
X91996562Y-108695327D01*
X91988460Y-108699544D01*
X91979734Y-108705039D01*
X91959677Y-108720099D01*
X91951223Y-108731427D01*
X91957968Y-108743758D01*
X92697188Y-109482978D01*
X92711132Y-109490592D01*
X92712965Y-109490461D01*
X92719580Y-109486210D01*
X93463389Y-108742401D01*
X93470410Y-108729544D01*
X93463611Y-108720213D01*
X93459559Y-108717521D01*
X93422602Y-108697120D01*
X93372631Y-108646687D01*
X93357859Y-108577245D01*
X93382975Y-108510839D01*
X93410327Y-108484232D01*
X93455498Y-108452012D01*
X93589860Y-108356173D01*
X93748096Y-108198489D01*
X93758541Y-108183954D01*
X93878453Y-108017077D01*
X93879776Y-108018028D01*
X93926645Y-107974857D01*
X93996580Y-107962625D01*
X94062026Y-107990144D01*
X94089875Y-108021994D01*
X94149987Y-108120088D01*
X94296250Y-108288938D01*
X94468126Y-108431632D01*
X94514268Y-108458595D01*
X94541955Y-108474774D01*
X94590679Y-108526412D01*
X94603750Y-108596195D01*
X94577019Y-108661967D01*
X94536562Y-108695327D01*
X94528460Y-108699544D01*
X94519734Y-108705039D01*
X94499677Y-108720099D01*
X94491223Y-108731427D01*
X94497968Y-108743758D01*
X95237188Y-109482978D01*
X95251132Y-109490592D01*
X95252965Y-109490461D01*
X95259580Y-109486210D01*
X96003389Y-108742401D01*
X96010410Y-108729544D01*
X96003611Y-108720213D01*
X95999559Y-108717521D01*
X95962602Y-108697120D01*
X95912631Y-108646687D01*
X95897859Y-108577245D01*
X95922975Y-108510839D01*
X95950327Y-108484232D01*
X95995498Y-108452012D01*
X96129860Y-108356173D01*
X96251208Y-108235249D01*
X96313579Y-108201333D01*
X96340147Y-108198500D01*
X96705543Y-108198500D01*
X96725255Y-108200051D01*
X96738507Y-108202150D01*
X96745094Y-108201805D01*
X96745098Y-108201805D01*
X96804850Y-108198673D01*
X96811445Y-108198500D01*
X96831306Y-108198500D01*
X96851069Y-108196423D01*
X96857628Y-108195907D01*
X96873427Y-108195079D01*
X96917377Y-108192776D01*
X96917381Y-108192775D01*
X96923971Y-108192430D01*
X96936929Y-108188958D01*
X96956372Y-108185355D01*
X96956795Y-108185311D01*
X96969702Y-108183954D01*
X97032894Y-108163422D01*
X97039196Y-108161556D01*
X97096985Y-108146071D01*
X97103363Y-108144362D01*
X97109242Y-108141366D01*
X97109251Y-108141363D01*
X97115317Y-108138272D01*
X97133579Y-108130708D01*
X97140043Y-108128608D01*
X97140051Y-108128605D01*
X97146331Y-108126564D01*
X97152050Y-108123262D01*
X97152055Y-108123260D01*
X97203867Y-108093346D01*
X97209637Y-108090213D01*
X97268839Y-108060047D01*
X97279259Y-108051609D01*
X97295552Y-108040411D01*
X97295903Y-108040209D01*
X97307169Y-108033704D01*
X97312075Y-108029287D01*
X97312080Y-108029283D01*
X97356538Y-107989253D01*
X97361554Y-107984969D01*
X97374409Y-107974559D01*
X97374412Y-107974556D01*
X97376986Y-107972472D01*
X97391031Y-107958427D01*
X97395816Y-107953886D01*
X97440274Y-107913856D01*
X97440275Y-107913855D01*
X97445185Y-107909434D01*
X97453075Y-107898574D01*
X97465912Y-107883546D01*
X98268546Y-107080912D01*
X98283574Y-107068075D01*
X98294434Y-107060185D01*
X98338886Y-107010816D01*
X98343427Y-107006031D01*
X98357472Y-106991986D01*
X98369979Y-106976542D01*
X98374255Y-106971536D01*
X98414282Y-106927081D01*
X98414285Y-106927077D01*
X98418704Y-106922169D01*
X98425413Y-106910549D01*
X98436607Y-106894263D01*
X98440892Y-106888971D01*
X98445047Y-106883840D01*
X98475206Y-106824649D01*
X98478347Y-106818865D01*
X98508263Y-106767049D01*
X98508264Y-106767047D01*
X98511564Y-106761331D01*
X98513603Y-106755055D01*
X98513605Y-106755051D01*
X98515708Y-106748579D01*
X98523272Y-106730317D01*
X98526364Y-106724248D01*
X98526366Y-106724244D01*
X98529362Y-106718363D01*
X98531069Y-106711992D01*
X98531071Y-106711987D01*
X98546555Y-106654197D01*
X98548429Y-106647871D01*
X98551831Y-106637401D01*
X98568954Y-106584702D01*
X98570356Y-106571364D01*
X98573958Y-106551931D01*
X98575718Y-106545361D01*
X98575719Y-106545354D01*
X98577429Y-106538972D01*
X98579556Y-106498401D01*
X98580905Y-106472654D01*
X98581422Y-106466080D01*
X98583156Y-106449579D01*
X98583500Y-106446306D01*
X98583500Y-106426426D01*
X98583673Y-106419832D01*
X98586804Y-106360099D01*
X98586804Y-106360094D01*
X98587149Y-106353507D01*
X98585051Y-106340260D01*
X98583500Y-106320550D01*
X98583500Y-104218149D01*
X98603502Y-104150028D01*
X98620404Y-104129054D01*
X99329052Y-103420405D01*
X99391365Y-103386380D01*
X99418148Y-103383500D01*
X99525896Y-103383500D01*
X99594017Y-103403502D01*
X99640510Y-103457158D01*
X99650614Y-103527432D01*
X99621120Y-103592012D01*
X99591806Y-103615154D01*
X99592568Y-103616365D01*
X99588196Y-103619118D01*
X99583607Y-103621507D01*
X99579474Y-103624610D01*
X99579471Y-103624612D01*
X99409100Y-103752530D01*
X99404965Y-103755635D01*
X99401393Y-103759373D01*
X99291404Y-103874470D01*
X99250629Y-103917138D01*
X99247720Y-103921403D01*
X99247714Y-103921411D01*
X99239298Y-103933749D01*
X99124743Y-104101680D01*
X99030688Y-104304305D01*
X98970989Y-104519570D01*
X98947251Y-104741695D01*
X98947548Y-104746848D01*
X98947548Y-104746851D01*
X98953011Y-104841590D01*
X98960110Y-104964715D01*
X98961247Y-104969761D01*
X98961248Y-104969767D01*
X98971605Y-105015723D01*
X99009222Y-105182639D01*
X99093266Y-105389616D01*
X99132056Y-105452916D01*
X99207291Y-105575688D01*
X99209987Y-105580088D01*
X99356250Y-105748938D01*
X99528126Y-105891632D01*
X99583331Y-105923891D01*
X99601445Y-105934476D01*
X99650169Y-105986114D01*
X99663240Y-106055897D01*
X99636509Y-106121669D01*
X99596055Y-106155027D01*
X99583607Y-106161507D01*
X99579474Y-106164610D01*
X99579471Y-106164612D01*
X99409100Y-106292530D01*
X99404965Y-106295635D01*
X99401393Y-106299373D01*
X99257853Y-106449579D01*
X99250629Y-106457138D01*
X99247720Y-106461403D01*
X99247714Y-106461411D01*
X99240045Y-106472654D01*
X99124743Y-106641680D01*
X99092108Y-106711987D01*
X99045916Y-106811500D01*
X99030688Y-106844305D01*
X98970989Y-107059570D01*
X98947251Y-107281695D01*
X98947548Y-107286848D01*
X98947548Y-107286851D01*
X98953011Y-107381590D01*
X98960110Y-107504715D01*
X98961247Y-107509761D01*
X98961248Y-107509767D01*
X98981119Y-107597939D01*
X99009222Y-107722639D01*
X99047461Y-107816811D01*
X99086867Y-107913856D01*
X99093266Y-107929616D01*
X99144019Y-108012438D01*
X99207291Y-108115688D01*
X99209987Y-108120088D01*
X99356250Y-108288938D01*
X99528126Y-108431632D01*
X99574268Y-108458595D01*
X99601955Y-108474774D01*
X99650679Y-108526412D01*
X99663750Y-108596195D01*
X99637019Y-108661967D01*
X99596562Y-108695327D01*
X99588460Y-108699544D01*
X99579734Y-108705039D01*
X99559677Y-108720099D01*
X99551223Y-108731427D01*
X99557968Y-108743758D01*
X100297188Y-109482978D01*
X100311132Y-109490592D01*
X100312965Y-109490461D01*
X100319580Y-109486210D01*
X101063389Y-108742401D01*
X101070410Y-108729544D01*
X101063611Y-108720213D01*
X101059559Y-108717521D01*
X101022602Y-108697120D01*
X100972631Y-108646687D01*
X100957859Y-108577245D01*
X100982975Y-108510839D01*
X101010327Y-108484232D01*
X101055498Y-108452012D01*
X101189860Y-108356173D01*
X101348096Y-108198489D01*
X101358541Y-108183954D01*
X101478453Y-108017077D01*
X101479776Y-108018028D01*
X101526645Y-107974857D01*
X101596580Y-107962625D01*
X101662026Y-107990144D01*
X101689875Y-108021994D01*
X101749987Y-108120088D01*
X101896250Y-108288938D01*
X102068126Y-108431632D01*
X102114268Y-108458595D01*
X102141955Y-108474774D01*
X102190679Y-108526412D01*
X102203750Y-108596195D01*
X102177019Y-108661967D01*
X102136562Y-108695327D01*
X102128460Y-108699544D01*
X102119734Y-108705039D01*
X102099677Y-108720099D01*
X102091223Y-108731427D01*
X102097968Y-108743758D01*
X102837188Y-109482978D01*
X102851132Y-109490592D01*
X102852965Y-109490461D01*
X102859580Y-109486210D01*
X103603389Y-108742401D01*
X103610410Y-108729544D01*
X103603611Y-108720213D01*
X103599559Y-108717521D01*
X103562602Y-108697120D01*
X103512631Y-108646687D01*
X103497859Y-108577245D01*
X103522975Y-108510839D01*
X103550327Y-108484232D01*
X103595498Y-108452012D01*
X103729860Y-108356173D01*
X103888096Y-108198489D01*
X103898541Y-108183954D01*
X104018453Y-108017077D01*
X104019776Y-108018028D01*
X104066645Y-107974857D01*
X104136580Y-107962625D01*
X104202026Y-107990144D01*
X104229875Y-108021994D01*
X104289987Y-108120088D01*
X104436250Y-108288938D01*
X104608126Y-108431632D01*
X104654268Y-108458595D01*
X104681955Y-108474774D01*
X104730679Y-108526412D01*
X104743750Y-108596195D01*
X104717019Y-108661967D01*
X104676562Y-108695327D01*
X104668460Y-108699544D01*
X104659734Y-108705039D01*
X104639677Y-108720099D01*
X104631223Y-108731427D01*
X104637968Y-108743758D01*
X105377188Y-109482978D01*
X105391132Y-109490592D01*
X105392965Y-109490461D01*
X105399580Y-109486210D01*
X106143389Y-108742401D01*
X106150410Y-108729544D01*
X106143611Y-108720213D01*
X106139559Y-108717521D01*
X106102602Y-108697120D01*
X106052631Y-108646687D01*
X106037859Y-108577245D01*
X106062975Y-108510839D01*
X106090327Y-108484232D01*
X106135498Y-108452012D01*
X106269860Y-108356173D01*
X106428096Y-108198489D01*
X106438541Y-108183954D01*
X106558453Y-108017077D01*
X106559776Y-108018028D01*
X106606645Y-107974857D01*
X106676580Y-107962625D01*
X106742026Y-107990144D01*
X106769875Y-108021994D01*
X106829987Y-108120088D01*
X106976250Y-108288938D01*
X107148126Y-108431632D01*
X107194268Y-108458595D01*
X107221955Y-108474774D01*
X107270679Y-108526412D01*
X107283750Y-108596195D01*
X107257019Y-108661967D01*
X107216562Y-108695327D01*
X107208460Y-108699544D01*
X107199734Y-108705039D01*
X107179677Y-108720099D01*
X107171223Y-108731427D01*
X107177968Y-108743758D01*
X107917188Y-109482978D01*
X107931132Y-109490592D01*
X107932965Y-109490461D01*
X107939580Y-109486210D01*
X108683389Y-108742401D01*
X108690410Y-108729544D01*
X108683611Y-108720213D01*
X108679559Y-108717521D01*
X108642602Y-108697120D01*
X108592631Y-108646687D01*
X108577859Y-108577245D01*
X108602975Y-108510839D01*
X108630327Y-108484232D01*
X108675498Y-108452012D01*
X108809860Y-108356173D01*
X108968096Y-108198489D01*
X108978541Y-108183954D01*
X109095435Y-108021277D01*
X109098453Y-108017077D01*
X109112205Y-107989253D01*
X109195136Y-107821453D01*
X109195137Y-107821451D01*
X109197430Y-107816811D01*
X109262370Y-107603069D01*
X109291529Y-107381590D01*
X109293156Y-107315000D01*
X109274852Y-107092361D01*
X109220431Y-106875702D01*
X109131354Y-106670840D01*
X109067001Y-106571365D01*
X109012822Y-106487617D01*
X109012820Y-106487614D01*
X109010014Y-106483277D01*
X108859670Y-106318051D01*
X108855619Y-106314852D01*
X108855615Y-106314848D01*
X108688414Y-106182800D01*
X108688410Y-106182798D01*
X108684359Y-106179598D01*
X108643053Y-106156796D01*
X108593084Y-106106364D01*
X108578312Y-106036921D01*
X108603428Y-105970516D01*
X108630780Y-105943909D01*
X108680706Y-105908297D01*
X108809860Y-105816173D01*
X108968096Y-105658489D01*
X109027594Y-105575689D01*
X109095435Y-105481277D01*
X109098453Y-105477077D01*
X109119320Y-105434857D01*
X109195136Y-105281453D01*
X109195137Y-105281451D01*
X109197430Y-105276811D01*
X109249942Y-105103974D01*
X109260865Y-105068023D01*
X109260865Y-105068021D01*
X109262370Y-105063069D01*
X109291529Y-104841590D01*
X109293156Y-104775000D01*
X109274852Y-104552361D01*
X109242327Y-104422874D01*
X109245131Y-104351934D01*
X109285844Y-104293770D01*
X109351539Y-104266851D01*
X109421359Y-104279722D01*
X109453626Y-104303084D01*
X110304595Y-105154053D01*
X110338621Y-105216365D01*
X110341500Y-105243148D01*
X110341500Y-105718134D01*
X110348255Y-105780316D01*
X110399385Y-105916705D01*
X110486739Y-106033261D01*
X110603295Y-106120615D01*
X110611704Y-106123767D01*
X110611705Y-106123768D01*
X110720451Y-106164535D01*
X110777216Y-106207176D01*
X110801916Y-106273738D01*
X110786709Y-106343087D01*
X110767316Y-106369568D01*
X110654506Y-106487617D01*
X110640629Y-106502138D01*
X110637715Y-106506410D01*
X110637714Y-106506411D01*
X110588791Y-106578130D01*
X110514743Y-106686680D01*
X110490389Y-106739147D01*
X110423225Y-106883840D01*
X110420688Y-106889305D01*
X110360989Y-107104570D01*
X110337251Y-107326695D01*
X110337548Y-107331848D01*
X110337548Y-107331851D01*
X110338130Y-107341940D01*
X110350110Y-107549715D01*
X110351247Y-107554761D01*
X110351248Y-107554767D01*
X110354920Y-107571060D01*
X110399222Y-107767639D01*
X110446287Y-107883546D01*
X110464994Y-107929616D01*
X110483266Y-107974616D01*
X110490885Y-107987049D01*
X110580797Y-108133772D01*
X110599987Y-108165088D01*
X110746250Y-108333938D01*
X110918126Y-108476632D01*
X110931132Y-108484232D01*
X110991445Y-108519476D01*
X111040169Y-108571114D01*
X111053240Y-108640897D01*
X111026509Y-108706669D01*
X110986055Y-108740027D01*
X110981495Y-108742401D01*
X110973607Y-108746507D01*
X110969474Y-108749610D01*
X110969471Y-108749612D01*
X110945247Y-108767800D01*
X110794965Y-108880635D01*
X110640629Y-109042138D01*
X110637715Y-109046410D01*
X110637714Y-109046411D01*
X110596121Y-109107384D01*
X110514743Y-109226680D01*
X110500362Y-109257661D01*
X110439179Y-109389470D01*
X110420688Y-109429305D01*
X110360989Y-109644570D01*
X110337251Y-109866695D01*
X110337548Y-109871848D01*
X110337548Y-109871851D01*
X110343011Y-109966590D01*
X110350110Y-110089715D01*
X110351247Y-110094761D01*
X110351248Y-110094767D01*
X110360954Y-110137834D01*
X110399222Y-110307639D01*
X110431019Y-110385945D01*
X110478006Y-110501661D01*
X110483266Y-110514616D01*
X110485965Y-110519020D01*
X110557121Y-110635136D01*
X110599987Y-110705088D01*
X110746250Y-110873938D01*
X110918126Y-111016632D01*
X111111000Y-111129338D01*
X111319692Y-111209030D01*
X111324760Y-111210061D01*
X111324763Y-111210062D01*
X111432379Y-111231957D01*
X111538597Y-111253567D01*
X111543772Y-111253757D01*
X111543774Y-111253757D01*
X111728043Y-111260514D01*
X111795385Y-111282999D01*
X111812521Y-111297334D01*
X112187092Y-111671905D01*
X112221118Y-111734217D01*
X112216053Y-111805032D01*
X112173506Y-111861868D01*
X112106986Y-111886679D01*
X112097997Y-111887000D01*
X80644500Y-111887000D01*
X80576379Y-111866998D01*
X80529886Y-111813342D01*
X80518500Y-111761000D01*
X80518500Y-109220000D01*
X80771738Y-109220000D01*
X80790767Y-109522462D01*
X80847555Y-109820154D01*
X80872409Y-109896646D01*
X80936783Y-110094767D01*
X80941206Y-110108381D01*
X81070242Y-110382598D01*
X81232630Y-110638480D01*
X81425808Y-110871992D01*
X81646729Y-111079450D01*
X81891910Y-111257584D01*
X81895379Y-111259491D01*
X81895382Y-111259493D01*
X81899493Y-111261753D01*
X82157483Y-111403585D01*
X82161152Y-111405038D01*
X82161157Y-111405040D01*
X82435591Y-111513696D01*
X82439261Y-111515149D01*
X82732800Y-111590516D01*
X83033470Y-111628500D01*
X83336530Y-111628500D01*
X83637200Y-111590516D01*
X83930739Y-111515149D01*
X83934409Y-111513696D01*
X84208843Y-111405040D01*
X84208848Y-111405038D01*
X84212517Y-111403585D01*
X84470507Y-111261753D01*
X84474618Y-111259493D01*
X84474621Y-111259491D01*
X84478090Y-111257584D01*
X84723271Y-111079450D01*
X84829331Y-110979853D01*
X86869977Y-110979853D01*
X86875258Y-110986907D01*
X87036756Y-111081279D01*
X87046042Y-111085729D01*
X87245001Y-111161703D01*
X87254899Y-111164579D01*
X87463595Y-111207038D01*
X87473823Y-111208257D01*
X87686650Y-111216062D01*
X87696936Y-111215595D01*
X87908185Y-111188534D01*
X87918262Y-111186392D01*
X88122255Y-111125191D01*
X88131842Y-111121433D01*
X88323098Y-111027738D01*
X88331944Y-111022465D01*
X88379247Y-110988723D01*
X88386211Y-110979853D01*
X89409977Y-110979853D01*
X89415258Y-110986907D01*
X89576756Y-111081279D01*
X89586042Y-111085729D01*
X89785001Y-111161703D01*
X89794899Y-111164579D01*
X90003595Y-111207038D01*
X90013823Y-111208257D01*
X90226650Y-111216062D01*
X90236936Y-111215595D01*
X90448185Y-111188534D01*
X90458262Y-111186392D01*
X90662255Y-111125191D01*
X90671842Y-111121433D01*
X90863098Y-111027738D01*
X90871944Y-111022465D01*
X90919247Y-110988723D01*
X90926211Y-110979853D01*
X91949977Y-110979853D01*
X91955258Y-110986907D01*
X92116756Y-111081279D01*
X92126042Y-111085729D01*
X92325001Y-111161703D01*
X92334899Y-111164579D01*
X92543595Y-111207038D01*
X92553823Y-111208257D01*
X92766650Y-111216062D01*
X92776936Y-111215595D01*
X92988185Y-111188534D01*
X92998262Y-111186392D01*
X93202255Y-111125191D01*
X93211842Y-111121433D01*
X93403098Y-111027738D01*
X93411944Y-111022465D01*
X93459247Y-110988723D01*
X93466211Y-110979853D01*
X94489977Y-110979853D01*
X94495258Y-110986907D01*
X94656756Y-111081279D01*
X94666042Y-111085729D01*
X94865001Y-111161703D01*
X94874899Y-111164579D01*
X95083595Y-111207038D01*
X95093823Y-111208257D01*
X95306650Y-111216062D01*
X95316936Y-111215595D01*
X95528185Y-111188534D01*
X95538262Y-111186392D01*
X95742255Y-111125191D01*
X95751842Y-111121433D01*
X95943098Y-111027738D01*
X95951944Y-111022465D01*
X95999247Y-110988723D01*
X96006211Y-110979853D01*
X99549977Y-110979853D01*
X99555258Y-110986907D01*
X99716756Y-111081279D01*
X99726042Y-111085729D01*
X99925001Y-111161703D01*
X99934899Y-111164579D01*
X100143595Y-111207038D01*
X100153823Y-111208257D01*
X100366650Y-111216062D01*
X100376936Y-111215595D01*
X100588185Y-111188534D01*
X100598262Y-111186392D01*
X100802255Y-111125191D01*
X100811842Y-111121433D01*
X101003098Y-111027738D01*
X101011944Y-111022465D01*
X101059247Y-110988723D01*
X101066211Y-110979853D01*
X102089977Y-110979853D01*
X102095258Y-110986907D01*
X102256756Y-111081279D01*
X102266042Y-111085729D01*
X102465001Y-111161703D01*
X102474899Y-111164579D01*
X102683595Y-111207038D01*
X102693823Y-111208257D01*
X102906650Y-111216062D01*
X102916936Y-111215595D01*
X103128185Y-111188534D01*
X103138262Y-111186392D01*
X103342255Y-111125191D01*
X103351842Y-111121433D01*
X103543098Y-111027738D01*
X103551944Y-111022465D01*
X103599247Y-110988723D01*
X103606211Y-110979853D01*
X104629977Y-110979853D01*
X104635258Y-110986907D01*
X104796756Y-111081279D01*
X104806042Y-111085729D01*
X105005001Y-111161703D01*
X105014899Y-111164579D01*
X105223595Y-111207038D01*
X105233823Y-111208257D01*
X105446650Y-111216062D01*
X105456936Y-111215595D01*
X105668185Y-111188534D01*
X105678262Y-111186392D01*
X105882255Y-111125191D01*
X105891842Y-111121433D01*
X106083098Y-111027738D01*
X106091944Y-111022465D01*
X106139247Y-110988723D01*
X106146211Y-110979853D01*
X107169977Y-110979853D01*
X107175258Y-110986907D01*
X107336756Y-111081279D01*
X107346042Y-111085729D01*
X107545001Y-111161703D01*
X107554899Y-111164579D01*
X107763595Y-111207038D01*
X107773823Y-111208257D01*
X107986650Y-111216062D01*
X107996936Y-111215595D01*
X108208185Y-111188534D01*
X108218262Y-111186392D01*
X108422255Y-111125191D01*
X108431842Y-111121433D01*
X108623098Y-111027738D01*
X108631944Y-111022465D01*
X108679247Y-110988723D01*
X108687648Y-110978023D01*
X108680660Y-110964870D01*
X107942812Y-110227022D01*
X107928868Y-110219408D01*
X107927035Y-110219539D01*
X107920420Y-110223790D01*
X107176737Y-110967473D01*
X107169977Y-110979853D01*
X106146211Y-110979853D01*
X106147648Y-110978023D01*
X106140660Y-110964870D01*
X105402812Y-110227022D01*
X105388868Y-110219408D01*
X105387035Y-110219539D01*
X105380420Y-110223790D01*
X104636737Y-110967473D01*
X104629977Y-110979853D01*
X103606211Y-110979853D01*
X103607648Y-110978023D01*
X103600660Y-110964870D01*
X102862812Y-110227022D01*
X102848868Y-110219408D01*
X102847035Y-110219539D01*
X102840420Y-110223790D01*
X102096737Y-110967473D01*
X102089977Y-110979853D01*
X101066211Y-110979853D01*
X101067648Y-110978023D01*
X101060660Y-110964870D01*
X100322812Y-110227022D01*
X100308868Y-110219408D01*
X100307035Y-110219539D01*
X100300420Y-110223790D01*
X99556737Y-110967473D01*
X99549977Y-110979853D01*
X96006211Y-110979853D01*
X96007648Y-110978023D01*
X96000660Y-110964870D01*
X95262812Y-110227022D01*
X95248868Y-110219408D01*
X95247035Y-110219539D01*
X95240420Y-110223790D01*
X94496737Y-110967473D01*
X94489977Y-110979853D01*
X93466211Y-110979853D01*
X93467648Y-110978023D01*
X93460660Y-110964870D01*
X92722812Y-110227022D01*
X92708868Y-110219408D01*
X92707035Y-110219539D01*
X92700420Y-110223790D01*
X91956737Y-110967473D01*
X91949977Y-110979853D01*
X90926211Y-110979853D01*
X90927648Y-110978023D01*
X90920660Y-110964870D01*
X90182812Y-110227022D01*
X90168868Y-110219408D01*
X90167035Y-110219539D01*
X90160420Y-110223790D01*
X89416737Y-110967473D01*
X89409977Y-110979853D01*
X88386211Y-110979853D01*
X88387648Y-110978023D01*
X88380660Y-110964870D01*
X87642812Y-110227022D01*
X87628868Y-110219408D01*
X87627035Y-110219539D01*
X87620420Y-110223790D01*
X86876737Y-110967473D01*
X86869977Y-110979853D01*
X84829331Y-110979853D01*
X84944192Y-110871992D01*
X85137370Y-110638480D01*
X85299758Y-110382598D01*
X85428794Y-110108381D01*
X85433218Y-110094767D01*
X85497591Y-109896646D01*
X85520265Y-109826863D01*
X86268050Y-109826863D01*
X86280309Y-110039477D01*
X86281745Y-110049697D01*
X86328565Y-110257446D01*
X86331645Y-110267275D01*
X86411770Y-110464603D01*
X86416413Y-110473794D01*
X86496460Y-110604420D01*
X86506916Y-110613880D01*
X86515694Y-110610096D01*
X87257978Y-109867812D01*
X87264356Y-109856132D01*
X87994408Y-109856132D01*
X87994539Y-109857965D01*
X87998790Y-109864580D01*
X88740474Y-110606264D01*
X88752484Y-110612823D01*
X88764223Y-110603855D01*
X88798022Y-110556819D01*
X88799149Y-110557629D01*
X88846659Y-110513881D01*
X88916596Y-110501661D01*
X88982038Y-110529191D01*
X89009870Y-110561029D01*
X89036459Y-110604419D01*
X89046916Y-110613880D01*
X89055694Y-110610096D01*
X89797978Y-109867812D01*
X89804356Y-109856132D01*
X90534408Y-109856132D01*
X90534539Y-109857965D01*
X90538790Y-109864580D01*
X91280474Y-110606264D01*
X91292484Y-110612823D01*
X91304223Y-110603855D01*
X91338022Y-110556819D01*
X91339149Y-110557629D01*
X91386659Y-110513881D01*
X91456596Y-110501661D01*
X91522038Y-110529191D01*
X91549870Y-110561029D01*
X91576459Y-110604419D01*
X91586916Y-110613880D01*
X91595694Y-110610096D01*
X92337978Y-109867812D01*
X92344356Y-109856132D01*
X93074408Y-109856132D01*
X93074539Y-109857965D01*
X93078790Y-109864580D01*
X93820474Y-110606264D01*
X93832484Y-110612823D01*
X93844223Y-110603855D01*
X93878022Y-110556819D01*
X93879149Y-110557629D01*
X93926659Y-110513881D01*
X93996596Y-110501661D01*
X94062038Y-110529191D01*
X94089870Y-110561029D01*
X94116459Y-110604419D01*
X94126916Y-110613880D01*
X94135694Y-110610096D01*
X94877978Y-109867812D01*
X94884356Y-109856132D01*
X95614408Y-109856132D01*
X95614539Y-109857965D01*
X95618790Y-109864580D01*
X96360474Y-110606264D01*
X96372484Y-110612823D01*
X96384223Y-110603855D01*
X96415004Y-110561019D01*
X96420315Y-110552180D01*
X96514670Y-110361267D01*
X96518469Y-110351672D01*
X96580376Y-110147915D01*
X96582555Y-110137834D01*
X96610590Y-109924887D01*
X96611109Y-109918212D01*
X96612572Y-109858364D01*
X96612378Y-109851646D01*
X96610341Y-109826863D01*
X98948050Y-109826863D01*
X98960309Y-110039477D01*
X98961745Y-110049697D01*
X99008565Y-110257446D01*
X99011645Y-110267275D01*
X99091770Y-110464603D01*
X99096413Y-110473794D01*
X99176460Y-110604420D01*
X99186916Y-110613880D01*
X99195694Y-110610096D01*
X99937978Y-109867812D01*
X99944356Y-109856132D01*
X100674408Y-109856132D01*
X100674539Y-109857965D01*
X100678790Y-109864580D01*
X101420474Y-110606264D01*
X101432484Y-110612823D01*
X101444223Y-110603855D01*
X101478022Y-110556819D01*
X101479149Y-110557629D01*
X101526659Y-110513881D01*
X101596596Y-110501661D01*
X101662038Y-110529191D01*
X101689870Y-110561029D01*
X101716459Y-110604419D01*
X101726916Y-110613880D01*
X101735694Y-110610096D01*
X102477978Y-109867812D01*
X102484356Y-109856132D01*
X103214408Y-109856132D01*
X103214539Y-109857965D01*
X103218790Y-109864580D01*
X103960474Y-110606264D01*
X103972484Y-110612823D01*
X103984223Y-110603855D01*
X104018022Y-110556819D01*
X104019149Y-110557629D01*
X104066659Y-110513881D01*
X104136596Y-110501661D01*
X104202038Y-110529191D01*
X104229870Y-110561029D01*
X104256459Y-110604419D01*
X104266916Y-110613880D01*
X104275694Y-110610096D01*
X105017978Y-109867812D01*
X105024356Y-109856132D01*
X105754408Y-109856132D01*
X105754539Y-109857965D01*
X105758790Y-109864580D01*
X106500474Y-110606264D01*
X106512484Y-110612823D01*
X106524223Y-110603855D01*
X106558022Y-110556819D01*
X106559149Y-110557629D01*
X106606659Y-110513881D01*
X106676596Y-110501661D01*
X106742038Y-110529191D01*
X106769870Y-110561029D01*
X106796459Y-110604419D01*
X106806916Y-110613880D01*
X106815694Y-110610096D01*
X107557978Y-109867812D01*
X107564356Y-109856132D01*
X108294408Y-109856132D01*
X108294539Y-109857965D01*
X108298790Y-109864580D01*
X109040474Y-110606264D01*
X109052484Y-110612823D01*
X109064223Y-110603855D01*
X109095004Y-110561019D01*
X109100315Y-110552180D01*
X109194670Y-110361267D01*
X109198469Y-110351672D01*
X109260376Y-110147915D01*
X109262555Y-110137834D01*
X109290590Y-109924887D01*
X109291109Y-109918212D01*
X109292572Y-109858364D01*
X109292378Y-109851646D01*
X109274781Y-109637604D01*
X109273096Y-109627424D01*
X109221214Y-109420875D01*
X109217894Y-109411124D01*
X109132972Y-109215814D01*
X109128105Y-109206739D01*
X109063063Y-109106197D01*
X109052377Y-109096995D01*
X109042812Y-109101398D01*
X108302022Y-109842188D01*
X108294408Y-109856132D01*
X107564356Y-109856132D01*
X107565592Y-109853868D01*
X107565461Y-109852035D01*
X107561210Y-109845420D01*
X106819849Y-109104059D01*
X106808313Y-109097759D01*
X106796028Y-109107384D01*
X106763192Y-109155520D01*
X106708281Y-109200523D01*
X106637756Y-109208694D01*
X106574009Y-109177440D01*
X106553311Y-109152955D01*
X106523062Y-109106197D01*
X106512377Y-109096995D01*
X106502812Y-109101398D01*
X105762022Y-109842188D01*
X105754408Y-109856132D01*
X105024356Y-109856132D01*
X105025592Y-109853868D01*
X105025461Y-109852035D01*
X105021210Y-109845420D01*
X104279849Y-109104059D01*
X104268313Y-109097759D01*
X104256028Y-109107384D01*
X104223192Y-109155520D01*
X104168281Y-109200523D01*
X104097756Y-109208694D01*
X104034009Y-109177440D01*
X104013311Y-109152955D01*
X103983062Y-109106197D01*
X103972377Y-109096995D01*
X103962812Y-109101398D01*
X103222022Y-109842188D01*
X103214408Y-109856132D01*
X102484356Y-109856132D01*
X102485592Y-109853868D01*
X102485461Y-109852035D01*
X102481210Y-109845420D01*
X101739849Y-109104059D01*
X101728313Y-109097759D01*
X101716028Y-109107384D01*
X101683192Y-109155520D01*
X101628281Y-109200523D01*
X101557756Y-109208694D01*
X101494009Y-109177440D01*
X101473311Y-109152955D01*
X101443062Y-109106197D01*
X101432377Y-109096995D01*
X101422812Y-109101398D01*
X100682022Y-109842188D01*
X100674408Y-109856132D01*
X99944356Y-109856132D01*
X99945592Y-109853868D01*
X99945461Y-109852035D01*
X99941210Y-109845420D01*
X99199849Y-109104059D01*
X99188313Y-109097759D01*
X99176031Y-109107382D01*
X99128089Y-109177662D01*
X99123004Y-109186613D01*
X99033338Y-109379783D01*
X99029775Y-109389470D01*
X98972864Y-109594681D01*
X98970933Y-109604800D01*
X98948302Y-109816574D01*
X98948050Y-109826863D01*
X96610341Y-109826863D01*
X96594781Y-109637604D01*
X96593096Y-109627424D01*
X96541214Y-109420875D01*
X96537894Y-109411124D01*
X96452972Y-109215814D01*
X96448105Y-109206739D01*
X96383063Y-109106197D01*
X96372377Y-109096995D01*
X96362812Y-109101398D01*
X95622022Y-109842188D01*
X95614408Y-109856132D01*
X94884356Y-109856132D01*
X94885592Y-109853868D01*
X94885461Y-109852035D01*
X94881210Y-109845420D01*
X94139849Y-109104059D01*
X94128313Y-109097759D01*
X94116028Y-109107384D01*
X94083192Y-109155520D01*
X94028281Y-109200523D01*
X93957756Y-109208694D01*
X93894009Y-109177440D01*
X93873311Y-109152955D01*
X93843062Y-109106197D01*
X93832377Y-109096995D01*
X93822812Y-109101398D01*
X93082022Y-109842188D01*
X93074408Y-109856132D01*
X92344356Y-109856132D01*
X92345592Y-109853868D01*
X92345461Y-109852035D01*
X92341210Y-109845420D01*
X91599849Y-109104059D01*
X91588313Y-109097759D01*
X91576028Y-109107384D01*
X91543192Y-109155520D01*
X91488281Y-109200523D01*
X91417756Y-109208694D01*
X91354009Y-109177440D01*
X91333311Y-109152955D01*
X91303062Y-109106197D01*
X91292377Y-109096995D01*
X91282812Y-109101398D01*
X90542022Y-109842188D01*
X90534408Y-109856132D01*
X89804356Y-109856132D01*
X89805592Y-109853868D01*
X89805461Y-109852035D01*
X89801210Y-109845420D01*
X89059849Y-109104059D01*
X89048313Y-109097759D01*
X89036028Y-109107384D01*
X89003192Y-109155520D01*
X88948281Y-109200523D01*
X88877756Y-109208694D01*
X88814009Y-109177440D01*
X88793311Y-109152955D01*
X88763062Y-109106197D01*
X88752377Y-109096995D01*
X88742812Y-109101398D01*
X88002022Y-109842188D01*
X87994408Y-109856132D01*
X87264356Y-109856132D01*
X87265592Y-109853868D01*
X87265461Y-109852035D01*
X87261210Y-109845420D01*
X86519849Y-109104059D01*
X86508313Y-109097759D01*
X86496031Y-109107382D01*
X86448089Y-109177662D01*
X86443004Y-109186613D01*
X86353338Y-109379783D01*
X86349775Y-109389470D01*
X86292864Y-109594681D01*
X86290933Y-109604800D01*
X86268302Y-109816574D01*
X86268050Y-109826863D01*
X85520265Y-109826863D01*
X85522445Y-109820154D01*
X85579233Y-109522462D01*
X85598262Y-109220000D01*
X85579233Y-108917538D01*
X85522445Y-108619846D01*
X85428794Y-108331619D01*
X85406872Y-108285031D01*
X85367865Y-108202137D01*
X85299758Y-108057402D01*
X85137370Y-107801520D01*
X84944192Y-107568008D01*
X84723271Y-107360550D01*
X84697657Y-107341940D01*
X84660577Y-107315000D01*
X84478090Y-107182416D01*
X84466551Y-107176072D01*
X84215986Y-107038322D01*
X84215985Y-107038321D01*
X84212517Y-107036415D01*
X84208848Y-107034962D01*
X84208843Y-107034960D01*
X83934409Y-106926304D01*
X83934408Y-106926304D01*
X83930739Y-106924851D01*
X83637200Y-106849484D01*
X83336530Y-106811500D01*
X83033470Y-106811500D01*
X82732800Y-106849484D01*
X82439261Y-106924851D01*
X82435592Y-106926304D01*
X82435591Y-106926304D01*
X82161157Y-107034960D01*
X82161152Y-107034962D01*
X82157483Y-107036415D01*
X82154015Y-107038321D01*
X82154014Y-107038322D01*
X81903450Y-107176072D01*
X81891910Y-107182416D01*
X81709423Y-107315000D01*
X81672344Y-107341940D01*
X81646729Y-107360550D01*
X81425808Y-107568008D01*
X81232630Y-107801520D01*
X81070242Y-108057402D01*
X81002135Y-108202137D01*
X80963129Y-108285031D01*
X80941206Y-108331619D01*
X80847555Y-108619846D01*
X80790767Y-108917538D01*
X80771738Y-109220000D01*
X80518500Y-109220000D01*
X80518500Y-100296695D01*
X85567251Y-100296695D01*
X85567548Y-100301848D01*
X85567548Y-100301851D01*
X85577309Y-100471140D01*
X85580110Y-100519715D01*
X85581247Y-100524761D01*
X85581248Y-100524767D01*
X85584889Y-100540923D01*
X85629222Y-100737639D01*
X85667461Y-100831811D01*
X85710871Y-100938717D01*
X85713266Y-100944616D01*
X85752374Y-101008434D01*
X85827291Y-101130688D01*
X85829987Y-101135088D01*
X85976250Y-101303938D01*
X86148126Y-101446632D01*
X86341000Y-101559338D01*
X86549692Y-101639030D01*
X86554760Y-101640061D01*
X86554763Y-101640062D01*
X86659604Y-101661392D01*
X86768597Y-101683567D01*
X86773772Y-101683757D01*
X86773774Y-101683757D01*
X86986673Y-101691564D01*
X86986677Y-101691564D01*
X86991837Y-101691753D01*
X86996957Y-101691097D01*
X86996959Y-101691097D01*
X87208288Y-101664025D01*
X87208289Y-101664025D01*
X87213416Y-101663368D01*
X87218366Y-101661883D01*
X87422429Y-101600661D01*
X87422434Y-101600659D01*
X87427384Y-101599174D01*
X87627994Y-101500896D01*
X87809860Y-101371173D01*
X87846692Y-101334470D01*
X87964435Y-101217137D01*
X87968096Y-101213489D01*
X88017261Y-101145069D01*
X88066134Y-101077054D01*
X88084078Y-101052082D01*
X88140073Y-101008434D01*
X88210776Y-101001988D01*
X88273741Y-101034791D01*
X88293834Y-101059773D01*
X88339987Y-101135088D01*
X88486250Y-101303938D01*
X88658126Y-101446632D01*
X88851000Y-101559338D01*
X89059692Y-101639030D01*
X89064760Y-101640061D01*
X89064763Y-101640062D01*
X89169604Y-101661392D01*
X89278597Y-101683567D01*
X89283772Y-101683757D01*
X89283774Y-101683757D01*
X89496673Y-101691564D01*
X89496677Y-101691564D01*
X89501837Y-101691753D01*
X89506957Y-101691097D01*
X89506959Y-101691097D01*
X89718288Y-101664025D01*
X89718289Y-101664025D01*
X89723416Y-101663368D01*
X89728366Y-101661883D01*
X89932429Y-101600661D01*
X89932434Y-101600659D01*
X89937384Y-101599174D01*
X90137994Y-101500896D01*
X90319860Y-101371173D01*
X90356692Y-101334470D01*
X90474435Y-101217137D01*
X90478096Y-101213489D01*
X90527261Y-101145069D01*
X90608453Y-101032077D01*
X90609776Y-101033028D01*
X90656645Y-100989857D01*
X90726580Y-100977625D01*
X90792026Y-101005144D01*
X90819875Y-101036994D01*
X90879987Y-101135088D01*
X91026250Y-101303938D01*
X91198126Y-101446632D01*
X91391000Y-101559338D01*
X91599692Y-101639030D01*
X91604760Y-101640061D01*
X91604763Y-101640062D01*
X91709604Y-101661392D01*
X91818597Y-101683567D01*
X91823772Y-101683757D01*
X91823774Y-101683757D01*
X92036673Y-101691564D01*
X92036677Y-101691564D01*
X92041837Y-101691753D01*
X92046957Y-101691097D01*
X92046959Y-101691097D01*
X92258288Y-101664025D01*
X92258289Y-101664025D01*
X92263416Y-101663368D01*
X92268366Y-101661883D01*
X92472429Y-101600661D01*
X92472434Y-101600659D01*
X92477384Y-101599174D01*
X92677994Y-101500896D01*
X92742544Y-101454853D01*
X93759977Y-101454853D01*
X93765258Y-101461907D01*
X93926756Y-101556279D01*
X93936042Y-101560729D01*
X94135001Y-101636703D01*
X94144899Y-101639579D01*
X94353595Y-101682038D01*
X94363823Y-101683257D01*
X94576650Y-101691062D01*
X94586936Y-101690595D01*
X94798185Y-101663534D01*
X94808262Y-101661392D01*
X95012255Y-101600191D01*
X95021842Y-101596433D01*
X95213098Y-101502738D01*
X95221944Y-101497465D01*
X95269247Y-101463723D01*
X95277648Y-101453023D01*
X95270660Y-101439870D01*
X94532812Y-100702022D01*
X94518868Y-100694408D01*
X94517035Y-100694539D01*
X94510420Y-100698790D01*
X93766737Y-101442473D01*
X93759977Y-101454853D01*
X92742544Y-101454853D01*
X92859860Y-101371173D01*
X92896692Y-101334470D01*
X93014435Y-101217137D01*
X93018096Y-101213489D01*
X93067261Y-101145069D01*
X93148453Y-101032077D01*
X93149640Y-101032930D01*
X93196960Y-100989362D01*
X93266897Y-100977145D01*
X93332338Y-101004678D01*
X93360166Y-101036512D01*
X93386459Y-101079419D01*
X93396916Y-101088880D01*
X93405694Y-101085096D01*
X94147978Y-100342812D01*
X94155592Y-100328868D01*
X94155461Y-100327035D01*
X94151210Y-100320420D01*
X93409849Y-99579059D01*
X93398313Y-99572759D01*
X93386031Y-99582382D01*
X93353499Y-99630072D01*
X93298587Y-99675075D01*
X93228063Y-99683246D01*
X93164316Y-99651992D01*
X93143618Y-99627508D01*
X93062822Y-99502617D01*
X93062820Y-99502614D01*
X93060014Y-99498277D01*
X92909670Y-99333051D01*
X92905619Y-99329852D01*
X92905615Y-99329848D01*
X92749338Y-99206427D01*
X93761223Y-99206427D01*
X93767968Y-99218758D01*
X94507188Y-99957978D01*
X94521132Y-99965592D01*
X94522965Y-99965461D01*
X94529580Y-99961210D01*
X95273389Y-99217401D01*
X95280410Y-99204544D01*
X95273611Y-99195213D01*
X95269554Y-99192518D01*
X95083117Y-99089599D01*
X95073705Y-99085369D01*
X94872959Y-99014280D01*
X94862989Y-99011646D01*
X94653327Y-98974301D01*
X94643073Y-98973331D01*
X94430116Y-98970728D01*
X94419832Y-98971448D01*
X94209321Y-99003661D01*
X94199293Y-99006050D01*
X93996868Y-99072212D01*
X93987359Y-99076209D01*
X93798466Y-99174540D01*
X93789734Y-99180039D01*
X93769677Y-99195099D01*
X93761223Y-99206427D01*
X92749338Y-99206427D01*
X92738414Y-99197800D01*
X92738410Y-99197798D01*
X92734359Y-99194598D01*
X92538789Y-99086638D01*
X92533920Y-99084914D01*
X92533916Y-99084912D01*
X92333087Y-99013795D01*
X92333083Y-99013794D01*
X92328212Y-99012069D01*
X92323119Y-99011162D01*
X92323116Y-99011161D01*
X92113373Y-98973800D01*
X92113367Y-98973799D01*
X92108284Y-98972894D01*
X92034452Y-98971992D01*
X91890081Y-98970228D01*
X91890079Y-98970228D01*
X91884911Y-98970165D01*
X91664091Y-99003955D01*
X91451756Y-99073357D01*
X91253607Y-99176507D01*
X91249474Y-99179610D01*
X91249471Y-99179612D01*
X91079100Y-99307530D01*
X91074965Y-99310635D01*
X90920629Y-99472138D01*
X90813201Y-99629621D01*
X90758293Y-99674621D01*
X90687768Y-99682792D01*
X90624021Y-99651538D01*
X90603324Y-99627054D01*
X90522822Y-99502617D01*
X90522820Y-99502614D01*
X90520014Y-99498277D01*
X90369670Y-99333051D01*
X90365619Y-99329852D01*
X90365615Y-99329848D01*
X90198414Y-99197800D01*
X90198410Y-99197798D01*
X90194359Y-99194598D01*
X89998789Y-99086638D01*
X89993920Y-99084914D01*
X89993916Y-99084912D01*
X89793087Y-99013795D01*
X89793083Y-99013794D01*
X89788212Y-99012069D01*
X89783119Y-99011162D01*
X89783116Y-99011161D01*
X89573373Y-98973800D01*
X89573367Y-98973799D01*
X89568284Y-98972894D01*
X89494452Y-98971992D01*
X89350081Y-98970228D01*
X89350079Y-98970228D01*
X89344911Y-98970165D01*
X89124091Y-99003955D01*
X88911756Y-99073357D01*
X88713607Y-99176507D01*
X88709474Y-99179610D01*
X88709471Y-99179612D01*
X88539100Y-99307530D01*
X88534965Y-99310635D01*
X88380629Y-99472138D01*
X88377720Y-99476403D01*
X88377714Y-99476411D01*
X88288601Y-99607046D01*
X88233690Y-99652049D01*
X88163165Y-99660220D01*
X88099418Y-99628966D01*
X88078721Y-99604482D01*
X88012822Y-99502617D01*
X88012820Y-99502614D01*
X88010014Y-99498277D01*
X87859670Y-99333051D01*
X87855619Y-99329852D01*
X87855615Y-99329848D01*
X87688414Y-99197800D01*
X87688410Y-99197798D01*
X87684359Y-99194598D01*
X87488789Y-99086638D01*
X87483920Y-99084914D01*
X87483916Y-99084912D01*
X87283087Y-99013795D01*
X87283083Y-99013794D01*
X87278212Y-99012069D01*
X87273119Y-99011162D01*
X87273116Y-99011161D01*
X87063373Y-98973800D01*
X87063367Y-98973799D01*
X87058284Y-98972894D01*
X86984452Y-98971992D01*
X86840081Y-98970228D01*
X86840079Y-98970228D01*
X86834911Y-98970165D01*
X86614091Y-99003955D01*
X86401756Y-99073357D01*
X86203607Y-99176507D01*
X86199474Y-99179610D01*
X86199471Y-99179612D01*
X86029100Y-99307530D01*
X86024965Y-99310635D01*
X85870629Y-99472138D01*
X85744743Y-99656680D01*
X85650688Y-99859305D01*
X85590989Y-100074570D01*
X85567251Y-100296695D01*
X80518500Y-100296695D01*
X80518500Y-79976695D01*
X95697251Y-79976695D01*
X95697548Y-79981848D01*
X95697548Y-79981851D01*
X95703011Y-80076590D01*
X95710110Y-80199715D01*
X95711247Y-80204761D01*
X95711248Y-80204767D01*
X95729066Y-80283827D01*
X95759222Y-80417639D01*
X95843266Y-80624616D01*
X95894019Y-80707438D01*
X95957291Y-80810688D01*
X95959987Y-80815088D01*
X96106250Y-80983938D01*
X96278126Y-81126632D01*
X96471000Y-81239338D01*
X96475825Y-81241180D01*
X96475826Y-81241181D01*
X96501686Y-81251056D01*
X96679692Y-81319030D01*
X96684760Y-81320061D01*
X96684763Y-81320062D01*
X96771919Y-81337794D01*
X96898597Y-81363567D01*
X96903772Y-81363757D01*
X96903774Y-81363757D01*
X97116673Y-81371564D01*
X97116677Y-81371564D01*
X97121837Y-81371753D01*
X97126957Y-81371097D01*
X97126959Y-81371097D01*
X97338288Y-81344025D01*
X97338289Y-81344025D01*
X97343416Y-81343368D01*
X97361995Y-81337794D01*
X97552429Y-81280661D01*
X97552434Y-81280659D01*
X97557384Y-81279174D01*
X97757994Y-81180896D01*
X97939860Y-81051173D01*
X97988429Y-81002774D01*
X98052176Y-80939249D01*
X98098096Y-80893489D01*
X98157594Y-80810689D01*
X98228453Y-80712077D01*
X98229776Y-80713028D01*
X98276645Y-80669857D01*
X98346580Y-80657625D01*
X98412026Y-80685144D01*
X98439875Y-80716994D01*
X98499987Y-80815088D01*
X98646250Y-80983938D01*
X98818126Y-81126632D01*
X99011000Y-81239338D01*
X99015825Y-81241180D01*
X99015826Y-81241181D01*
X99041686Y-81251056D01*
X99219692Y-81319030D01*
X99224760Y-81320061D01*
X99224763Y-81320062D01*
X99311919Y-81337794D01*
X99438597Y-81363567D01*
X99443772Y-81363757D01*
X99443774Y-81363757D01*
X99656673Y-81371564D01*
X99656677Y-81371564D01*
X99661837Y-81371753D01*
X99666957Y-81371097D01*
X99666959Y-81371097D01*
X99878288Y-81344025D01*
X99878289Y-81344025D01*
X99883416Y-81343368D01*
X99901995Y-81337794D01*
X100092429Y-81280661D01*
X100092434Y-81280659D01*
X100097384Y-81279174D01*
X100297994Y-81180896D01*
X100479860Y-81051173D01*
X100528429Y-81002774D01*
X100592176Y-80939249D01*
X100638096Y-80893489D01*
X100697594Y-80810689D01*
X100768453Y-80712077D01*
X100769776Y-80713028D01*
X100816645Y-80669857D01*
X100886580Y-80657625D01*
X100952026Y-80685144D01*
X100979875Y-80716994D01*
X101039987Y-80815088D01*
X101186250Y-80983938D01*
X101358126Y-81126632D01*
X101551000Y-81239338D01*
X101555825Y-81241180D01*
X101555826Y-81241181D01*
X101581686Y-81251056D01*
X101759692Y-81319030D01*
X101764760Y-81320061D01*
X101764763Y-81320062D01*
X101851919Y-81337794D01*
X101978597Y-81363567D01*
X101983772Y-81363757D01*
X101983774Y-81363757D01*
X102196673Y-81371564D01*
X102196677Y-81371564D01*
X102201837Y-81371753D01*
X102206957Y-81371097D01*
X102206959Y-81371097D01*
X102418288Y-81344025D01*
X102418289Y-81344025D01*
X102423416Y-81343368D01*
X102441995Y-81337794D01*
X102632429Y-81280661D01*
X102632434Y-81280659D01*
X102637384Y-81279174D01*
X102837994Y-81180896D01*
X103019860Y-81051173D01*
X103068429Y-81002774D01*
X103132176Y-80939249D01*
X103178096Y-80893489D01*
X103237594Y-80810689D01*
X103308453Y-80712077D01*
X103309776Y-80713028D01*
X103356645Y-80669857D01*
X103426580Y-80657625D01*
X103492026Y-80685144D01*
X103519875Y-80716994D01*
X103579987Y-80815088D01*
X103726250Y-80983938D01*
X103898126Y-81126632D01*
X104091000Y-81239338D01*
X104095825Y-81241180D01*
X104095826Y-81241181D01*
X104121686Y-81251056D01*
X104299692Y-81319030D01*
X104304760Y-81320061D01*
X104304763Y-81320062D01*
X104391919Y-81337794D01*
X104518597Y-81363567D01*
X104523772Y-81363757D01*
X104523774Y-81363757D01*
X104736673Y-81371564D01*
X104736677Y-81371564D01*
X104741837Y-81371753D01*
X104746957Y-81371097D01*
X104746959Y-81371097D01*
X104958288Y-81344025D01*
X104958289Y-81344025D01*
X104963416Y-81343368D01*
X104981995Y-81337794D01*
X105172429Y-81280661D01*
X105172434Y-81280659D01*
X105177384Y-81279174D01*
X105377994Y-81180896D01*
X105559860Y-81051173D01*
X105608429Y-81002774D01*
X105672176Y-80939249D01*
X105718096Y-80893489D01*
X105777594Y-80810689D01*
X105848453Y-80712077D01*
X105849776Y-80713028D01*
X105896645Y-80669857D01*
X105966580Y-80657625D01*
X106032026Y-80685144D01*
X106059875Y-80716994D01*
X106119987Y-80815088D01*
X106266250Y-80983938D01*
X106438126Y-81126632D01*
X106631000Y-81239338D01*
X106635825Y-81241180D01*
X106635826Y-81241181D01*
X106661686Y-81251056D01*
X106839692Y-81319030D01*
X106844760Y-81320061D01*
X106844763Y-81320062D01*
X106931919Y-81337794D01*
X107058597Y-81363567D01*
X107063772Y-81363757D01*
X107063774Y-81363757D01*
X107276673Y-81371564D01*
X107276677Y-81371564D01*
X107281837Y-81371753D01*
X107286957Y-81371097D01*
X107286959Y-81371097D01*
X107498288Y-81344025D01*
X107498289Y-81344025D01*
X107503416Y-81343368D01*
X107521995Y-81337794D01*
X107712429Y-81280661D01*
X107712434Y-81280659D01*
X107717384Y-81279174D01*
X107917994Y-81180896D01*
X108099860Y-81051173D01*
X108148429Y-81002774D01*
X108212176Y-80939249D01*
X108258096Y-80893489D01*
X108317594Y-80810689D01*
X108388453Y-80712077D01*
X108389776Y-80713028D01*
X108436645Y-80669857D01*
X108506580Y-80657625D01*
X108572026Y-80685144D01*
X108599875Y-80716994D01*
X108659987Y-80815088D01*
X108806250Y-80983938D01*
X108978126Y-81126632D01*
X109171000Y-81239338D01*
X109175825Y-81241180D01*
X109175826Y-81241181D01*
X109201686Y-81251056D01*
X109379692Y-81319030D01*
X109384760Y-81320061D01*
X109384763Y-81320062D01*
X109471919Y-81337794D01*
X109598597Y-81363567D01*
X109603772Y-81363757D01*
X109603774Y-81363757D01*
X109816673Y-81371564D01*
X109816677Y-81371564D01*
X109821837Y-81371753D01*
X109826957Y-81371097D01*
X109826959Y-81371097D01*
X110038288Y-81344025D01*
X110038289Y-81344025D01*
X110043416Y-81343368D01*
X110061995Y-81337794D01*
X110252429Y-81280661D01*
X110252434Y-81280659D01*
X110257384Y-81279174D01*
X110457994Y-81180896D01*
X110639860Y-81051173D01*
X110688429Y-81002774D01*
X110752176Y-80939249D01*
X110798096Y-80893489D01*
X110857594Y-80810689D01*
X110928453Y-80712077D01*
X110929776Y-80713028D01*
X110976645Y-80669857D01*
X111046580Y-80657625D01*
X111112026Y-80685144D01*
X111139875Y-80716994D01*
X111199987Y-80815088D01*
X111346250Y-80983938D01*
X111518126Y-81126632D01*
X111711000Y-81239338D01*
X111715825Y-81241180D01*
X111715826Y-81241181D01*
X111741686Y-81251056D01*
X111919692Y-81319030D01*
X111924760Y-81320061D01*
X111924763Y-81320062D01*
X112011919Y-81337794D01*
X112138597Y-81363567D01*
X112143772Y-81363757D01*
X112143774Y-81363757D01*
X112356673Y-81371564D01*
X112356677Y-81371564D01*
X112361837Y-81371753D01*
X112366957Y-81371097D01*
X112366959Y-81371097D01*
X112578288Y-81344025D01*
X112578289Y-81344025D01*
X112583416Y-81343368D01*
X112601995Y-81337794D01*
X112792429Y-81280661D01*
X112792434Y-81280659D01*
X112797384Y-81279174D01*
X112997994Y-81180896D01*
X113179860Y-81051173D01*
X113228429Y-81002774D01*
X113292176Y-80939249D01*
X113338096Y-80893489D01*
X113397594Y-80810689D01*
X113468453Y-80712077D01*
X113469776Y-80713028D01*
X113516645Y-80669857D01*
X113586580Y-80657625D01*
X113652026Y-80685144D01*
X113679875Y-80716994D01*
X113739987Y-80815088D01*
X113886250Y-80983938D01*
X114058126Y-81126632D01*
X114251000Y-81239338D01*
X114255825Y-81241180D01*
X114255826Y-81241181D01*
X114281686Y-81251056D01*
X114459692Y-81319030D01*
X114464760Y-81320061D01*
X114464763Y-81320062D01*
X114551919Y-81337794D01*
X114678597Y-81363567D01*
X114683772Y-81363757D01*
X114683774Y-81363757D01*
X114896673Y-81371564D01*
X114896677Y-81371564D01*
X114901837Y-81371753D01*
X114906957Y-81371097D01*
X114906959Y-81371097D01*
X115118288Y-81344025D01*
X115118289Y-81344025D01*
X115123416Y-81343368D01*
X115141995Y-81337794D01*
X115332429Y-81280661D01*
X115332434Y-81280659D01*
X115337384Y-81279174D01*
X115537994Y-81180896D01*
X115719860Y-81051173D01*
X115768429Y-81002774D01*
X115832176Y-80939249D01*
X115878096Y-80893489D01*
X115937594Y-80810689D01*
X116008453Y-80712077D01*
X116009776Y-80713028D01*
X116056645Y-80669857D01*
X116126580Y-80657625D01*
X116192026Y-80685144D01*
X116219875Y-80716994D01*
X116279987Y-80815088D01*
X116426250Y-80983938D01*
X116598126Y-81126632D01*
X116791000Y-81239338D01*
X116795825Y-81241180D01*
X116795826Y-81241181D01*
X116821686Y-81251056D01*
X116999692Y-81319030D01*
X117004760Y-81320061D01*
X117004763Y-81320062D01*
X117091919Y-81337794D01*
X117218597Y-81363567D01*
X117223772Y-81363757D01*
X117223774Y-81363757D01*
X117436673Y-81371564D01*
X117436677Y-81371564D01*
X117441837Y-81371753D01*
X117446957Y-81371097D01*
X117446959Y-81371097D01*
X117658288Y-81344025D01*
X117658289Y-81344025D01*
X117663416Y-81343368D01*
X117681995Y-81337794D01*
X117872429Y-81280661D01*
X117872434Y-81280659D01*
X117877384Y-81279174D01*
X118077994Y-81180896D01*
X118259860Y-81051173D01*
X118308429Y-81002774D01*
X118372176Y-80939249D01*
X118418096Y-80893489D01*
X118477594Y-80810689D01*
X118548453Y-80712077D01*
X118549776Y-80713028D01*
X118596645Y-80669857D01*
X118666580Y-80657625D01*
X118732026Y-80685144D01*
X118759875Y-80716994D01*
X118819987Y-80815088D01*
X118966250Y-80983938D01*
X119138126Y-81126632D01*
X119331000Y-81239338D01*
X119335825Y-81241180D01*
X119335826Y-81241181D01*
X119361686Y-81251056D01*
X119539692Y-81319030D01*
X119544760Y-81320061D01*
X119544763Y-81320062D01*
X119631919Y-81337794D01*
X119758597Y-81363567D01*
X119763772Y-81363757D01*
X119763774Y-81363757D01*
X119915999Y-81369339D01*
X119983341Y-81391824D01*
X120027837Y-81447147D01*
X120035359Y-81517744D01*
X120031217Y-81534182D01*
X120010458Y-81598072D01*
X119990496Y-81788000D01*
X120010458Y-81977928D01*
X120069473Y-82159556D01*
X120164960Y-82324944D01*
X120292747Y-82466866D01*
X120447248Y-82579118D01*
X120453276Y-82581802D01*
X120453278Y-82581803D01*
X120615681Y-82654109D01*
X120621712Y-82656794D01*
X120715112Y-82676647D01*
X120802056Y-82695128D01*
X120802061Y-82695128D01*
X120808513Y-82696500D01*
X120999487Y-82696500D01*
X121005939Y-82695128D01*
X121005944Y-82695128D01*
X121092888Y-82676647D01*
X121186288Y-82656794D01*
X121192319Y-82654109D01*
X121354722Y-82581803D01*
X121354724Y-82581802D01*
X121360752Y-82579118D01*
X121515253Y-82466866D01*
X121519668Y-82461963D01*
X121524580Y-82457540D01*
X121525705Y-82458789D01*
X121579014Y-82425949D01*
X121612200Y-82421500D01*
X129085800Y-82421500D01*
X129153921Y-82441502D01*
X129173147Y-82457843D01*
X129173420Y-82457540D01*
X129178332Y-82461963D01*
X129182747Y-82466866D01*
X129337248Y-82579118D01*
X129343276Y-82581802D01*
X129343278Y-82581803D01*
X129505681Y-82654109D01*
X129511712Y-82656794D01*
X129605112Y-82676647D01*
X129692056Y-82695128D01*
X129692061Y-82695128D01*
X129698513Y-82696500D01*
X129889487Y-82696500D01*
X129895939Y-82695128D01*
X129895944Y-82695128D01*
X129982888Y-82676647D01*
X130076288Y-82656794D01*
X130082319Y-82654109D01*
X130244722Y-82581803D01*
X130244724Y-82581802D01*
X130250752Y-82579118D01*
X130405253Y-82466866D01*
X130533040Y-82324944D01*
X130628527Y-82159556D01*
X130687542Y-81977928D01*
X130707504Y-81788000D01*
X130687542Y-81598072D01*
X130628527Y-81416444D01*
X130602616Y-81371564D01*
X130536341Y-81256774D01*
X130533040Y-81251056D01*
X130453254Y-81162444D01*
X130409675Y-81114045D01*
X130409674Y-81114044D01*
X130405253Y-81109134D01*
X130250752Y-80996882D01*
X130244724Y-80994198D01*
X130244722Y-80994197D01*
X130082319Y-80921891D01*
X130082318Y-80921891D01*
X130076288Y-80919206D01*
X129955300Y-80893489D01*
X129895944Y-80880872D01*
X129895939Y-80880872D01*
X129889487Y-80879500D01*
X129698513Y-80879500D01*
X129692061Y-80880872D01*
X129692056Y-80880872D01*
X129632700Y-80893489D01*
X129511712Y-80919206D01*
X129505682Y-80921891D01*
X129505681Y-80921891D01*
X129343278Y-80994197D01*
X129343276Y-80994198D01*
X129337248Y-80996882D01*
X129182747Y-81109134D01*
X129178332Y-81114037D01*
X129173420Y-81118460D01*
X129172295Y-81117211D01*
X129118986Y-81150051D01*
X129085800Y-81154500D01*
X126081116Y-81154500D01*
X126012995Y-81134498D01*
X125966502Y-81080842D01*
X125956398Y-81010568D01*
X125985892Y-80945988D01*
X125992176Y-80939249D01*
X126034435Y-80897137D01*
X126038096Y-80893489D01*
X126097594Y-80810689D01*
X126165435Y-80716277D01*
X126168453Y-80712077D01*
X126189320Y-80669857D01*
X126265136Y-80516453D01*
X126265137Y-80516451D01*
X126267430Y-80511811D01*
X126332370Y-80298069D01*
X126361529Y-80076590D01*
X126363156Y-80010000D01*
X126344852Y-79787361D01*
X126290431Y-79570702D01*
X126201354Y-79365840D01*
X126080014Y-79178277D01*
X125929670Y-79013051D01*
X125925619Y-79009852D01*
X125925615Y-79009848D01*
X125758414Y-78877800D01*
X125758410Y-78877798D01*
X125754359Y-78874598D01*
X125558789Y-78766638D01*
X125553920Y-78764914D01*
X125553916Y-78764912D01*
X125353087Y-78693795D01*
X125353083Y-78693794D01*
X125348212Y-78692069D01*
X125343119Y-78691162D01*
X125343116Y-78691161D01*
X125133373Y-78653800D01*
X125133367Y-78653799D01*
X125128284Y-78652894D01*
X125054452Y-78651992D01*
X124910081Y-78650228D01*
X124910079Y-78650228D01*
X124904911Y-78650165D01*
X124684091Y-78683955D01*
X124471756Y-78753357D01*
X124273607Y-78856507D01*
X124269474Y-78859610D01*
X124269471Y-78859612D01*
X124245247Y-78877800D01*
X124094965Y-78990635D01*
X123940629Y-79152138D01*
X123833201Y-79309621D01*
X123778293Y-79354621D01*
X123707768Y-79362792D01*
X123644021Y-79331538D01*
X123623324Y-79307054D01*
X123542822Y-79182617D01*
X123542820Y-79182614D01*
X123540014Y-79178277D01*
X123389670Y-79013051D01*
X123385619Y-79009852D01*
X123385615Y-79009848D01*
X123218414Y-78877800D01*
X123218410Y-78877798D01*
X123214359Y-78874598D01*
X123018789Y-78766638D01*
X123013920Y-78764914D01*
X123013916Y-78764912D01*
X122813087Y-78693795D01*
X122813083Y-78693794D01*
X122808212Y-78692069D01*
X122803119Y-78691162D01*
X122803116Y-78691161D01*
X122593373Y-78653800D01*
X122593367Y-78653799D01*
X122588284Y-78652894D01*
X122514452Y-78651992D01*
X122370081Y-78650228D01*
X122370079Y-78650228D01*
X122364911Y-78650165D01*
X122144091Y-78683955D01*
X121931756Y-78753357D01*
X121733607Y-78856507D01*
X121729474Y-78859610D01*
X121729471Y-78859612D01*
X121705247Y-78877800D01*
X121554965Y-78990635D01*
X121400629Y-79152138D01*
X121293201Y-79309621D01*
X121238293Y-79354621D01*
X121167768Y-79362792D01*
X121104021Y-79331538D01*
X121083324Y-79307054D01*
X121002822Y-79182617D01*
X121002820Y-79182614D01*
X121000014Y-79178277D01*
X120849670Y-79013051D01*
X120845619Y-79009852D01*
X120845615Y-79009848D01*
X120678414Y-78877800D01*
X120678410Y-78877798D01*
X120674359Y-78874598D01*
X120478789Y-78766638D01*
X120473920Y-78764914D01*
X120473916Y-78764912D01*
X120273087Y-78693795D01*
X120273083Y-78693794D01*
X120268212Y-78692069D01*
X120263119Y-78691162D01*
X120263116Y-78691161D01*
X120053373Y-78653800D01*
X120053367Y-78653799D01*
X120048284Y-78652894D01*
X119974452Y-78651992D01*
X119830081Y-78650228D01*
X119830079Y-78650228D01*
X119824911Y-78650165D01*
X119604091Y-78683955D01*
X119391756Y-78753357D01*
X119193607Y-78856507D01*
X119189474Y-78859610D01*
X119189471Y-78859612D01*
X119165247Y-78877800D01*
X119014965Y-78990635D01*
X118860629Y-79152138D01*
X118753201Y-79309621D01*
X118698293Y-79354621D01*
X118627768Y-79362792D01*
X118564021Y-79331538D01*
X118543324Y-79307054D01*
X118462822Y-79182617D01*
X118462820Y-79182614D01*
X118460014Y-79178277D01*
X118309670Y-79013051D01*
X118305619Y-79009852D01*
X118305615Y-79009848D01*
X118138414Y-78877800D01*
X118138410Y-78877798D01*
X118134359Y-78874598D01*
X117938789Y-78766638D01*
X117933920Y-78764914D01*
X117933916Y-78764912D01*
X117733087Y-78693795D01*
X117733083Y-78693794D01*
X117728212Y-78692069D01*
X117723119Y-78691162D01*
X117723116Y-78691161D01*
X117513373Y-78653800D01*
X117513367Y-78653799D01*
X117508284Y-78652894D01*
X117434452Y-78651992D01*
X117290081Y-78650228D01*
X117290079Y-78650228D01*
X117284911Y-78650165D01*
X117064091Y-78683955D01*
X116851756Y-78753357D01*
X116653607Y-78856507D01*
X116649474Y-78859610D01*
X116649471Y-78859612D01*
X116625247Y-78877800D01*
X116474965Y-78990635D01*
X116320629Y-79152138D01*
X116213201Y-79309621D01*
X116158293Y-79354621D01*
X116087768Y-79362792D01*
X116024021Y-79331538D01*
X116003324Y-79307054D01*
X115922822Y-79182617D01*
X115922820Y-79182614D01*
X115920014Y-79178277D01*
X115769670Y-79013051D01*
X115765619Y-79009852D01*
X115765615Y-79009848D01*
X115598414Y-78877800D01*
X115598410Y-78877798D01*
X115594359Y-78874598D01*
X115398789Y-78766638D01*
X115393920Y-78764914D01*
X115393916Y-78764912D01*
X115193087Y-78693795D01*
X115193083Y-78693794D01*
X115188212Y-78692069D01*
X115183119Y-78691162D01*
X115183116Y-78691161D01*
X114973373Y-78653800D01*
X114973367Y-78653799D01*
X114968284Y-78652894D01*
X114894452Y-78651992D01*
X114750081Y-78650228D01*
X114750079Y-78650228D01*
X114744911Y-78650165D01*
X114524091Y-78683955D01*
X114311756Y-78753357D01*
X114113607Y-78856507D01*
X114109474Y-78859610D01*
X114109471Y-78859612D01*
X114085247Y-78877800D01*
X113934965Y-78990635D01*
X113780629Y-79152138D01*
X113673201Y-79309621D01*
X113618293Y-79354621D01*
X113547768Y-79362792D01*
X113484021Y-79331538D01*
X113463324Y-79307054D01*
X113382822Y-79182617D01*
X113382820Y-79182614D01*
X113380014Y-79178277D01*
X113229670Y-79013051D01*
X113225619Y-79009852D01*
X113225615Y-79009848D01*
X113058414Y-78877800D01*
X113058410Y-78877798D01*
X113054359Y-78874598D01*
X112858789Y-78766638D01*
X112853920Y-78764914D01*
X112853916Y-78764912D01*
X112653087Y-78693795D01*
X112653083Y-78693794D01*
X112648212Y-78692069D01*
X112643119Y-78691162D01*
X112643116Y-78691161D01*
X112433373Y-78653800D01*
X112433367Y-78653799D01*
X112428284Y-78652894D01*
X112354452Y-78651992D01*
X112210081Y-78650228D01*
X112210079Y-78650228D01*
X112204911Y-78650165D01*
X111984091Y-78683955D01*
X111771756Y-78753357D01*
X111573607Y-78856507D01*
X111569474Y-78859610D01*
X111569471Y-78859612D01*
X111545247Y-78877800D01*
X111394965Y-78990635D01*
X111240629Y-79152138D01*
X111133201Y-79309621D01*
X111078293Y-79354621D01*
X111007768Y-79362792D01*
X110944021Y-79331538D01*
X110923324Y-79307054D01*
X110842822Y-79182617D01*
X110842820Y-79182614D01*
X110840014Y-79178277D01*
X110689670Y-79013051D01*
X110685619Y-79009852D01*
X110685615Y-79009848D01*
X110518414Y-78877800D01*
X110518410Y-78877798D01*
X110514359Y-78874598D01*
X110318789Y-78766638D01*
X110313920Y-78764914D01*
X110313916Y-78764912D01*
X110113087Y-78693795D01*
X110113083Y-78693794D01*
X110108212Y-78692069D01*
X110103119Y-78691162D01*
X110103116Y-78691161D01*
X109893373Y-78653800D01*
X109893367Y-78653799D01*
X109888284Y-78652894D01*
X109814452Y-78651992D01*
X109670081Y-78650228D01*
X109670079Y-78650228D01*
X109664911Y-78650165D01*
X109444091Y-78683955D01*
X109231756Y-78753357D01*
X109033607Y-78856507D01*
X109029474Y-78859610D01*
X109029471Y-78859612D01*
X109005247Y-78877800D01*
X108854965Y-78990635D01*
X108700629Y-79152138D01*
X108593201Y-79309621D01*
X108538293Y-79354621D01*
X108467768Y-79362792D01*
X108404021Y-79331538D01*
X108383324Y-79307054D01*
X108302822Y-79182617D01*
X108302820Y-79182614D01*
X108300014Y-79178277D01*
X108149670Y-79013051D01*
X108145619Y-79009852D01*
X108145615Y-79009848D01*
X107978414Y-78877800D01*
X107978410Y-78877798D01*
X107974359Y-78874598D01*
X107778789Y-78766638D01*
X107773920Y-78764914D01*
X107773916Y-78764912D01*
X107573087Y-78693795D01*
X107573083Y-78693794D01*
X107568212Y-78692069D01*
X107563119Y-78691162D01*
X107563116Y-78691161D01*
X107353373Y-78653800D01*
X107353367Y-78653799D01*
X107348284Y-78652894D01*
X107274452Y-78651992D01*
X107130081Y-78650228D01*
X107130079Y-78650228D01*
X107124911Y-78650165D01*
X106904091Y-78683955D01*
X106691756Y-78753357D01*
X106493607Y-78856507D01*
X106489474Y-78859610D01*
X106489471Y-78859612D01*
X106465247Y-78877800D01*
X106314965Y-78990635D01*
X106160629Y-79152138D01*
X106053201Y-79309621D01*
X105998293Y-79354621D01*
X105927768Y-79362792D01*
X105864021Y-79331538D01*
X105843324Y-79307054D01*
X105762822Y-79182617D01*
X105762820Y-79182614D01*
X105760014Y-79178277D01*
X105609670Y-79013051D01*
X105605619Y-79009852D01*
X105605615Y-79009848D01*
X105438414Y-78877800D01*
X105438410Y-78877798D01*
X105434359Y-78874598D01*
X105238789Y-78766638D01*
X105233920Y-78764914D01*
X105233916Y-78764912D01*
X105033087Y-78693795D01*
X105033083Y-78693794D01*
X105028212Y-78692069D01*
X105023119Y-78691162D01*
X105023116Y-78691161D01*
X104813373Y-78653800D01*
X104813367Y-78653799D01*
X104808284Y-78652894D01*
X104734452Y-78651992D01*
X104590081Y-78650228D01*
X104590079Y-78650228D01*
X104584911Y-78650165D01*
X104364091Y-78683955D01*
X104151756Y-78753357D01*
X103953607Y-78856507D01*
X103949474Y-78859610D01*
X103949471Y-78859612D01*
X103925247Y-78877800D01*
X103774965Y-78990635D01*
X103620629Y-79152138D01*
X103513201Y-79309621D01*
X103458293Y-79354621D01*
X103387768Y-79362792D01*
X103324021Y-79331538D01*
X103303324Y-79307054D01*
X103222822Y-79182617D01*
X103222820Y-79182614D01*
X103220014Y-79178277D01*
X103069670Y-79013051D01*
X103065619Y-79009852D01*
X103065615Y-79009848D01*
X102898414Y-78877800D01*
X102898410Y-78877798D01*
X102894359Y-78874598D01*
X102698789Y-78766638D01*
X102693920Y-78764914D01*
X102693916Y-78764912D01*
X102493087Y-78693795D01*
X102493083Y-78693794D01*
X102488212Y-78692069D01*
X102483119Y-78691162D01*
X102483116Y-78691161D01*
X102273373Y-78653800D01*
X102273367Y-78653799D01*
X102268284Y-78652894D01*
X102194452Y-78651992D01*
X102050081Y-78650228D01*
X102050079Y-78650228D01*
X102044911Y-78650165D01*
X101824091Y-78683955D01*
X101611756Y-78753357D01*
X101413607Y-78856507D01*
X101409474Y-78859610D01*
X101409471Y-78859612D01*
X101385247Y-78877800D01*
X101234965Y-78990635D01*
X101080629Y-79152138D01*
X100973201Y-79309621D01*
X100918293Y-79354621D01*
X100847768Y-79362792D01*
X100784021Y-79331538D01*
X100763324Y-79307054D01*
X100682822Y-79182617D01*
X100682820Y-79182614D01*
X100680014Y-79178277D01*
X100529670Y-79013051D01*
X100525619Y-79009852D01*
X100525615Y-79009848D01*
X100358414Y-78877800D01*
X100358410Y-78877798D01*
X100354359Y-78874598D01*
X100158789Y-78766638D01*
X100153920Y-78764914D01*
X100153916Y-78764912D01*
X99953087Y-78693795D01*
X99953083Y-78693794D01*
X99948212Y-78692069D01*
X99943119Y-78691162D01*
X99943116Y-78691161D01*
X99733373Y-78653800D01*
X99733367Y-78653799D01*
X99728284Y-78652894D01*
X99654452Y-78651992D01*
X99510081Y-78650228D01*
X99510079Y-78650228D01*
X99504911Y-78650165D01*
X99284091Y-78683955D01*
X99071756Y-78753357D01*
X98873607Y-78856507D01*
X98869474Y-78859610D01*
X98869471Y-78859612D01*
X98845247Y-78877800D01*
X98694965Y-78990635D01*
X98540629Y-79152138D01*
X98433201Y-79309621D01*
X98378293Y-79354621D01*
X98307768Y-79362792D01*
X98244021Y-79331538D01*
X98223324Y-79307054D01*
X98142822Y-79182617D01*
X98142820Y-79182614D01*
X98140014Y-79178277D01*
X97989670Y-79013051D01*
X97985619Y-79009852D01*
X97985615Y-79009848D01*
X97818414Y-78877800D01*
X97818410Y-78877798D01*
X97814359Y-78874598D01*
X97618789Y-78766638D01*
X97613920Y-78764914D01*
X97613916Y-78764912D01*
X97413087Y-78693795D01*
X97413083Y-78693794D01*
X97408212Y-78692069D01*
X97403119Y-78691162D01*
X97403116Y-78691161D01*
X97193373Y-78653800D01*
X97193367Y-78653799D01*
X97188284Y-78652894D01*
X97114452Y-78651992D01*
X96970081Y-78650228D01*
X96970079Y-78650228D01*
X96964911Y-78650165D01*
X96744091Y-78683955D01*
X96531756Y-78753357D01*
X96333607Y-78856507D01*
X96329474Y-78859610D01*
X96329471Y-78859612D01*
X96305247Y-78877800D01*
X96154965Y-78990635D01*
X96000629Y-79152138D01*
X95874743Y-79336680D01*
X95780688Y-79539305D01*
X95720989Y-79754570D01*
X95697251Y-79976695D01*
X80518500Y-79976695D01*
X80518500Y-76783359D01*
X84081386Y-76783359D01*
X84090099Y-76794879D01*
X84178586Y-76859760D01*
X84186505Y-76864708D01*
X84402877Y-76978547D01*
X84411451Y-76982275D01*
X84642282Y-77062885D01*
X84651291Y-77065299D01*
X84891518Y-77110908D01*
X84900775Y-77111962D01*
X85145107Y-77121563D01*
X85154420Y-77121237D01*
X85397478Y-77094618D01*
X85406655Y-77092917D01*
X85643107Y-77030665D01*
X85651926Y-77027628D01*
X85876584Y-76931107D01*
X85884856Y-76926800D01*
X86092777Y-76798135D01*
X86094620Y-76796796D01*
X86102038Y-76785541D01*
X86095974Y-76775184D01*
X85102812Y-75782022D01*
X85088868Y-75774408D01*
X85087035Y-75774539D01*
X85080420Y-75778790D01*
X84088044Y-76771166D01*
X84081386Y-76783359D01*
X80518500Y-76783359D01*
X80518500Y-75369835D01*
X83378022Y-75369835D01*
X83389754Y-75614064D01*
X83390891Y-75623324D01*
X83438593Y-75863143D01*
X83441082Y-75872118D01*
X83523708Y-76102250D01*
X83527505Y-76110778D01*
X83643234Y-76326160D01*
X83648245Y-76334027D01*
X83705173Y-76410263D01*
X83716431Y-76418712D01*
X83728850Y-76411940D01*
X84717978Y-75422812D01*
X84724356Y-75411132D01*
X85454408Y-75411132D01*
X85454539Y-75412965D01*
X85458790Y-75419580D01*
X86453732Y-76414522D01*
X86466112Y-76421282D01*
X86474453Y-76415038D01*
X86592700Y-76231202D01*
X86597147Y-76223011D01*
X86697572Y-76000076D01*
X86700767Y-75991298D01*
X86767135Y-75755973D01*
X86768993Y-75746844D01*
X86778978Y-75668359D01*
X125666386Y-75668359D01*
X125675099Y-75679879D01*
X125763586Y-75744760D01*
X125771505Y-75749708D01*
X125987877Y-75863547D01*
X125996451Y-75867275D01*
X126227282Y-75947885D01*
X126236291Y-75950299D01*
X126476518Y-75995908D01*
X126485775Y-75996962D01*
X126730107Y-76006563D01*
X126739420Y-76006237D01*
X126982478Y-75979618D01*
X126991655Y-75977917D01*
X127228107Y-75915665D01*
X127236926Y-75912628D01*
X127461584Y-75816107D01*
X127469856Y-75811800D01*
X127677777Y-75683135D01*
X127679620Y-75681796D01*
X127687038Y-75670541D01*
X127680974Y-75660184D01*
X126687812Y-74667022D01*
X126673868Y-74659408D01*
X126672035Y-74659539D01*
X126665420Y-74663790D01*
X125673044Y-75656166D01*
X125666386Y-75668359D01*
X86778978Y-75668359D01*
X86800044Y-75502770D01*
X86800525Y-75496483D01*
X86802706Y-75413160D01*
X86802555Y-75406851D01*
X86784321Y-75161486D01*
X86782944Y-75152280D01*
X86728979Y-74913786D01*
X86726255Y-74904875D01*
X86637633Y-74676983D01*
X86633619Y-74668567D01*
X86512284Y-74456276D01*
X86507074Y-74448553D01*
X86475787Y-74408865D01*
X86463863Y-74400395D01*
X86452328Y-74406882D01*
X85462022Y-75397188D01*
X85454408Y-75411132D01*
X84724356Y-75411132D01*
X84725592Y-75408868D01*
X84725461Y-75407035D01*
X84721210Y-75400420D01*
X83726828Y-74406038D01*
X83713520Y-74398771D01*
X83703481Y-74405893D01*
X83698581Y-74411784D01*
X83693168Y-74419373D01*
X83566322Y-74628409D01*
X83562084Y-74636726D01*
X83467529Y-74862214D01*
X83464572Y-74871052D01*
X83404384Y-75108042D01*
X83402763Y-75117232D01*
X83378267Y-75360510D01*
X83378022Y-75369835D01*
X80518500Y-75369835D01*
X80518500Y-73158134D01*
X83381500Y-73158134D01*
X83388255Y-73220316D01*
X83439385Y-73356705D01*
X83526739Y-73473261D01*
X83643295Y-73560615D01*
X83779684Y-73611745D01*
X83841866Y-73618500D01*
X84321914Y-73618500D01*
X84390035Y-73638502D01*
X84436528Y-73692158D01*
X84446632Y-73762432D01*
X84417138Y-73827012D01*
X84374665Y-73858926D01*
X84263869Y-73910004D01*
X84255714Y-73914524D01*
X84088468Y-74024175D01*
X84079330Y-74034917D01*
X84083903Y-74044693D01*
X85077188Y-75037978D01*
X85091132Y-75045592D01*
X85092965Y-75045461D01*
X85099580Y-75041210D01*
X85885955Y-74254835D01*
X124963022Y-74254835D01*
X124974754Y-74499064D01*
X124975891Y-74508324D01*
X125023593Y-74748143D01*
X125026082Y-74757118D01*
X125108708Y-74987250D01*
X125112505Y-74995778D01*
X125228234Y-75211160D01*
X125233245Y-75219027D01*
X125290173Y-75295263D01*
X125301431Y-75303712D01*
X125313850Y-75296940D01*
X126302978Y-74307812D01*
X126310592Y-74293868D01*
X126310461Y-74292035D01*
X126306210Y-74285420D01*
X125311828Y-73291038D01*
X125298520Y-73283771D01*
X125288481Y-73290893D01*
X125283581Y-73296784D01*
X125278168Y-73304373D01*
X125151322Y-73513409D01*
X125147084Y-73521726D01*
X125052529Y-73747214D01*
X125049572Y-73756052D01*
X124989384Y-73993042D01*
X124987763Y-74002232D01*
X124963267Y-74245510D01*
X124963022Y-74254835D01*
X85885955Y-74254835D01*
X86092488Y-74048302D01*
X86098872Y-74036612D01*
X86089460Y-74024502D01*
X85963144Y-73936873D01*
X85955116Y-73932145D01*
X85803763Y-73857506D01*
X85751514Y-73809438D01*
X85733547Y-73740752D01*
X85755566Y-73673257D01*
X85810581Y-73628380D01*
X85859491Y-73618500D01*
X86338134Y-73618500D01*
X86400316Y-73611745D01*
X86536705Y-73560615D01*
X86653261Y-73473261D01*
X86740615Y-73356705D01*
X86791745Y-73220316D01*
X86798500Y-73158134D01*
X86798500Y-72522695D01*
X103285251Y-72522695D01*
X103285548Y-72527848D01*
X103285548Y-72527851D01*
X103295023Y-72692169D01*
X103298110Y-72745715D01*
X103299247Y-72750761D01*
X103299248Y-72750767D01*
X103314576Y-72818779D01*
X103347222Y-72963639D01*
X103385461Y-73057811D01*
X103426198Y-73158134D01*
X103431266Y-73170616D01*
X103433965Y-73175020D01*
X103540149Y-73348297D01*
X103547987Y-73361088D01*
X103694250Y-73529938D01*
X103866126Y-73672632D01*
X104059000Y-73785338D01*
X104267692Y-73865030D01*
X104272760Y-73866061D01*
X104272763Y-73866062D01*
X104380017Y-73887883D01*
X104486597Y-73909567D01*
X104491772Y-73909757D01*
X104491774Y-73909757D01*
X104704673Y-73917564D01*
X104704677Y-73917564D01*
X104709837Y-73917753D01*
X104714957Y-73917097D01*
X104714959Y-73917097D01*
X104926288Y-73890025D01*
X104926289Y-73890025D01*
X104931416Y-73889368D01*
X104936366Y-73887883D01*
X105140429Y-73826661D01*
X105140434Y-73826659D01*
X105145384Y-73825174D01*
X105345994Y-73726896D01*
X105527860Y-73597173D01*
X105559505Y-73565639D01*
X105682435Y-73443137D01*
X105686096Y-73439489D01*
X105745594Y-73356689D01*
X105813435Y-73262277D01*
X105816453Y-73258077D01*
X105867537Y-73154717D01*
X105913136Y-73062453D01*
X105913137Y-73062451D01*
X105915430Y-73057811D01*
X105957325Y-72919917D01*
X125664330Y-72919917D01*
X125668903Y-72929693D01*
X126662188Y-73922978D01*
X126676132Y-73930592D01*
X126677965Y-73930461D01*
X126684580Y-73926210D01*
X127677488Y-72933302D01*
X127683872Y-72921612D01*
X127674460Y-72909502D01*
X127548144Y-72821873D01*
X127540116Y-72817145D01*
X127320810Y-72708995D01*
X127312177Y-72705507D01*
X127079288Y-72630958D01*
X127070238Y-72628785D01*
X126828891Y-72589480D01*
X126819602Y-72588668D01*
X126575114Y-72585467D01*
X126565803Y-72586037D01*
X126323522Y-72619010D01*
X126314403Y-72620948D01*
X126079668Y-72689367D01*
X126070915Y-72692639D01*
X125848869Y-72795004D01*
X125840714Y-72799524D01*
X125673468Y-72909175D01*
X125664330Y-72919917D01*
X105957325Y-72919917D01*
X105960589Y-72909175D01*
X105978865Y-72849023D01*
X105978865Y-72849021D01*
X105980370Y-72844069D01*
X106009529Y-72622590D01*
X106009613Y-72619149D01*
X106011074Y-72559365D01*
X106011074Y-72559361D01*
X106011156Y-72556000D01*
X105992852Y-72333361D01*
X105938431Y-72116702D01*
X105849354Y-71911840D01*
X105728014Y-71724277D01*
X105577670Y-71559051D01*
X105573619Y-71555852D01*
X105573615Y-71555848D01*
X105406414Y-71423800D01*
X105406410Y-71423798D01*
X105402359Y-71420598D01*
X105360569Y-71397529D01*
X105310598Y-71347097D01*
X105295826Y-71277654D01*
X105320942Y-71211248D01*
X105348293Y-71184642D01*
X105397247Y-71149723D01*
X105405648Y-71139023D01*
X105398660Y-71125870D01*
X104660812Y-70388022D01*
X104646868Y-70380408D01*
X104645035Y-70380539D01*
X104638420Y-70384790D01*
X103894737Y-71128473D01*
X103887977Y-71140853D01*
X103893258Y-71147907D01*
X103939969Y-71175203D01*
X103988693Y-71226841D01*
X104001764Y-71296624D01*
X103975033Y-71362396D01*
X103934584Y-71395752D01*
X103921607Y-71402507D01*
X103917474Y-71405610D01*
X103917471Y-71405612D01*
X103893247Y-71423800D01*
X103742965Y-71536635D01*
X103588629Y-71698138D01*
X103462743Y-71882680D01*
X103368688Y-72085305D01*
X103308989Y-72300570D01*
X103285251Y-72522695D01*
X86798500Y-72522695D01*
X86798500Y-70661866D01*
X86791745Y-70599684D01*
X86740615Y-70463295D01*
X86653261Y-70346739D01*
X86536705Y-70259385D01*
X86400316Y-70208255D01*
X86338134Y-70201500D01*
X83841866Y-70201500D01*
X83779684Y-70208255D01*
X83643295Y-70259385D01*
X83526739Y-70346739D01*
X83439385Y-70463295D01*
X83388255Y-70599684D01*
X83381500Y-70661866D01*
X83381500Y-73158134D01*
X80518500Y-73158134D01*
X80518500Y-69987863D01*
X103286050Y-69987863D01*
X103298309Y-70200477D01*
X103299745Y-70210697D01*
X103346565Y-70418446D01*
X103349645Y-70428275D01*
X103429770Y-70625603D01*
X103434413Y-70634794D01*
X103514460Y-70765420D01*
X103524916Y-70774880D01*
X103533694Y-70771096D01*
X104275978Y-70028812D01*
X104282356Y-70017132D01*
X105012408Y-70017132D01*
X105012539Y-70018965D01*
X105016790Y-70025580D01*
X105758474Y-70767264D01*
X105770484Y-70773823D01*
X105782223Y-70764855D01*
X105813004Y-70722019D01*
X105818315Y-70713180D01*
X105912670Y-70522267D01*
X105916469Y-70512672D01*
X105978376Y-70308915D01*
X105980555Y-70298834D01*
X106008590Y-70085887D01*
X106009109Y-70079212D01*
X106010572Y-70019364D01*
X106010378Y-70012646D01*
X105992781Y-69798604D01*
X105991096Y-69788424D01*
X105939214Y-69581875D01*
X105935894Y-69572124D01*
X105850972Y-69376814D01*
X105846105Y-69367739D01*
X105781063Y-69267197D01*
X105770377Y-69257995D01*
X105760812Y-69262398D01*
X105020022Y-70003188D01*
X105012408Y-70017132D01*
X104282356Y-70017132D01*
X104283592Y-70014868D01*
X104283461Y-70013035D01*
X104279210Y-70006420D01*
X103537849Y-69265059D01*
X103526313Y-69258759D01*
X103514031Y-69268382D01*
X103466089Y-69338662D01*
X103461004Y-69347613D01*
X103371338Y-69540783D01*
X103367775Y-69550470D01*
X103310864Y-69755681D01*
X103308933Y-69765800D01*
X103286302Y-69977574D01*
X103286050Y-69987863D01*
X80518500Y-69987863D01*
X80518500Y-65913000D01*
X80771738Y-65913000D01*
X80790767Y-66215462D01*
X80847555Y-66513154D01*
X80941206Y-66801381D01*
X80942893Y-66804967D01*
X80942895Y-66804971D01*
X80953493Y-66827492D01*
X81070242Y-67075598D01*
X81232630Y-67331480D01*
X81425808Y-67564992D01*
X81646729Y-67772450D01*
X81891910Y-67950584D01*
X81895379Y-67952491D01*
X81895382Y-67952493D01*
X82154014Y-68094678D01*
X82157483Y-68096585D01*
X82161152Y-68098038D01*
X82161157Y-68098040D01*
X82351591Y-68173438D01*
X82439261Y-68208149D01*
X82732800Y-68283516D01*
X83033470Y-68321500D01*
X83336530Y-68321500D01*
X83637200Y-68283516D01*
X83930739Y-68208149D01*
X84018409Y-68173438D01*
X84208843Y-68098040D01*
X84208848Y-68098038D01*
X84212517Y-68096585D01*
X84215986Y-68094678D01*
X84474618Y-67952493D01*
X84474621Y-67952491D01*
X84478090Y-67950584D01*
X84723271Y-67772450D01*
X84944192Y-67564992D01*
X85045365Y-67442695D01*
X103285251Y-67442695D01*
X103285548Y-67447848D01*
X103285548Y-67447851D01*
X103291011Y-67542590D01*
X103298110Y-67665715D01*
X103299247Y-67670761D01*
X103299248Y-67670767D01*
X103319119Y-67758939D01*
X103347222Y-67883639D01*
X103431266Y-68090616D01*
X103547987Y-68281088D01*
X103694250Y-68449938D01*
X103866126Y-68592632D01*
X103939955Y-68635774D01*
X103988679Y-68687412D01*
X104001750Y-68757195D01*
X103975019Y-68822967D01*
X103934562Y-68856327D01*
X103926460Y-68860544D01*
X103917734Y-68866039D01*
X103897677Y-68881099D01*
X103889223Y-68892427D01*
X103895968Y-68904758D01*
X104635188Y-69643978D01*
X104649132Y-69651592D01*
X104650965Y-69651461D01*
X104657580Y-69647210D01*
X105401389Y-68903401D01*
X105408410Y-68890544D01*
X105401611Y-68881213D01*
X105397559Y-68878521D01*
X105360602Y-68858120D01*
X105310631Y-68807687D01*
X105295859Y-68738245D01*
X105320975Y-68671839D01*
X105348327Y-68645232D01*
X105371797Y-68628491D01*
X105527860Y-68517173D01*
X105686096Y-68359489D01*
X105745594Y-68276689D01*
X105813435Y-68182277D01*
X105816453Y-68178077D01*
X105915430Y-67977811D01*
X105980370Y-67764069D01*
X106009529Y-67542590D01*
X106011156Y-67476000D01*
X105992852Y-67253361D01*
X105938431Y-67036702D01*
X105849354Y-66831840D01*
X105728014Y-66644277D01*
X105577670Y-66479051D01*
X105573619Y-66475852D01*
X105573615Y-66475848D01*
X105406414Y-66343800D01*
X105406410Y-66343798D01*
X105402359Y-66340598D01*
X105361053Y-66317796D01*
X105311084Y-66267364D01*
X105296312Y-66197921D01*
X105321428Y-66131516D01*
X105348780Y-66104909D01*
X105392603Y-66073650D01*
X105527860Y-65977173D01*
X105592258Y-65913000D01*
X132603738Y-65913000D01*
X132622767Y-66215462D01*
X132679555Y-66513154D01*
X132773206Y-66801381D01*
X132774893Y-66804967D01*
X132774895Y-66804971D01*
X132785493Y-66827492D01*
X132902242Y-67075598D01*
X133064630Y-67331480D01*
X133257808Y-67564992D01*
X133478729Y-67772450D01*
X133723910Y-67950584D01*
X133727379Y-67952491D01*
X133727382Y-67952493D01*
X133986014Y-68094678D01*
X133989483Y-68096585D01*
X133993152Y-68098038D01*
X133993157Y-68098040D01*
X134183591Y-68173438D01*
X134271261Y-68208149D01*
X134564800Y-68283516D01*
X134865470Y-68321500D01*
X135168530Y-68321500D01*
X135469200Y-68283516D01*
X135762739Y-68208149D01*
X135850409Y-68173438D01*
X136040843Y-68098040D01*
X136040848Y-68098038D01*
X136044517Y-68096585D01*
X136047986Y-68094678D01*
X136306618Y-67952493D01*
X136306621Y-67952491D01*
X136310090Y-67950584D01*
X136555271Y-67772450D01*
X136776192Y-67564992D01*
X136969370Y-67331480D01*
X137131758Y-67075598D01*
X137248507Y-66827492D01*
X137259105Y-66804971D01*
X137259107Y-66804967D01*
X137260794Y-66801381D01*
X137354445Y-66513154D01*
X137411233Y-66215462D01*
X137430262Y-65913000D01*
X137411233Y-65610538D01*
X137354445Y-65312846D01*
X137260794Y-65024619D01*
X137251990Y-65005908D01*
X137133445Y-64753988D01*
X137131758Y-64750402D01*
X136969370Y-64494520D01*
X136776192Y-64261008D01*
X136555271Y-64053550D01*
X136310090Y-63875416D01*
X136146739Y-63785612D01*
X136047986Y-63731322D01*
X136047985Y-63731321D01*
X136044517Y-63729415D01*
X136040848Y-63727962D01*
X136040843Y-63727960D01*
X135766409Y-63619304D01*
X135766408Y-63619304D01*
X135762739Y-63617851D01*
X135469200Y-63542484D01*
X135168530Y-63504500D01*
X134865470Y-63504500D01*
X134564800Y-63542484D01*
X134271261Y-63617851D01*
X134267592Y-63619304D01*
X134267591Y-63619304D01*
X133993157Y-63727960D01*
X133993152Y-63727962D01*
X133989483Y-63729415D01*
X133986015Y-63731321D01*
X133986014Y-63731322D01*
X133887262Y-63785612D01*
X133723910Y-63875416D01*
X133478729Y-64053550D01*
X133257808Y-64261008D01*
X133064630Y-64494520D01*
X132902242Y-64750402D01*
X132900555Y-64753988D01*
X132782011Y-65005908D01*
X132773206Y-65024619D01*
X132679555Y-65312846D01*
X132622767Y-65610538D01*
X132603738Y-65913000D01*
X105592258Y-65913000D01*
X105686096Y-65819489D01*
X105745594Y-65736689D01*
X105813435Y-65642277D01*
X105816453Y-65638077D01*
X105915430Y-65437811D01*
X105980370Y-65224069D01*
X106009529Y-65002590D01*
X106011156Y-64936000D01*
X105992852Y-64713361D01*
X105938431Y-64496702D01*
X105849354Y-64291840D01*
X105728014Y-64104277D01*
X105577670Y-63939051D01*
X105573619Y-63935852D01*
X105573615Y-63935848D01*
X105406414Y-63803800D01*
X105406410Y-63803798D01*
X105402359Y-63800598D01*
X105206789Y-63692638D01*
X105201920Y-63690914D01*
X105201916Y-63690912D01*
X105001087Y-63619795D01*
X105001083Y-63619794D01*
X104996212Y-63618069D01*
X104991119Y-63617162D01*
X104991116Y-63617161D01*
X104781373Y-63579800D01*
X104781367Y-63579799D01*
X104776284Y-63578894D01*
X104702452Y-63577992D01*
X104558081Y-63576228D01*
X104558079Y-63576228D01*
X104552911Y-63576165D01*
X104332091Y-63609955D01*
X104119756Y-63679357D01*
X103921607Y-63782507D01*
X103917474Y-63785610D01*
X103917471Y-63785612D01*
X103794764Y-63877743D01*
X103742965Y-63916635D01*
X103739393Y-63920373D01*
X103614351Y-64051222D01*
X103588629Y-64078138D01*
X103462743Y-64262680D01*
X103368688Y-64465305D01*
X103308989Y-64680570D01*
X103285251Y-64902695D01*
X103285548Y-64907848D01*
X103285548Y-64907851D01*
X103297812Y-65120547D01*
X103298110Y-65125715D01*
X103299247Y-65130761D01*
X103299248Y-65130767D01*
X103319119Y-65218939D01*
X103347222Y-65343639D01*
X103431266Y-65550616D01*
X103547987Y-65741088D01*
X103694250Y-65909938D01*
X103866126Y-66052632D01*
X103936595Y-66093811D01*
X103939445Y-66095476D01*
X103988169Y-66147114D01*
X104001240Y-66216897D01*
X103974509Y-66282669D01*
X103934055Y-66316027D01*
X103921607Y-66322507D01*
X103917474Y-66325610D01*
X103917471Y-66325612D01*
X103893247Y-66343800D01*
X103742965Y-66456635D01*
X103588629Y-66618138D01*
X103462743Y-66802680D01*
X103368688Y-67005305D01*
X103308989Y-67220570D01*
X103285251Y-67442695D01*
X85045365Y-67442695D01*
X85137370Y-67331480D01*
X85299758Y-67075598D01*
X85416507Y-66827492D01*
X85427105Y-66804971D01*
X85427107Y-66804967D01*
X85428794Y-66801381D01*
X85522445Y-66513154D01*
X85579233Y-66215462D01*
X85598262Y-65913000D01*
X85579233Y-65610538D01*
X85522445Y-65312846D01*
X85428794Y-65024619D01*
X85419990Y-65005908D01*
X85301445Y-64753988D01*
X85299758Y-64750402D01*
X85137370Y-64494520D01*
X84944192Y-64261008D01*
X84723271Y-64053550D01*
X84478090Y-63875416D01*
X84314739Y-63785612D01*
X84215986Y-63731322D01*
X84215985Y-63731321D01*
X84212517Y-63729415D01*
X84208848Y-63727962D01*
X84208843Y-63727960D01*
X83934409Y-63619304D01*
X83934408Y-63619304D01*
X83930739Y-63617851D01*
X83637200Y-63542484D01*
X83336530Y-63504500D01*
X83033470Y-63504500D01*
X82732800Y-63542484D01*
X82439261Y-63617851D01*
X82435592Y-63619304D01*
X82435591Y-63619304D01*
X82161157Y-63727960D01*
X82161152Y-63727962D01*
X82157483Y-63729415D01*
X82154015Y-63731321D01*
X82154014Y-63731322D01*
X82055262Y-63785612D01*
X81891910Y-63875416D01*
X81646729Y-64053550D01*
X81425808Y-64261008D01*
X81232630Y-64494520D01*
X81070242Y-64750402D01*
X81068555Y-64753988D01*
X80950011Y-65005908D01*
X80941206Y-65024619D01*
X80847555Y-65312846D01*
X80790767Y-65610538D01*
X80771738Y-65913000D01*
X80518500Y-65913000D01*
X80518500Y-63120500D01*
X80538502Y-63052379D01*
X80592158Y-63005886D01*
X80644500Y-62994500D01*
X137795500Y-62994500D01*
X137863621Y-63014502D01*
G37*
%TD.AperFunction*%
%TA.AperFunction,Conductor*%
G36*
X130635618Y-108263502D02*
G01*
X130682111Y-108317158D01*
X130692215Y-108387432D01*
X130662721Y-108452012D01*
X130656592Y-108458595D01*
X128660592Y-110454595D01*
X128598280Y-110488621D01*
X128571497Y-110491500D01*
X113628503Y-110491500D01*
X113560382Y-110471498D01*
X113539408Y-110454595D01*
X113099474Y-110014661D01*
X113065448Y-109952349D01*
X113062607Y-109922491D01*
X113063074Y-109903368D01*
X113063074Y-109903363D01*
X113063156Y-109900000D01*
X113044852Y-109677361D01*
X112990431Y-109460702D01*
X112901354Y-109255840D01*
X112834795Y-109152955D01*
X112782822Y-109072617D01*
X112782820Y-109072614D01*
X112780014Y-109068277D01*
X112629670Y-108903051D01*
X112625619Y-108899852D01*
X112625615Y-108899848D01*
X112458414Y-108767800D01*
X112458410Y-108767798D01*
X112454359Y-108764598D01*
X112413053Y-108741796D01*
X112363084Y-108691364D01*
X112348312Y-108621921D01*
X112373428Y-108555516D01*
X112400780Y-108528909D01*
X112463415Y-108484232D01*
X112579860Y-108401173D01*
X112701208Y-108280249D01*
X112763579Y-108246333D01*
X112790147Y-108243500D01*
X130567497Y-108243500D01*
X130635618Y-108263502D01*
G37*
%TD.AperFunction*%
%TD*%
M02*
