%TF.GenerationSoftware,KiCad,Pcbnew,(6.0.8-1)-1*%
%TF.CreationDate,2022-12-25T14:42:41-06:00*%
%TF.ProjectId,M4_CAN_Feather_Carrier,4d345f43-414e-45f4-9665-61746865725f,rev?*%
%TF.SameCoordinates,Original*%
%TF.FileFunction,Drillmap*%
%TF.FilePolarity,Positive*%
%FSLAX45Y45*%
G04 Gerber Fmt 4.5, Leading zero omitted, Abs format (unit mm)*
G04 Created by KiCad (PCBNEW (6.0.8-1)-1) date 2022-12-25 14:42:41*
%MOMM*%
%LPD*%
G01*
G04 APERTURE LIST*
%ADD10C,0.001000*%
%ADD11C,0.200000*%
G04 APERTURE END LIST*
D10*
X8001000Y-6248600D02*
X13843000Y-6248600D01*
X13843000Y-6248600D02*
X13843000Y-11265100D01*
X13843000Y-11265100D02*
X8001000Y-11265100D01*
X8001000Y-11265100D02*
X8001000Y-6248600D01*
D11*
X8258569Y-11575626D02*
X8258569Y-11375626D01*
X8306188Y-11375626D01*
X8334759Y-11385150D01*
X8353807Y-11404198D01*
X8363331Y-11423245D01*
X8372855Y-11461340D01*
X8372855Y-11489912D01*
X8363331Y-11528007D01*
X8353807Y-11547055D01*
X8334759Y-11566102D01*
X8306188Y-11575626D01*
X8258569Y-11575626D01*
X8458569Y-11575626D02*
X8458569Y-11442293D01*
X8458569Y-11480388D02*
X8468093Y-11461340D01*
X8477617Y-11451817D01*
X8496664Y-11442293D01*
X8515712Y-11442293D01*
X8582379Y-11575626D02*
X8582379Y-11442293D01*
X8582379Y-11375626D02*
X8572855Y-11385150D01*
X8582379Y-11394674D01*
X8591902Y-11385150D01*
X8582379Y-11375626D01*
X8582379Y-11394674D01*
X8706188Y-11575626D02*
X8687140Y-11566102D01*
X8677617Y-11547055D01*
X8677617Y-11375626D01*
X8810950Y-11575626D02*
X8791902Y-11566102D01*
X8782379Y-11547055D01*
X8782379Y-11375626D01*
X9039521Y-11575626D02*
X9039521Y-11375626D01*
X9106188Y-11518483D01*
X9172855Y-11375626D01*
X9172855Y-11575626D01*
X9353807Y-11575626D02*
X9353807Y-11470864D01*
X9344283Y-11451817D01*
X9325236Y-11442293D01*
X9287140Y-11442293D01*
X9268093Y-11451817D01*
X9353807Y-11566102D02*
X9334760Y-11575626D01*
X9287140Y-11575626D01*
X9268093Y-11566102D01*
X9258569Y-11547055D01*
X9258569Y-11528007D01*
X9268093Y-11508959D01*
X9287140Y-11499436D01*
X9334760Y-11499436D01*
X9353807Y-11489912D01*
X9449045Y-11442293D02*
X9449045Y-11642293D01*
X9449045Y-11451817D02*
X9468093Y-11442293D01*
X9506188Y-11442293D01*
X9525236Y-11451817D01*
X9534760Y-11461340D01*
X9544283Y-11480388D01*
X9544283Y-11537531D01*
X9534760Y-11556578D01*
X9525236Y-11566102D01*
X9506188Y-11575626D01*
X9468093Y-11575626D01*
X9449045Y-11566102D01*
X9629998Y-11556578D02*
X9639521Y-11566102D01*
X9629998Y-11575626D01*
X9620474Y-11566102D01*
X9629998Y-11556578D01*
X9629998Y-11575626D01*
X9629998Y-11451817D02*
X9639521Y-11461340D01*
X9629998Y-11470864D01*
X9620474Y-11461340D01*
X9629998Y-11451817D01*
X9629998Y-11470864D01*
M02*
