%TF.GenerationSoftware,KiCad,Pcbnew,(6.0.8-1)-1*%
%TF.CreationDate,2022-12-25T14:42:34-06:00*%
%TF.ProjectId,M4_CAN_Feather_Carrier,4d345f43-414e-45f4-9665-61746865725f,rev?*%
%TF.SameCoordinates,Original*%
%TF.FileFunction,Paste,Top*%
%TF.FilePolarity,Positive*%
%FSLAX46Y46*%
G04 Gerber Fmt 4.6, Leading zero omitted, Abs format (unit mm)*
G04 Created by KiCad (PCBNEW (6.0.8-1)-1) date 2022-12-25 14:42:34*
%MOMM*%
%LPD*%
G01*
G04 APERTURE LIST*
G04 Aperture macros list*
%AMRoundRect*
0 Rectangle with rounded corners*
0 $1 Rounding radius*
0 $2 $3 $4 $5 $6 $7 $8 $9 X,Y pos of 4 corners*
0 Add a 4 corners polygon primitive as box body*
4,1,4,$2,$3,$4,$5,$6,$7,$8,$9,$2,$3,0*
0 Add four circle primitives for the rounded corners*
1,1,$1+$1,$2,$3*
1,1,$1+$1,$4,$5*
1,1,$1+$1,$6,$7*
1,1,$1+$1,$8,$9*
0 Add four rect primitives between the rounded corners*
20,1,$1+$1,$2,$3,$4,$5,0*
20,1,$1+$1,$4,$5,$6,$7,0*
20,1,$1+$1,$6,$7,$8,$9,0*
20,1,$1+$1,$8,$9,$2,$3,0*%
G04 Aperture macros list end*
%ADD10RoundRect,0.150000X0.625000X-0.150000X0.625000X0.150000X-0.625000X0.150000X-0.625000X-0.150000X0*%
%ADD11RoundRect,0.250000X0.650000X-0.350000X0.650000X0.350000X-0.650000X0.350000X-0.650000X-0.350000X0*%
%ADD12RoundRect,0.250000X1.500000X1.000000X-1.500000X1.000000X-1.500000X-1.000000X1.500000X-1.000000X0*%
%ADD13R,2.670000X2.540000*%
%ADD14R,0.760000X1.270000*%
%ADD15RoundRect,0.150000X-0.150000X-0.625000X0.150000X-0.625000X0.150000X0.625000X-0.150000X0.625000X0*%
%ADD16RoundRect,0.250000X-0.350000X-0.650000X0.350000X-0.650000X0.350000X0.650000X-0.350000X0.650000X0*%
%ADD17RoundRect,0.250000X0.475000X-0.250000X0.475000X0.250000X-0.475000X0.250000X-0.475000X-0.250000X0*%
%ADD18RoundRect,0.250000X0.450000X-0.262500X0.450000X0.262500X-0.450000X0.262500X-0.450000X-0.262500X0*%
%ADD19RoundRect,0.150000X-0.150000X0.825000X-0.150000X-0.825000X0.150000X-0.825000X0.150000X0.825000X0*%
%ADD20RoundRect,0.250000X0.262500X0.450000X-0.262500X0.450000X-0.262500X-0.450000X0.262500X-0.450000X0*%
%ADD21R,2.000000X1.500000*%
%ADD22RoundRect,0.250000X-0.450000X0.262500X-0.450000X-0.262500X0.450000X-0.262500X0.450000X0.262500X0*%
%ADD23RoundRect,0.150000X0.150000X-0.825000X0.150000X0.825000X-0.150000X0.825000X-0.150000X-0.825000X0*%
G04 APERTURE END LIST*
D10*
%TO.C,X3*%
X132620000Y-83796000D03*
X132620000Y-82796000D03*
X132620000Y-81796000D03*
X132620000Y-80796000D03*
D11*
X136495000Y-85096000D03*
X136495000Y-79496000D03*
%TD*%
D12*
%TO.C,C1*%
X100405000Y-73660000D03*
X93905000Y-73660000D03*
%TD*%
D13*
%TO.C,D1*%
X91001000Y-66675000D03*
D14*
X88646000Y-66675000D03*
%TD*%
D15*
%TO.C,X2*%
X116600000Y-105950000D03*
X117600000Y-105950000D03*
X118600000Y-105950000D03*
X119600000Y-105950000D03*
D16*
X115300000Y-109825000D03*
X120900000Y-109825000D03*
%TD*%
D17*
%TO.C,C4*%
X91186000Y-91440000D03*
X91186000Y-89540000D03*
%TD*%
D18*
%TO.C,R5*%
X100203000Y-66722000D03*
X100203000Y-64897000D03*
%TD*%
D17*
%TO.C,C3*%
X110490000Y-90800000D03*
X110490000Y-88900000D03*
%TD*%
D19*
%TO.C,U3*%
X120015000Y-88330000D03*
X118745000Y-88330000D03*
X117475000Y-88330000D03*
X116205000Y-88330000D03*
X114935000Y-88330000D03*
X113665000Y-88330000D03*
X112395000Y-88330000D03*
X112395000Y-93280000D03*
X113665000Y-93280000D03*
X114935000Y-93280000D03*
X116205000Y-93280000D03*
X117475000Y-93280000D03*
X118745000Y-93280000D03*
X120015000Y-93280000D03*
%TD*%
D17*
%TO.C,C2*%
X121920000Y-88265000D03*
X121920000Y-86365000D03*
%TD*%
D20*
%TO.C,R2*%
X116840000Y-102870000D03*
X115015000Y-102870000D03*
%TD*%
D10*
%TO.C,X4*%
X132620000Y-92426000D03*
X132620000Y-91426000D03*
X132620000Y-90426000D03*
X132620000Y-89426000D03*
D11*
X136495000Y-88126000D03*
X136495000Y-93726000D03*
%TD*%
D21*
%TO.C,SW1*%
X104720000Y-76327000D03*
X113720000Y-76327000D03*
%TD*%
D22*
%TO.C,R4*%
X108458000Y-92409000D03*
X108458000Y-94234000D03*
%TD*%
%TO.C,R3*%
X110363000Y-92409000D03*
X110363000Y-94234000D03*
%TD*%
D23*
%TO.C,U4*%
X94234000Y-93153000D03*
X95504000Y-93153000D03*
X96774000Y-93153000D03*
X98044000Y-93153000D03*
X99314000Y-93153000D03*
X100584000Y-93153000D03*
X101854000Y-93153000D03*
X101854000Y-88203000D03*
X100584000Y-88203000D03*
X99314000Y-88203000D03*
X98044000Y-88203000D03*
X96774000Y-88203000D03*
X95504000Y-88203000D03*
X94234000Y-88203000D03*
%TD*%
D15*
%TO.C,X1*%
X125033000Y-105950000D03*
X126033000Y-105950000D03*
X127033000Y-105950000D03*
X128033000Y-105950000D03*
D16*
X129333000Y-109825000D03*
X123733000Y-109825000D03*
%TD*%
D20*
%TO.C,R1*%
X121539000Y-97790000D03*
X119714000Y-97790000D03*
%TD*%
D18*
%TO.C,R6*%
X106300000Y-91012500D03*
X106300000Y-89187500D03*
%TD*%
M02*
