M48
; DRILL file {KiCad (6.0.8-1)-1} date Sunday, December 25, 2022 at 02:42:38 PM
; FORMAT={-:-/ absolute / metric / decimal}
; #@! TF.CreationDate,2022-12-25T14:42:38-06:00
; #@! TF.GenerationSoftware,Kicad,Pcbnew,(6.0.8-1)-1
; #@! TF.FileFunction,Plated,1,2,PTH
FMAT,2
METRIC
; #@! TA.AperFunction,Plated,PTH,ViaDrill
T1C0.400
; #@! TA.AperFunction,Plated,PTH,ComponentDrill
T2C1.000
; #@! TA.AperFunction,Plated,PTH,ComponentDrill
T3C1.200
; #@! TA.AperFunction,Plated,PTH,ComponentDrill
T4C2.200
%
G90
G05
T1
X91.821Y-88.265
X98.6Y-91.4
X106.7Y-93.0
X107.3Y-87.9
X109.982Y-85.09
X109.982Y-97.917
X110.871Y-87.376
X111.252Y-95.631
X111.506Y-84.582
X111.633Y-102.489
X113.0Y-95.0
X113.792Y-103.251
X116.6Y-104.394
X118.1Y-108.8
X118.491Y-98.806
X119.7Y-90.2
X120.396Y-94.525
X120.396Y-96.139
X120.904Y-81.788
X122.428Y-92.202
X123.1Y-86.614
X124.968Y-98.298
X125.263Y-103.886
X126.533Y-108.8
X128.353Y-92.456
X129.032Y-88.138
X129.286Y-91.186
X129.794Y-81.788
X130.048Y-89.408
X130.048Y-92.964
X130.81Y-84.074
X134.366Y-81.534
X135.546Y-81.788
X135.546Y-90.678
T2
X86.93Y-100.33
X87.63Y-104.775
X87.63Y-107.315
X87.63Y-109.855
X89.44Y-100.33
X90.17Y-104.775
X90.17Y-107.315
X90.17Y-109.855
X91.98Y-100.33
X92.71Y-104.775
X92.71Y-107.315
X92.71Y-109.855
X94.52Y-100.33
X95.25Y-104.775
X95.25Y-107.315
X95.25Y-109.855
X97.06Y-80.01
X97.06Y-100.33
X99.6Y-80.01
X99.6Y-100.33
X100.31Y-104.775
X100.31Y-107.315
X100.31Y-109.855
X102.14Y-80.01
X102.14Y-100.33
X102.85Y-104.775
X102.85Y-107.315
X102.85Y-109.855
X104.648Y-64.936
X104.648Y-67.476
X104.648Y-70.016
X104.648Y-72.556
X104.68Y-80.01
X104.68Y-100.33
X105.39Y-104.775
X105.39Y-107.315
X105.39Y-109.855
X107.22Y-80.01
X107.22Y-100.33
X107.93Y-104.775
X107.93Y-107.315
X107.93Y-109.855
X109.76Y-80.01
X109.76Y-100.33
X111.7Y-104.82
X111.7Y-107.36
X111.7Y-109.9
X112.3Y-80.01
X112.3Y-100.33
X114.84Y-80.01
X114.84Y-100.33
X117.38Y-80.01
X117.38Y-100.33
X119.92Y-80.01
X119.92Y-100.33
X122.46Y-80.01
X122.46Y-100.33
X125.0Y-80.01
X125.0Y-100.33
X132.835Y-96.72
X132.835Y-99.26
X132.835Y-101.8
X132.835Y-104.34
X135.375Y-96.72
X135.375Y-99.26
X135.375Y-101.8
X135.375Y-104.34
T3
X85.09Y-71.91
X85.09Y-75.41
X126.675Y-74.295
X130.175Y-74.295
X133.675Y-74.295
T4
X83.185Y-65.913
X83.185Y-109.22
X135.017Y-65.913
X135.017Y-109.22
T0
M30
