%TF.GenerationSoftware,KiCad,Pcbnew,(6.0.8-1)-1*%
%TF.CreationDate,2022-12-25T14:42:35-06:00*%
%TF.ProjectId,M4_CAN_Feather_Carrier,4d345f43-414e-45f4-9665-61746865725f,rev?*%
%TF.SameCoordinates,Original*%
%TF.FileFunction,Soldermask,Bot*%
%TF.FilePolarity,Negative*%
%FSLAX46Y46*%
G04 Gerber Fmt 4.6, Leading zero omitted, Abs format (unit mm)*
G04 Created by KiCad (PCBNEW (6.0.8-1)-1) date 2022-12-25 14:42:35*
%MOMM*%
%LPD*%
G01*
G04 APERTURE LIST*
%ADD10R,1.700000X1.700000*%
%ADD11O,1.700000X1.700000*%
%ADD12C,3.800000*%
%ADD13R,2.400000X2.400000*%
%ADD14C,2.400000*%
%ADD15C,1.700000*%
G04 APERTURE END LIST*
D10*
%TO.C,J5*%
X111700000Y-104820000D03*
D11*
X111700000Y-107360000D03*
X111700000Y-109900000D03*
%TD*%
D12*
%TO.C,H1*%
X135017000Y-109220000D03*
%TD*%
D13*
%TO.C,J2*%
X133675000Y-74295000D03*
D14*
X130175000Y-74295000D03*
X126675000Y-74295000D03*
%TD*%
D12*
%TO.C,H2*%
X83185000Y-65913000D03*
%TD*%
%TO.C,H4*%
X83185000Y-109220000D03*
%TD*%
%TO.C,H3*%
X135017000Y-65913000D03*
%TD*%
D15*
%TO.C,U1*%
X104648000Y-64936000D03*
X104648000Y-67476000D03*
X104648000Y-70016000D03*
X104648000Y-72556000D03*
%TD*%
%TO.C,J3*%
X100310000Y-104775000D03*
X100310000Y-107315000D03*
X100310000Y-109855000D03*
X102850000Y-104775000D03*
X102850000Y-107315000D03*
X102850000Y-109855000D03*
X105390000Y-104775000D03*
X105390000Y-107315000D03*
X105390000Y-109855000D03*
X107930000Y-104775000D03*
X107930000Y-107315000D03*
X107930000Y-109855000D03*
%TD*%
%TO.C,J7*%
X87630000Y-104775000D03*
X87630000Y-107315000D03*
X87630000Y-109855000D03*
X90170000Y-104775000D03*
X90170000Y-107315000D03*
X90170000Y-109855000D03*
X92710000Y-104775000D03*
X92710000Y-107315000D03*
X92710000Y-109855000D03*
X95250000Y-104775000D03*
X95250000Y-107315000D03*
X95250000Y-109855000D03*
%TD*%
D13*
%TO.C,J1*%
X85090000Y-71910000D03*
D14*
X85090000Y-75410000D03*
%TD*%
D15*
%TO.C,U2*%
X86930000Y-100330000D03*
X89440000Y-100330000D03*
X91980000Y-100330000D03*
X94520000Y-100330000D03*
X97060000Y-100330000D03*
X99600000Y-100330000D03*
X102140000Y-100330000D03*
X104680000Y-100330000D03*
X107220000Y-100330000D03*
X109760000Y-100330000D03*
X112300000Y-100330000D03*
X114840000Y-100330000D03*
X117380000Y-100330000D03*
X119920000Y-100330000D03*
X122460000Y-100330000D03*
X125000000Y-100330000D03*
X125000000Y-80010000D03*
X122460000Y-80010000D03*
X119920000Y-80010000D03*
X117380000Y-80010000D03*
X114840000Y-80010000D03*
X112300000Y-80010000D03*
X109760000Y-80010000D03*
X107220000Y-80010000D03*
X104680000Y-80010000D03*
X102140000Y-80010000D03*
X99600000Y-80010000D03*
X97060000Y-80010000D03*
%TD*%
D10*
%TO.C,J4*%
X135375000Y-104340000D03*
D11*
X132835000Y-104340000D03*
X135375000Y-101800000D03*
X132835000Y-101800000D03*
X135375000Y-99260000D03*
X132835000Y-99260000D03*
X135375000Y-96720000D03*
X132835000Y-96720000D03*
%TD*%
M02*
